<?xml version="1.0" encoding="UTF-8"?>
<svg width="250px" height="53px" viewBox="0 0 250 53" version="1.1" xmlns="http://www.w3.org/2000/svg" xmlns:xlink="http://www.w3.org/1999/xlink">
    <!-- Generator: Sketch 64 (93537) - https://sketch.com -->
    <title>carshop-logo-landscape</title>
    <desc>Created with Sketch.</desc>
    <g id="Page-1" stroke="none" stroke-width="1" fill="none" fill-rule="evenodd">
        <g id="carshop-logo-landscape" fill="#FFFFFF" fill-rule="nonzero">
            <path d="M118.572261,32.4504662 C117.15035,32.4504662 115.949883,32.240676 115.949883,30.4108392 L115.949883,20.3962704 C115.949883,14.7668998 111.072261,11.4539627 103.971445,11.4539627 C99.0180653,11.4539627 92.0250583,14.6416084 92.0250583,21.1247086 L100.713869,21.1625874 C100.874126,19.4522145 101.611305,18.4236597 103.898601,18.1410256 C105.885781,17.8991841 107.345571,18.4324009 107.479604,19.9242424 C107.625291,21.5472028 107.004662,22.8146853 102.293124,23.3974359 C94.1637529,24.4026807 90.8566434,26.1655012 90.8566434,31.3898601 C90.8566434,36.2820513 94.5629371,39.4900932 100.454545,39.4900932 C104.662005,39.4900932 107.660256,38.4382284 109.393939,36.3344988 C109.653309,37.0052937 110.068832,37.6046049 110.606061,38.0827506 C111.881591,38.9850707 113.394606,39.4917737 114.956294,39.539627 C116.258261,39.4983713 117.53939,39.2013553 118.72669,38.6655012 L118.72669,32.4592075 L118.572261,32.4504662 Z M107.465035,26.5472028 L107.465035,28.3741259 C107.465035,32.4155012 105.002914,33.9481352 102.138695,33.9481352 C100.250583,33.9481352 98.8752914,32.782634 98.8752914,31.4364802 C98.8752914,29.9796037 99.8164336,28.8578089 101.908508,28.5227273 C103.828671,28.2371795 106.38986,27.6223776 107.465035,26.5472028 Z" id="Shape"></path>
            <path d="M122.473776,38.5518648 L122.473776,12.0367133 L130.603147,12.0367133 L130.603147,15.6643357 C131.815268,12.983683 134.944639,11.4568765 138.575175,11.4568765 C139.257559,11.4690367 139.938626,11.5215762 140.614802,11.6142191 L140.614802,20.1456876 C139.751382,19.9722143 138.873094,19.8834096 137.992424,19.8805361 C133.522727,19.8805361 130.891608,22.4067599 130.891608,26.7715618 L130.891608,38.5460373 L122.473776,38.5518648 Z" id="Path"></path>
            <path d="M153.108974,23.4382284 C148.971445,21.7511655 147.240676,20.6351981 147.240676,18.0798368 C147.240676,15.8304196 149.026807,14.3210956 151.684149,14.3210956 C153.758741,14.3210956 155.320513,15.1952214 156.322844,16.9609557 L156.45979,17.2027972 L159.12296,15.8391608 L158.991841,15.5798368 C157.534965,12.7156177 155.055361,11.2645688 151.631702,11.2645688 C147.226107,11.2645688 144.026807,14.1317016 144.026807,18.0798368 C144.026807,20.0786713 144.609557,21.5763403 145.842075,22.8350816 C146.917249,23.9160839 148.484848,24.8397436 151.255828,26.0402098 C153.624709,27.0250583 155.41958,27.9749417 156.448135,28.784965 C157.386364,29.527972 157.861305,30.6177156 157.861305,32.0308858 C157.861305,34.8776224 155.632284,36.5763403 151.893939,36.5763403 C148.228438,36.5763403 145.617716,34.9446387 144.539627,31.981352 L144.440559,31.7045455 L141.698718,32.747669 L141.780303,33.0099068 C143.065268,37.1445221 146.853147,39.6270396 151.893939,39.6270396 C157.386364,39.6270396 161.075175,36.5705128 161.075175,32.0250583 C161.075175,27.5728438 158.275058,25.5740093 153.108974,23.4382284 Z" id="Path"></path>
            <path d="M176.666667,11.5268065 C172.514569,11.5268065 169.592075,13.0361305 167.963287,16.0168998 L167.963287,3.5460373 L164.758159,3.5460373 L164.758159,39.044289 L167.963287,39.044289 L167.963287,24.4959207 C167.963287,18.4731935 171.153846,14.5891608 176.089744,14.5891608 C180.705128,14.5891608 183.688811,17.8613054 183.688811,22.9224942 L183.688811,39.044289 L186.893939,39.044289 L186.893939,22.3921911 C186.893939,19.0850816 185.94697,16.4335664 184.079254,14.5250583 C182.185315,12.5029138 179.761072,11.5268065 176.666667,11.5268065 Z" id="Path"></path>
            <path d="M204.7669,11.2645688 C200.743007,11.2645688 197.328089,12.6398601 194.618298,15.3438228 C191.908508,18.0477855 190.539044,21.462704 190.539044,25.4924242 C190.539044,29.5221445 191.911422,32.9312354 194.618298,35.6410256 C197.325175,38.3508159 200.737179,39.7202797 204.7669,39.7202797 C208.79662,39.7202797 212.115385,38.3857809 214.863054,35.6410256 C217.610723,32.8962704 218.997669,29.481352 218.997669,25.4924242 C218.997669,21.5034965 217.604895,18.0885781 214.863054,15.3438228 C212.121212,12.5990676 208.811189,11.2645688 204.7669,11.2645688 Z M215.7838,25.495338 C215.7838,28.6451049 214.714452,31.3374126 212.607809,33.4935897 C210.501166,35.6031469 207.864219,36.6695804 204.7669,36.6695804 C201.66958,36.6695804 198.980186,35.6031469 196.873543,33.5081585 C194.772727,31.3432401 193.764569,28.7237762 193.764569,25.495338 C193.764569,22.2668998 194.81352,19.6212121 196.888112,17.54662 C198.980186,15.4050117 201.634615,14.3210956 204.781469,14.3210956 C207.928322,14.3210956 210.530303,15.4050117 212.622378,17.5495338 C214.714452,19.6940559 215.7838,22.3280886 215.7838,25.495338 L215.7838,25.495338 Z" id="Shape"></path>
            <path d="M245.751748,15.3525641 C241.38124,10.8851995 234.526206,9.97720819 229.143357,13.1526807 C227.636946,14.1142191 226.55303,15.1923077 225.856643,16.4015152 L225.856643,11.9463869 L222.651515,11.9463869 L222.651515,49.1928904 L225.856643,49.1928904 L225.856643,34.5920746 C226.666445,35.9451721 227.796045,37.078775 229.14627,37.8933566 C231.101399,39.1083916 233.435315,39.7261072 236.08683,39.7261072 C239.743924,39.7951094 243.259392,38.3131297 245.763403,35.6468531 C248.40035,32.9020979 249.737762,29.4900932 249.737762,25.5040793 C249.737762,21.5180653 248.388695,18.0973193 245.751748,15.3525641 Z M236.075175,36.6695804 C233.009907,36.6695804 230.539044,35.6497669 228.551865,33.5518648 C226.564685,31.4539627 225.524476,28.7325175 225.524476,25.495338 C225.524476,22.2581585 226.541375,19.5979021 228.546037,17.4912587 C230.488836,15.4126879 233.22485,14.2597895 236.069347,14.3210956 C238.894658,14.2533306 241.606718,15.4319311 243.484848,17.5437063 C245.48951,19.6503497 246.50641,22.3280886 246.50641,25.495338 C246.50641,28.6130536 245.48951,31.2878788 243.481935,33.4498834 C241.605256,35.5582188 238.896993,36.7354929 236.075175,36.6695804 L236.075175,36.6695804 Z" id="Shape"></path>
            <path d="M88.8956876,19.1928904 L81.3636364,22.5407925 C80.1981352,20.5011655 78.6130536,19.4085082 76.532634,19.4085082 C73.1526807,19.4085082 70.5623543,22.0017483 70.5623543,25.5273893 C70.5623543,29.0530303 73.1993007,31.5909091 76.532634,31.5909091 C78.6130536,31.5909091 80.3409091,30.6264569 81.215035,28.2954545 L89.2424242,30.4574592 C87.4941725,37.7418415 81.1130536,39.5221445 76.745338,39.5221445 C72.6427739,39.5221445 69.1695804,38.208042 66.3315851,35.5244755 C63.5431235,32.8409091 62.1241259,29.527972 62.1241259,25.530303 C62.1241259,21.532634 63.5431235,18.219697 66.3315851,15.5361305 C69.1724942,12.8525641 72.6427739,11.4859783 76.745338,11.4859783 C81.1130536,11.4772727 85.6905594,13.0740093 88.8956876,19.1928904 Z" id="Path"></path>
            <rect id="Rectangle" x="0.0145687646" y="29.5571096" width="11.5472028" height="23.1497669" rx="5.7736014"></rect>
            <rect id="Rectangle" x="17.9632867" y="29.5629371" width="11.5472028" height="23.1497669" rx="5.7736014"></rect>
            <rect id="Rectangle" x="17.9807692" y="0.0174825175" width="11.5472028" height="23.1497669" rx="5.7736014"></rect>
            <rect id="Rectangle" x="35.8916084" y="29.5629371" width="11.5472028" height="23.1497669" rx="5.7736014"></rect>
            <rect id="Rectangle" x="0.0466200466" y="0.0174825175" width="11.5472028" height="23.1497669" rx="5.7736014"></rect>
            <rect id="Rectangle" x="35.9149184" y="0.0174825175" width="11.5472028" height="23.1497669" rx="5.7736014"></rect>
        </g>
    </g>
</svg>