<svg xmlns="http://www.w3.org/2000/svg" width="251" height="31" viewBox="0 0 251 31">
  <path fill="#FFF" fill-rule="evenodd" d="M0.755554247,0.6 L17.2569623,0.6 L17.2569623,4.51633419 L5.15592974,4.51633419 L5.15592974,13.2290777 L16.8169248,13.2290777 L16.8169248,17.1454118 L5.15592974,17.1454118 L5.15592974,26.0341703 L17.6529961,26.0341703 L17.6529961,29.9505045 L0.755554247,29.9505045 L0.755554247,0.6 Z M37.4595752,10.5888524 L29.054858,29.9505045 L27.6467378,29.9505045 L19.1540131,10.5888524 L23.2463623,10.5888524 L28.3948017,22.4258624 L33.367226,10.5888524 L37.4595752,10.5888524 Z M55.6820191,26.2981929 L55.6820191,28.7624031 C54.097876,29.7891625 52.8364476,30.3025346 51.8976961,30.3025346 C50.401561,30.3025346 49.4628236,29.6278171 49.0814558,28.2783618 C47.5266487,29.6278171 45.8691905,30.3025346 44.1090315,30.3025346 C42.7595763,30.3025346 41.6374918,29.8331659 40.7427443,28.8944144 C39.8479968,27.9556629 39.4006297,26.7822412 39.4006297,25.374114 C39.4006297,22.5871956 41.4834533,20.5483753 45.6491629,19.2575921 L49.0814558,18.201502 L49.0814558,17.4534381 C49.0814558,16.3093348 48.9054426,15.5466107 48.5534108,15.1652429 C47.9960271,14.4318433 47.0719575,14.065149 45.7811742,14.065149 C43.9623432,14.065149 41.9968618,15.0772252 39.884671,17.1014081 L39.884671,12.7450364 C41.674166,11.0728853 43.7423218,10.2368223 46.0892005,10.2368223 C48.9054549,10.2368223 50.9002718,11.1168886 52.0737112,12.8770476 C52.5724229,13.6104472 52.8804461,14.7398656 52.99779,16.2653367 C53.027126,16.6467045 53.0417938,17.6294452 53.0417938,19.2135883 L53.0417938,25.6381365 C53.0417938,26.63556 53.2471426,27.1342642 53.6578463,27.1342642 C54.0098781,27.1342642 54.6845956,26.8555765 55.6820191,26.2981929 Z M49.0814558,20.4016897 L46.9692756,21.1057498 C44.534389,21.9271573 43.3169639,23.1299146 43.3169639,24.7140577 C43.3169639,25.4474573 43.5589822,26.041502 44.0430259,26.4962098 C44.5270696,26.9509175 45.1504499,27.178268 45.9131855,27.178268 C46.9399449,27.178268 47.9960244,26.7088993 49.0814558,25.7701478 L49.0814558,20.4016897 Z M58.7671712,10.5888524 L62.7275092,10.5888524 L62.7275092,12.7890401 C64.6930201,11.0875531 66.5704948,10.2368223 68.3599898,10.2368223 C69.709445,10.2368223 70.9048684,10.5888488 71.9462958,11.2929124 C72.9877232,11.996976 73.7431135,12.9503812 74.2124892,14.1531565 C74.623193,15.2385879 74.8285418,16.837375 74.8285418,18.9495658 L74.8285418,29.9505045 L70.8682038,29.9505045 L70.8682038,19.1695846 C70.8682038,17.1454017 70.604184,15.7519634 70.0761363,14.9892279 C69.4014086,13.9918044 68.4480035,13.4931002 67.2158922,13.4931002 C65.837101,13.4931002 64.3409883,14.3584987 62.7275092,16.0893217 L62.7275092,29.9505045 L58.7671712,29.9505045 L58.7671712,10.5888524 Z M91.6868693,11.8209575 L91.6868693,15.8693029 C89.5746785,14.4611758 87.6972037,13.7571227 86.0543886,13.7571227 C85.408997,13.7571227 84.8736233,13.9038004 84.4482516,14.1971603 C84.0228798,14.4905201 83.8101971,14.8572144 83.8101971,15.2972541 C83.8101971,15.7372939 84.0008782,16.1333237 84.3822459,16.4853555 C84.7636137,16.8373873 85.5996767,17.3654271 86.89046,18.0694907 C88.4746031,18.9495702 89.5893537,19.6829588 90.2347453,20.2696784 C91.7895525,21.6778056 92.5669444,23.2179217 92.5669444,24.8900727 C92.5669444,26.4155438 91.9215624,27.6989738 90.6307791,28.7404013 C89.3399959,29.7818287 87.7705443,30.3025346 85.9223774,30.3025346 C84.1328824,30.3025346 82.0060555,29.6864881 79.5418329,28.4543768 L79.5418329,24.0540014 C81.8593756,25.7848244 83.9275314,26.6502229 85.7463623,26.6502229 C86.4504259,26.6502229 87.0664724,26.4595419 87.5945201,26.0781741 C88.1225678,25.6968063 88.3865876,25.2567732 88.3865876,24.7580614 C88.3865876,24.1420058 87.9905578,23.5406272 87.1984863,22.9539075 C86.8757904,22.7192196 85.6730332,22.0004988 83.5901784,20.7977235 C80.9206039,19.2722524 79.5858367,17.3801098 79.5858367,15.1212391 C79.5858367,13.6837759 80.1652136,12.5103542 81.323985,11.6009387 C82.4827563,10.6915232 83.9715351,10.2368223 85.7903661,10.2368223 C87.8145489,10.2368223 89.7800303,10.7648621 91.6868693,11.8209575 Z M112.46642,13.2290777 L128.483787,13.2290777 L128.483787,0.6 L132.884163,0.6 L132.884163,29.9505045 L128.483787,29.9505045 L128.483787,17.1454118 L112.46642,17.1454118 L112.46642,29.9505045 L108.066045,29.9505045 L108.066045,0.6 L112.46642,0.6 L112.46642,13.2290777 Z M154.274877,26.2981929 L154.274877,28.7624031 C152.690734,29.7891625 151.429305,30.3025346 150.490554,30.3025346 C148.994419,30.3025346 148.055681,29.6278171 147.674314,28.2783618 C146.119506,29.6278171 144.462048,30.3025346 142.701889,30.3025346 C141.352434,30.3025346 140.230349,29.8331659 139.335602,28.8944144 C138.440854,27.9556629 137.993487,26.7822412 137.993487,25.374114 C137.993487,22.5871956 140.076311,20.5483753 144.242021,19.2575921 L147.674314,18.201502 L147.674314,17.4534381 C147.674314,16.3093348 147.4983,15.5466107 147.146268,15.1652429 C146.588885,14.4318433 145.664815,14.065149 144.374032,14.065149 C142.555201,14.065149 140.58972,15.0772252 138.477529,17.1014081 L138.477529,12.7450364 C140.267024,11.0728853 142.33518,10.2368223 144.682058,10.2368223 C147.498313,10.2368223 149.49313,11.1168886 150.666569,12.8770476 C151.165281,13.6104472 151.473304,14.7398656 151.590648,16.2653367 C151.619984,16.6467045 151.634651,17.6294452 151.634651,19.2135883 L151.634651,25.6381365 C151.634651,26.63556 151.84,27.1342642 152.250704,27.1342642 C152.602736,27.1342642 153.277453,26.8555765 154.274877,26.2981929 Z M147.674314,20.4016897 L145.562133,21.1057498 C143.127247,21.9271573 141.909822,23.1299146 141.909822,24.7140577 C141.909822,25.4474573 142.15184,26.041502 142.635884,26.4962098 C143.119927,26.9509175 143.743308,27.178268 144.506043,27.178268 C145.532803,27.178268 146.588882,26.7088993 147.674314,25.7701478 L147.674314,20.4016897 Z M157.360029,0.6 L161.320367,0.6 L161.320367,29.9505045 L157.360029,29.9505045 L157.360029,0.6 Z M178.178694,11.8209575 L178.178694,15.8693029 C176.066504,14.4611758 174.189029,13.7571227 172.546214,13.7571227 C171.900822,13.7571227 171.365448,13.9038004 170.940077,14.1971603 C170.514705,14.4905201 170.302022,14.8572144 170.302022,15.2972541 C170.302022,15.7372939 170.492703,16.1333237 170.874071,16.4853555 C171.255439,16.8373873 172.091502,17.3654271 173.382285,18.0694907 C174.966428,18.9495702 176.081179,19.6829588 176.72657,20.2696784 C178.281378,21.6778056 179.058769,23.2179217 179.058769,24.8900727 C179.058769,26.4155438 178.413388,27.6989738 177.122604,28.7404013 C175.831821,29.7818287 174.262369,30.3025346 172.414202,30.3025346 C170.624708,30.3025346 168.497881,29.6864881 166.033658,28.4543768 L166.033658,24.0540014 C168.351201,25.7848244 170.419357,26.6502229 172.238187,26.6502229 C172.942251,26.6502229 173.558297,26.4595419 174.086345,26.0781741 C174.614393,25.6968063 174.878413,25.2567732 174.878413,24.7580614 C174.878413,24.1420058 174.482383,23.5406272 173.690311,22.9539075 C173.367616,22.7192196 172.164858,22.0004988 170.082003,20.7977235 C167.412429,19.2722524 166.077662,17.3801098 166.077662,15.1212391 C166.077662,13.6837759 166.657039,12.5103542 167.81581,11.6009387 C168.974581,10.6915232 170.46336,10.2368223 172.282191,10.2368223 C174.306374,10.2368223 176.271855,10.7648621 178.178694,11.8209575 Z M183.112004,0.6 L187.072342,0.6 L187.072342,12.7890401 C189.037853,11.0875531 190.915328,10.2368223 192.704823,10.2368223 C194.054278,10.2368223 195.249701,10.5888488 196.291129,11.2929124 C197.332556,11.996976 198.087947,12.9503812 198.557322,14.1531565 C198.968026,15.2385879 199.173375,16.837375 199.173375,18.9495658 L199.173375,29.9505045 L195.213037,29.9505045 L195.213037,19.1695846 C195.213037,17.1454017 194.949017,15.7519634 194.420969,14.9892279 C193.746242,13.9918044 192.792837,13.4931002 191.560725,13.4931002 C190.181934,13.4931002 188.685821,14.3584987 187.072342,16.0893217 L187.072342,29.9505045 L183.112004,29.9505045 L183.112004,0.6 Z M219.860029,26.2981929 L219.860029,28.7624031 C218.275886,29.7891625 217.014458,30.3025346 216.075706,30.3025346 C214.579571,30.3025346 213.640834,29.6278171 213.259466,28.2783618 C211.704659,29.6278171 210.0472,30.3025346 208.287041,30.3025346 C206.937586,30.3025346 205.815502,29.8331659 204.920754,28.8944144 C204.026007,27.9556629 203.57864,26.7822412 203.57864,25.374114 C203.57864,22.5871956 205.661463,20.5483753 209.827173,19.2575921 L213.259466,18.201502 L213.259466,17.4534381 C213.259466,16.3093348 213.083452,15.5466107 212.731421,15.1652429 C212.174037,14.4318433 211.249967,14.065149 209.959184,14.065149 C208.140353,14.065149 206.174872,15.0772252 204.062681,17.1014081 L204.062681,12.7450364 C205.852176,11.0728853 207.920332,10.2368223 210.26721,10.2368223 C213.083465,10.2368223 215.078282,11.1168886 216.251721,12.8770476 C216.750433,13.6104472 217.058456,14.7398656 217.1758,16.2653367 C217.205136,16.6467045 217.219804,17.6294452 217.219804,19.2135883 L217.219804,25.6381365 C217.219804,26.63556 217.425152,27.1342642 217.835856,27.1342642 C218.187888,27.1342642 218.862606,26.8555765 219.860029,26.2981929 Z M213.259466,20.4016897 L211.147285,21.1057498 C208.712399,21.9271573 207.494974,23.1299146 207.494974,24.7140577 C207.494974,25.4474573 207.736992,26.041502 208.221036,26.4962098 C208.70508,26.9509175 209.32846,27.178268 210.091195,27.178268 C211.117955,27.178268 212.174034,26.7088993 213.259466,25.7701478 L213.259466,20.4016897 Z M250.755554,10.5888524 L242.526852,29.9505045 L241.250743,29.9505045 L235.574259,16.7933818 L230.205801,29.9505045 L228.973696,29.9505045 L220.304956,10.5888524 L224.397305,10.5888524 L229.413733,22.0738324 L234.078131,10.5888524 L237.026383,10.5888524 L241.866796,21.9858249 L246.619201,10.5888524 L250.755554,10.5888524 Z"/>
</svg>
