<svg xmlns="http://www.w3.org/2000/svg" width="250" height="51" viewBox="0 0 250 51">
  <g fill="#FFF" fill-rule="evenodd" transform="matrix(1 0 0 -1 0 50.525)">
    <path d="M22.246696 50.3394732C22.0088106 50.2423268 21.6299559 50.101023 21.4096916 50.0215397 20.5374449 49.7212691 19.5154185 49.1648855 19.1101322 48.7586371 18.7136564 48.3788832 18.6784141 48.3170628 18.6784141 47.9196459 18.6784141 47.5133975 18.7048458 47.4604086 19.1101322 47.0806546 19.5066079 46.7009007 20.3436123 46.2328319 21.2334802 45.888404 21.4537445 45.8000891 21.7092511 45.7029427 21.8061674 45.6676168 22.7929515 45.2790314 23.1453744 45.2260425 23.2334802 45.4468296 23.3039648 45.6411223 23.0660793 45.870741 22.6696035 46.0120448 22.0088106 46.2328319 20.845815 46.868699 20.5286344 47.1689695 19.8854626 47.7783421 19.876652 48.0521182 20.4845815 48.6261648 20.8193833 48.9440983 21.2422907 49.1825484 22.8193833 49.9420563 23.092511 50.0656971 23.2246696 50.1893379 23.2422907 50.3306417 23.2687225 50.4984399 23.2334802 50.5249344 22.9779736 50.5161029 22.8193833 50.5161029 22.4933921 50.427788 22.246696 50.3394732zM15.7268722 49.6771117C13.9735683 48.3612202 12.9515419 47.177801 12.9515419 46.4536191 12.9515419 46.1533486 13.5506608 45.6499538 14.0969163 45.4733241 14.784141 45.2525369 15.1101322 45.217211 16.722467 45.1642221 18.0792952 45.1288961 18.1497797 45.1288961 18.1497797 45.2878629 18.1497797 45.5528075 17.9735683 45.6676168 17.5682819 45.6676168 17.1453744 45.6676168 15.814978 45.8795725 15.2599119 46.0385392 15.0572687 46.1003596 14.7665198 46.2593264 14.6167401 46.4006302 14.3700441 46.6214173 14.3436123 46.6920692 14.3876652 46.9923398 14.4493392 47.46924 14.8370044 47.9991292 15.814978 48.9087723 16.3700441 49.4386615 16.6519824 49.7654265 16.6519824 49.8890674 16.6519824 50.1981694 16.3171806 50.1275175 15.7268722 49.6771117zM26.8281938 48.8027945C25.4889868 48.6261648 25.1101322 48.502524 24.6519824 48.0697811 23.9735683 47.4427456 24.7753304 46.1710115 26.8105727 44.6255014 27.6740088 43.9631399 28.0440529 43.8218361 28.0881057 44.1221067 28.1057269 44.2457475 27.8942731 44.5018606 27.3480176 45.0052553 26.5022026 45.7735946 25.8590308 46.5860914 25.7709251 46.9835083 25.6211454 47.6811957 26.4493392 48.0874441 28.4581498 48.3170628 28.969163 48.3788832 29.4361233 48.4407036 29.4977974 48.4583665 29.6828194 48.5113555 29.6211454 48.8204575 29.4096916 48.8822779 29.092511 48.9617613 27.7973568 48.9176038 26.8281938 48.8027945z"/>
    <path d="M22.4229075 48.5466814C22.1938326 48.3612202 22.1585903 48.2729053 22.1585903 47.9196459 22.1585903 47.5752179 22.2026432 47.46924 22.4052863 47.2926103 22.6960352 47.0453287 23.0484581 47.0188342 23.3480176 47.2307899 23.6563877 47.4427456 23.7004405 47.522229 23.7004405 47.9373088 23.7004405 48.2552423 23.6563877 48.3435572 23.4096916 48.5290184 23.0396476 48.811626 22.7665198 48.8204575 22.4229075 48.5466814zM16.7753304 48.3258942C16.5374449 48.2199164 16.2995595 47.848994 16.2995595 47.5752179 16.2995595 47.2661159 16.7488987 46.81571 17.0660793 46.81571 17.4801762 46.81571 17.6740088 46.9040249 17.8237885 47.1689695 18.0264317 47.5133975 18.0088106 47.8224995 17.7797357 48.0962756 17.5594714 48.3435572 17.0837004 48.4495351 16.7753304 48.3258942zM10.1409692 47.5310605C9.85022026 47.2396214 9.27753304 46.4271246 8.98678414 45.888404 8.82819383 45.5969649 8.62555066 45.2437054 8.54625551 45.0935702 8.26431718 44.563681 8.10572687 44.0161288 8.10572687 43.5303971 8.10572687 43.1064857 8.14096916 43.0093394 8.32599119 42.8592041 8.8722467 42.4264612 9.77973568 42.4264612 11.4977974 42.8592041 13.2511013 43.3007784 13.4713656 43.4067562 13.3303965 43.7776787 13.2687225 43.9366454 13.092511 43.9189825 12.1585903 43.6805323 11.277533 43.4597452 9.96475771 43.4067562 9.62114537 43.583386 9.11894273 43.8483306 9.14537445 44.563681 9.70044053 45.7117742 9.89427313 46.0915281 10.0792952 46.4359561 10.1145374 46.4624506 10.2643172 46.5684284 10.6696035 47.4515771 10.6255507 47.5663864 10.5638767 47.7518476 10.3436123 47.7341846 10.1409692 47.5310605zM28 47.0188342C27.7004405 46.7097322 27.6563877 46.1356856 27.9118943 45.9148984 28.3700441 45.50865 28.7577093 45.50865 29.1277533 45.9060669 29.5770925 46.3917987 29.277533 47.1336436 28.5903084 47.2219584 28.2819383 47.2661159 28.2026432 47.2396214 28 47.0188342z"/>
    <path d="M11.154185 46.0650337C10.6343612 45.5793019 10.9955947 44.6961533 11.7092511 44.6961533 12.2114537 44.7049848 12.4493392 44.9699294 12.4581498 45.4998186 12.4669604 45.870741 12.4317181 45.9678873 12.246696 46.1091911 11.9295154 46.3564727 11.4449339 46.3388098 11.154185 46.0650337zM30.3964758 46.1356856C30.1409692 46.0826967 29.8854626 45.8089206 29.8061674 45.5174815 29.6740088 44.9522664 30.0969163 43.8571621 31.0220264 42.3823038 31.7356828 41.2518735 32.1674009 40.8544566 32.2995595 41.2077161 32.3524229 41.3401884 32.2819383 41.4991552 31.8061674 42.3558094 31.1718062 43.4950711 30.9251101 44.1044437 30.9251101 44.563681 30.9251101 44.8021311 30.9867841 44.908109 31.215859 45.0847387 31.4801762 45.2878629 31.5947137 45.3143573 32.2290749 45.3143573 32.9339207 45.3143573 33.277533 45.2613684 34.2995595 44.9787608 34.6696035 44.8816145 34.8546256 44.8639515 34.9603524 44.9346034 35.3568282 45.181885 34.9515419 45.4556611 33.7004405 45.7912576 33.4096916 45.870741 33.0484581 45.9767188 32.8898678 46.0297077 32.5814978 46.1268541 30.7312775 46.2063375 30.3964758 46.1356856z"/>
    <path d="M32.9867841 43.9719714C32.5550661 43.7688472 32.4757709 43.0799912 32.8281938 42.7179003 33.4361233 42.1173592 34.5022026 42.7708892 34.185022 43.54806 33.9911894 44.0161288 33.4537445 44.20159 32.9867841 43.9719714zM5.2246696 43.4862396C5.14537445 43.4597452 4.81938326 42.5236076 4.49339207 41.3843458 4.29955947 40.7043214 4.21145374 39.5209022 4.30837004 39.0263389 4.44933921 38.355146 4.63436123 38.2050107 5.29515419 38.2138422 6.04405286 38.2226737 6.85462555 38.5847646 8.30837004 39.5562281 9.18061674 40.1302747 9.49779736 40.4482083 9.38325991 40.6336695 9.30396476 40.7573103 8.81938326 40.6601639 8.62555066 40.4923657 8.55506608 40.4217138 8.44933921 40.3687249 8.39647577 40.3687249 8.34361233 40.3687249 8.28193833 40.3422304 8.26431718 40.298073 8.22907489 40.2097581 6.82819383 39.5297337 6.42290749 39.4060929 5.89427313 39.2471261 5.67400881 39.282452 5.4185022 39.5915541 5.18942731 39.8653302 5.18061674 39.8918246 5.2246696 40.8014677 5.25110132 41.3136939 5.31277533 41.9407295 5.36563877 42.1791796 5.6123348 43.2831154 5.57709251 43.6098804 5.2246696 43.4862396z"/>
    <path d="M7.00440529 42.603091C6.75770925 42.5412706 6.55506608 42.3469779 6.43171806 42.0378758 6.1938326 41.4726607 6.85462555 40.8544566 7.45374449 41.0752438 7.85903084 41.2342106 8.01762115 41.4285033 8.01762115 41.7729312 8.01762115 42.3204834 7.52422907 42.7179003 7.00440529 42.603091zM34.5991189 42.3028204C34.30837 42.1350222 34.1497797 41.6846164 34.1497797 41.0310864 34.1585903 40.4305453 34.2995595 39.4060929 34.4493392 38.955687 34.4845815 38.8320462 34.5903084 38.4787868 34.6784141 38.1608533 35.0660793 36.7566469 35.5947137 36.6330061 35.3303965 38.0018865 34.9603524 39.9624765 34.9603524 40.6513325 35.3303965 41.0310864 35.6299559 41.3313569 36.2995595 41.2518735 37.2334802 40.8014677 37.6651982 40.5983435 38.0352423 40.4040508 38.061674 40.3775564 38.1321586 40.2892415 38.4493392 40.1037803 38.6167401 40.0507914 38.6960352 40.0154654 38.7665198 39.9624765 38.7665198 39.9183191 38.7665198 39.8741616 38.8898678 39.8388357 39.030837 39.8388357 39.3920705 39.8388357 39.3832599 40.0949488 38.9955947 40.4305453 38.6431718 40.7484788 37.3656388 41.5963015 36.8634361 41.8524146 35.876652 42.3558094 34.9955947 42.5324391 34.5991189 42.3028204zM140.396476 40.1391062C140.299559 40.1214433 140 40.0596229 139.735683 39.9978025 138.784141 39.8035097 137.753304 39.1499797 137.180617 38.3904719 136.325991 37.2423787 136.123348 36.4828708 136.123348 34.3898085 136.123348 33.5243228 136.088106 32.764815 136.044053 32.6941631 135.982379 32.5970167 135.735683 32.5705223 134.898678 32.5881853 133.559471 32.6146797 133.480176 32.5705223 133.480176 31.9346553L133.480176 31.4489235 134.696035 31.4489235C135.524229 31.4489235 135.947137 31.4135976 136.017621 31.3429457 136.096916 31.2634623 136.123348 29.7179521 136.123348 24.9401179L136.123348 18.6344366 136.810573 18.660931 137.488987 18.6874255 137.53304 25.0460958 137.577093 31.4047661 138.92511 31.4312605 140.264317 31.457755 140.264317 31.9169923C140.264317 32.1642739 140.229075 32.420387 140.193833 32.4733759 140.15859 32.5351963 139.69163 32.5705223 138.92511 32.5705223 138.264317 32.5793538 137.674009 32.6058482 137.629956 32.6411742 137.436123 32.7559835 137.54185 35.3436091 137.779736 36.3503985 138.035242 37.4719973 138.757709 38.2315051 139.920705 38.5935961 140.431718 38.7525629 141.638767 38.7084054 142.334802 38.5052812 142.678414 38.3993034 143.048458 38.3109885 143.171806 38.3109885 143.38326 38.2933256 143.39207 38.3109885 143.39207 38.9115296 143.39207 39.5738911 143.409692 39.5562281 142.731278 39.8211727 142.105727 40.0684543 140.837004 40.2450841 140.396476 40.1391062zM211.894273 40.1391062C210.519824 39.9094876 209.735683 39.5209022 208.969163 38.7084054 207.885463 37.5514807 207.577093 36.5358597 207.577093 34.1336954 207.577093 33.4095135 207.54185 32.764815 207.497797 32.6941631 207.436123 32.5970167 207.189427 32.5705223 206.352423 32.5881853 205.770925 32.5970167 205.22467 32.5705223 205.136564 32.5175334 205.013216 32.455713 204.977974 32.3409036 204.986784 31.9611497L205.004405 31.4930809 206.193833 31.4665865C207.048458 31.4489235 207.409692 31.4135976 207.480176 31.3252827 207.550661 31.2457993 207.585903 29.3205352 207.594714 24.9489494L207.621145 18.6874255 208.281938 18.6874255 208.942731 18.6874255 208.969163 24.9489494C208.977974 29.4000186 209.013216 31.2457993 209.0837 31.3341142 209.162996 31.422429 209.497797 31.4489235 210.449339 31.4489235L211.718062 31.4489235 211.718062 31.9258238C211.718062 32.2260943 211.674009 32.43805 211.594714 32.4998704 211.506608 32.5705223 211.092511 32.5970167 210.30837 32.5881853 209.39207 32.5705223 209.127753 32.5970167 209.066079 32.6941631 208.960352 32.8707928 208.969163 34.707742 209.0837 35.4142609 209.39207 37.339525 209.929515 38.0902014 211.303965 38.5582701 211.85022 38.7437314 213.22467 38.6995739 213.964758 38.4787868 214.969163 38.1696847 214.889868 38.1343588 214.889868 38.9026981 214.889868 39.644543 214.933921 39.5738911 214.229075 39.8388357 213.647577 40.0507914 212.361233 40.2185896 211.894273 40.1391062zM45.9559471 39.7858468C45.8854626 39.609217 45.8854626 18.970033 45.9559471 18.7845718 46 18.660931 46.2114537 18.643268 47.4096916 18.643268 48.1762115 18.643268 48.8193833 18.6520995 48.8281938 18.6697625 48.845815 18.678594 48.8722467 20.8952971 48.8986784 23.5889005L48.9427313 28.4903755 53.0396476 28.5345329 57.1365639 28.5786904 57.1629956 29.7267836C57.1718062 30.3626507 57.1629956 30.9631917 57.1365639 31.0780011L57.092511 31.2722938 53.0484581 31.2722938C49.4449339 31.2722938 48.9955947 31.2899567 48.9515419 31.4135976 48.9251101 31.4930809 48.8986784 32.7736465 48.8986784 34.2661677 48.8986784 36.2532522 48.9251101 37.0039285 49.0044053 37.0834119 49.0837004 37.1628953 50.123348 37.1893897 53.1453744 37.1893897L57.1894273 37.1893897 57.1629956 38.5406072 57.1365639 39.8829931 51.5770925 39.9094876C46.5550661 39.9271506 46.0088106 39.9183191 45.9559471 39.7858468z"/>
    <path fill-rule="nonzero" d="M95.1101322,39.6887004 C95.0837004,39.5650596 95.0572687,37.9224031 95.0660793,36.050128 C95.0748899,34.1778528 95.0748899,32.5881853 95.0748899,32.5351963 C95.0660793,32.3850611 94.7929515,32.3938926 94.2378855,32.5440278 C93.3039648,32.8089724 92.9251101,32.8619613 92.1321586,32.8619613 C90.9251101,32.8619613 89.938326,32.6323427 88.8105727,32.093622 C86.1321586,30.804225 84.7665198,27.7750251 85.339207,24.3749028 C85.5154185,23.3062929 85.6828194,22.7852352 86.061674,22.0433904 C86.1585903,21.8490977 86.30837,21.5576586 86.3964758,21.4075233 C86.6519824,20.8952971 87.9295154,19.7736983 88.6431718,19.4204389 C90.0881057,18.7139199 90.7753304,18.6256051 94.6255507,18.660931 L97.753304,18.6874255 L97.753304,29.2852093 L97.753304,39.8829931 L96.4669604,39.9094876 L95.1718062,39.935982 L95.1101322,39.6887004 Z M94.0969163,30.2036839 C94.9779736,29.9034134 95.0660793,29.841593 95.0660793,29.5589854 C95.0748899,29.4088501 95.0660793,27.4394286 95.0660793,25.1785681 C95.0572687,22.0698848 95.030837,21.0630954 94.9515419,21.0101064 C94.8898678,20.9747805 94.1145374,20.9394545 93.2246696,20.9394545 C91.5330396,20.9394545 90.907489,21.0277694 90.0528634,21.3986918 C89.6299559,21.5753216 88.7400881,22.4319758 88.5550661,22.8382241 C88.4933921,22.9883594 88.4052863,23.1649891 88.3700441,23.2444725 C88.0088106,23.9598229 87.9030837,25.9469074 88.1585903,26.9625283 C88.6255507,28.7994775 89.9118943,30.0623801 91.5859031,30.3273247 C92.0352423,30.4068081 93.7709251,30.3184932 94.0969163,30.2036839 Z"/>
    <path d="M144.317181,39.7946783 C144.317181,39.7240264 144.361233,39.5562281 144.414097,39.4237558 C144.475771,39.2912835 144.572687,39.0351704 144.643172,38.8673722 C144.713656,38.6995739 144.801762,38.4787868 144.845815,38.3816404 C144.881057,38.2844941 145.022026,37.9312346 145.154185,37.5868066 C145.286344,37.2512101 145.427313,36.8891192 145.471366,36.7919728 C145.515419,36.6948265 145.665198,36.2974096 145.814978,35.9088242 C145.964758,35.5202388 146.132159,35.1051589 146.185022,34.9815181 C146.343612,34.6105957 146.414097,34.4339659 146.696035,33.7009526 C146.845815,33.3123672 147.004405,32.9149503 147.039648,32.8178039 C147.0837,32.7206576 147.171806,32.4998704 147.22467,32.3320722 C147.330396,32.0582961 147.444934,31.749194 147.665198,31.2281363 C147.709251,31.13099 147.867841,30.7335731 148.017621,30.3449877 C148.176211,29.9564023 148.334802,29.5413224 148.387665,29.4176816 C148.440529,29.2940408 148.511013,29.1174111 148.555066,29.0202647 C148.599119,28.9231184 148.748899,28.5257015 148.898678,28.1371161 C149.048458,27.7485306 149.207048,27.3511138 149.242291,27.2539674 C149.286344,27.1568211 149.427313,26.8035616 149.559471,26.4591336 C149.788546,25.885087 149.938326,25.4965016 150.132159,25.0460958 C150.167401,24.9489494 150.30837,24.59569 150.440529,24.251262 C150.572687,23.9156655 150.740088,23.4917541 150.810573,23.3239559 C151.030837,22.7764037 151.07489,22.6704259 151.23348,22.2641775 C151.497797,21.5841531 151.524229,21.5223327 151.674009,21.1602417 C151.876652,20.6656785 151.938326,20.5067117 152.114537,20.0563059 C152.202643,19.8355187 152.299559,19.5794056 152.334802,19.4822593 C152.378855,19.3851129 152.475771,19.1201683 152.572687,18.8905497 C152.704846,18.5284587 152.76652,18.4666383 152.977974,18.4666383 C153.110132,18.4666383 153.215859,18.5019643 153.215859,18.5549532 C153.215859,18.5991106 153.312775,18.8463922 153.427313,19.1025053 C153.621145,19.5440797 153.753304,19.8620132 154.325991,21.3545344 C154.537445,21.9020866 154.696035,22.2818405 154.889868,22.7499093 C154.92511,22.8470556 155.066079,23.2091466 155.198238,23.5447431 C155.330396,23.889171 155.488987,24.2865879 155.550661,24.4278917 C155.674009,24.7193308 155.753304,24.922455 155.991189,25.5318275 C156.255507,26.211852 156.281938,26.2736724 156.431718,26.6357633 C156.511013,26.830056 156.60793,27.0685062 156.651982,27.1656525 C156.687225,27.2627989 156.828194,27.6248898 156.960352,27.9604863 C157.092511,28.3049143 157.259912,28.7199942 157.330396,28.8877924 C157.550661,29.4353446 157.594714,29.5413224 157.753304,29.9475708 C157.84141,30.168358 157.938326,30.4244711 157.973568,30.5216174 C158.017621,30.6187638 158.211454,31.113327 158.414097,31.6255532 C158.60793,32.1377794 158.810573,32.6323427 158.854626,32.729489 C158.889868,32.8266354 159.030837,33.1887263 159.162996,33.5243228 C159.295154,33.8687508 159.453744,34.2661677 159.506608,34.4074715 C159.762115,35.0080126 160.035242,35.7057 160.123348,35.9794761 C160.167401,36.1119484 160.202643,36.1207799 160.352423,36.0412965 C160.449339,35.9883076 160.528634,35.9088242 160.528634,35.8558353 C160.528634,35.8028464 160.581498,35.6350481 160.651982,35.4849128 C160.713656,35.3259461 160.819383,35.0610015 160.881057,34.8932032 C160.942731,34.725405 161.048458,34.4692919 161.101322,34.3191566 C161.162996,34.1778528 161.38326,33.6391322 161.585903,33.1269059 C161.788546,32.6146797 161.991189,32.1201165 162.026432,32.0229701 C162.061674,31.9258238 162.202643,31.5725643 162.334802,31.2281363 C162.46696,30.8925398 162.60793,30.5304489 162.651982,30.4333025 C162.713656,30.2831673 163.0837,29.3381982 163.348018,28.6670052 C163.38326,28.5698589 163.453744,28.3932292 163.506608,28.2695884 C163.559471,28.1459475 163.726872,27.7308677 163.876652,27.3422823 C164.035242,26.9536969 164.185022,26.55628 164.229075,26.4591336 C164.273128,26.3619873 164.46696,25.867424 164.669604,25.3551978 C164.863436,24.8429716 165.066079,24.3484083 165.110132,24.251262 C165.145374,24.1541156 165.286344,23.8008562 165.418502,23.4564282 C165.550661,23.1208317 165.718062,22.6969204 165.788546,22.5291221 C166.008811,21.9815699 166.052863,21.8755921 166.211454,21.4693437 C166.475771,20.7893193 166.502203,20.7274989 166.651982,20.3654079 C166.854626,19.8708447 166.9163,19.7118779 167.092511,19.2614721 C167.356828,18.5814476 167.427313,18.4666383 167.585903,18.4666383 C167.779736,18.4666383 167.955947,18.7227514 168.140969,19.2791351 C168.211454,19.5087537 168.352423,19.8620132 168.449339,20.0739689 C168.537445,20.2859245 168.722467,20.7363303 168.854626,21.0719268 C168.986784,21.4163548 169.154185,21.8314347 169.22467,21.9992329 C169.444934,22.5467851 169.488987,22.6527629 169.647577,23.0590113 C169.735683,23.2797985 169.832599,23.5359116 169.867841,23.6330579 C170,23.9686544 170.678414,25.6642998 170.748899,25.8409296 C170.792952,25.9380759 170.986784,26.4326392 171.189427,26.9448654 C171.38326,27.4570916 171.585903,27.9516548 171.629956,28.0488012 C171.665198,28.1459475 171.806167,28.5080385 171.938326,28.843635 C172.167401,29.4176816 172.317181,29.806267 172.511013,30.2566728 C172.546256,30.3538192 172.687225,30.7159101 172.819383,31.0515066 C172.951542,31.3959346 173.092511,31.749194 173.136564,31.8463404 C173.171806,31.9434867 173.330396,32.3409036 173.480176,32.729489 C173.638767,33.1180745 173.788546,33.5154913 173.832599,33.6126377 C173.911894,33.8157619 174.60793,35.5467332 174.713656,35.8205093 C174.748899,35.9176557 174.845815,36.1737688 174.933921,36.394556 C175.092511,36.8096358 175.198238,37.0569174 175.374449,37.4984918 C175.506608,37.8164253 175.612335,38.0637069 175.814978,38.6024276 C175.894273,38.8232147 176,39.0616649 176.035242,39.1411483 C176.079295,39.2206316 176.140969,39.4325873 176.176211,39.609217 L176.229075,39.935982 L175.471366,39.9094876 C174.572687,39.8829931 174.669604,39.971308 174.140969,38.6024276 C174.052863,38.3816404 173.955947,38.1255273 173.920705,38.028381 C173.876652,37.9312346 173.726872,37.5338177 173.568282,37.1452323 C173.418502,36.7566469 173.259912,36.3503985 173.207048,36.2444207 C173.110132,36.0059705 173.07489,35.9176557 172.599119,34.7165735 C172.396476,34.2043473 172.193833,33.709784 172.15859,33.6126377 C172.123348,33.5154913 171.920705,33.0209281 171.718062,32.5087019 C171.515419,31.9964757 171.312775,31.5019124 171.277533,31.4047661 C171.23348,31.3076197 171.030837,30.8130565 170.837004,30.3008303 C170.634361,29.788604 170.440529,29.2940408 170.396476,29.1968944 C170.352423,29.0997481 170.14978,28.6051848 169.955947,28.0929586 C169.753304,27.5807324 169.559471,27.0861692 169.515419,26.9890228 C169.480176,26.8918765 169.374449,26.6357633 169.295154,26.4149762 C169.207048,26.194189 169.0837,25.8762555 169.013216,25.7084573 C168.942731,25.540659 168.854626,25.3198719 168.810573,25.2227255 C168.77533,25.1255792 168.634361,24.7723197 168.502203,24.4278917 C168.281938,23.8715081 168.14978,23.5447431 167.929515,23.0148539 C167.894273,22.9177075 167.832599,22.7675722 167.806167,22.6792574 C167.700441,22.3436609 167.506608,22.5556166 167.180617,23.3681133 C167.101322,23.562406 166.995595,23.8096877 166.951542,23.924497 C166.907489,24.0304748 166.828194,24.2247675 166.77533,24.3660713 C166.722467,24.4985436 166.625551,24.7281623 166.563877,24.869466 C166.502203,25.0196013 166.343612,25.4170182 166.211454,25.7526147 C166.079295,26.0970427 165.911894,26.5121225 165.84141,26.6799208 C165.638767,27.1833155 165.585903,27.3069563 165.330396,27.9604863 C165.198238,28.3049143 164.995595,28.7906461 164.881057,29.0467592 C164.76652,29.3028723 164.669604,29.5501539 164.669604,29.5943113 C164.669604,29.6473002 164.634361,29.7532781 164.590308,29.841593 C164.546256,29.9210763 164.343612,30.4068081 164.140969,30.9190343 C163.938326,31.4312605 163.735683,31.9169923 163.69163,31.9964757 C163.647577,32.0847905 163.612335,32.1907684 163.612335,32.2437573 C163.612335,32.2879147 163.515419,32.5351963 163.400881,32.7913095 C163.286344,33.0474226 163.127753,33.436008 163.039648,33.6567951 C162.872247,34.0807065 162.77533,34.3368196 162.599119,34.7607309 C162.475771,35.0610015 162.378855,35.2817886 162.15859,35.8646668 C161.920705,36.4828708 161.814978,36.7389839 161.418502,37.6397955 C161.321586,37.8694142 161.154185,38.2844941 161.048458,38.5671016 C160.951542,38.8585407 160.819383,39.2118002 160.757709,39.3619354 C160.440529,40.2097581 160.140969,40.1126118 159.700441,38.9998445 C159.559471,38.664248 159.39207,38.2403366 159.321586,38.0725384 C159.110132,37.5603122 159.066079,37.4543343 158.590308,36.2620837 C158.334802,35.6350481 158.070485,34.9726866 158,34.8048884 C157.665198,33.9923916 157.612335,33.8599193 157.268722,32.9944336 C157.118943,32.6058482 156.960352,32.2084313 156.9163,32.111285 C156.581498,31.3076197 156.45815,30.9985177 156.167401,30.2566728 C156.035242,29.9210763 155.867841,29.497165 155.797357,29.3293667 C155.726872,29.1615685 155.629956,28.9319498 155.585903,28.825972 C155.54185,28.7111627 155.471366,28.5345329 155.418502,28.4285551 C155.374449,28.3137458 155.215859,27.9074974 155.066079,27.518912 C154.9163,27.1303266 154.713656,26.6445948 154.625551,26.4414706 C154.528634,26.229515 154.449339,26.0352223 154.449339,26.0087278 C154.449339,25.9822333 154.387665,25.8144351 154.30837,25.6378054 C154.14978,25.2757144 154.176211,25.3287033 153.656388,24.0304748 C153.189427,22.8558871 153.004405,22.4849647 152.9163,22.5026277 C152.872247,22.5114591 152.722467,22.8117297 152.572687,23.1649891 C152.431718,23.5182486 152.220264,24.0216433 152.105727,24.2777564 C151.991189,24.5338696 151.894273,24.7811512 151.894273,24.8253086 C151.894273,24.8782975 151.859031,24.9842754 151.814978,25.0725902 C151.770925,25.1520736 151.665198,25.3993552 151.585903,25.6201424 C151.497797,25.8409296 151.339207,26.229515 151.22467,26.4856281 C151.110132,26.7417412 151.013216,26.9890228 151.013216,27.0331802 C151.013216,27.0861692 150.977974,27.192147 150.933921,27.2804619 C150.889868,27.3599452 150.784141,27.6072269 150.704846,27.828014 C150.61674,28.0488012 150.502203,28.3490717 150.440529,28.4903755 C150.378855,28.6405108 150.281938,28.8966239 150.220264,29.0644221 C150.15859,29.2322204 150.017621,29.5854798 149.903084,29.841593 C149.788546,30.0977061 149.69163,30.3449877 149.69163,30.3891451 C149.69163,30.442134 149.656388,30.5481119 149.603524,30.6364267 C149.559471,30.7159101 149.356828,31.2016419 149.162996,31.7138681 C148.960352,32.2260943 148.76652,32.7206576 148.722467,32.8178039 C148.678414,32.9149503 148.475771,33.4095135 148.281938,33.9217397 C148.079295,34.4339659 147.885463,34.9285292 147.84141,35.0256755 C147.797357,35.1228219 147.594714,35.6173851 147.400881,36.1296114 C147.198238,36.6418376 147.004405,37.1364008 146.960352,37.2335472 C146.9163,37.3306935 146.713656,37.8252568 146.511013,38.337483 C146.317181,38.8497092 146.088106,39.4149243 146.008811,39.6003856 L145.867841,39.9271506 L145.092511,39.9271506 C144.475771,39.9271506 144.317181,39.9006561 144.317181,39.7946783 Z"/>
    <path fill-rule="nonzero" d="M248.722467,36.014802 C248.722467,33.0209281 248.696035,32.0671276 248.61674,31.9523182 C248.511013,31.8198459 248.46696,31.8286774 248.105727,32.0053071 C247.656388,32.2260943 246.519824,32.6146797 245.876652,32.764815 C244.986784,32.9767707 243.444934,32.8796243 242.370044,32.5440278 C242.140969,32.4733759 241.894273,32.420387 241.814978,32.420387 C241.735683,32.420387 241.674009,32.3850611 241.674009,32.3320722 C241.674009,32.2879147 241.612335,32.2437573 241.54185,32.2437573 C241.462555,32.2437573 241.251101,32.1466109 241.057269,32.0229701 C240.863436,31.8993293 240.687225,31.802183 240.651982,31.802183 C240.625551,31.802183 240.343612,31.5990588 240.035242,31.3606086 C238.334802,30.0005597 237.348018,27.6690473 237.471366,25.3110404 C237.488987,24.8253086 237.559471,24.251262 237.621145,24.0304748 C237.876652,23.0590113 237.929515,22.9000445 238.15859,22.4408072 C238.678414,21.3810289 238.889868,21.0719268 239.585903,20.3742394 C240.325991,19.6500575 241.07489,19.1819887 242.246696,18.7315829 C243.154185,18.3783234 244.969163,18.2723456 245.982379,18.5196272 C246.713656,18.6874255 246.969163,18.8022348 248.176211,19.4381018 C248.387665,19.5440797 248.581498,19.6147316 248.60793,19.5794056 C248.634361,19.5529112 248.678414,19.332124 248.704846,19.0848424 L248.748899,18.6344366 L249.374449,18.660931 L250,18.6874255 L250,29.2852093 L250,39.8829931 L249.365639,39.9094876 L248.722467,39.935982 L248.722467,36.014802 Z M245.797357,31.3164512 C246.167401,31.2369678 246.555066,31.1398215 246.651982,31.1044955 C246.748899,31.0603381 247.004405,30.9543603 247.22467,30.8660454 C247.69163,30.6805842 248.45815,30.2125154 248.61674,30.0182227 C248.704846,29.9122448 248.722467,28.9584443 248.704846,25.5318275 L248.678414,21.1867362 L248.414097,20.9747805 C248.070485,20.6921729 247.215859,20.2770931 246.519824,20.0474744 C246.052863,19.8973391 245.744493,19.8620132 244.819383,19.8708447 C244.202643,19.8708447 243.612335,19.9150021 243.524229,19.967991 C243.436123,20.0121485 243.295154,20.0563059 243.215859,20.0563059 C243.057269,20.0563059 242.740088,20.1799467 241.938326,20.5773636 C241.22467,20.9129601 240.132159,22.0522218 239.709251,22.8735501 C239.53304,23.2268095 239.38326,23.5889005 239.38326,23.6683839 C239.38326,23.7478673 239.348018,23.8538451 239.303965,23.8980025 C239.251101,23.9509914 239.162996,24.3749028 239.092511,24.8518031 C238.819383,26.6357633 239.356828,28.481544 240.502203,29.7356151 C240.819383,30.0888746 241.762115,30.7777305 242.079295,30.8925398 C242.220264,30.9455288 242.414097,31.0250121 242.511013,31.0603381 C243.444934,31.4312605 244.722467,31.5284069 245.797357,31.3164512 Z"/>
    <path d="M177.682819 39.7858468C177.647577 39.7505208 177.621145 39.1941372 177.621145 38.5406072L177.621145 37.3660195 178.325991 37.3660195 179.039648 37.3660195 179.013216 38.5847646 178.986784 39.7946783 178.370044 39.8211727C178.026432 39.8300042 177.718062 39.8211727 177.682819 39.7858468zM36.7929515 39.5120707C36.2995595 39.3795984 36.1321586 38.5847646 36.5198238 38.2050107 36.6696035 38.0460439 36.8281938 37.9842235 37.0748899 37.9842235 37.5418502 37.9842235 37.7973568 38.2050107 37.8590308 38.6554165 37.8942731 38.9468556 37.8678414 39.0528334 37.7004405 39.2471261 37.4889868 39.4855762 37.1013216 39.6003856 36.7929515 39.5120707zM14.5374449 39.0528334C14.5374449 38.8055518 14.5638767 38.7878888 14.9603524 38.7260684 15.5859031 38.628922 15.8942731 38.4081349 16.1674009 37.8517512 16.3348018 37.5073233 16.3436123 37.2600416 16.3436123 28.8877924L16.3436123 20.2770931 16.1497797 19.9061706C15.938326 19.5175852 15.5682819 19.1731572 15.3480176 19.1731572 15.277533 19.1731572 15.0660793 19.1289998 14.8810573 19.0671794 14.6079295 18.987696 14.5374449 18.9258756 14.5374449 18.7580774L14.5374449 18.5549532 17.9559471 18.5461217C22.3700441 18.5284587 22.2995595 18.5284587 22.4052863 18.6344366 22.5814978 18.8110663 22.3788546 18.987696 21.8854626 19.0936739 21.3303965 19.2173147 20.9779736 19.4734278 20.7312775 19.9061706 20.5903084 20.1622837 20.5726872 20.5508691 20.5462555 24.1894416 20.5286344 27.2892933 20.5462555 28.2254309 20.6255507 28.3314088 20.7577093 28.4903755 21.5859031 28.4285551 22.2026432 28.2077679 23.0044053 27.9163289 23.8678414 27.1126636 24.1409692 26.3973132 24.1938326 26.2383465 24.2819383 26.0263908 24.3171806 25.9292444 24.4229075 25.6819628 24.5814978 24.7634882 24.6079295 24.2954194 24.6255507 23.9156655 24.6343612 23.8980025 24.8898678 23.8980025L25.154185 23.8980025 25.154185 28.8877924 25.154185 33.8775823 24.8898678 33.8775823C24.6431718 33.8775823 24.6255507 33.8510878 24.6079295 33.5243228 24.4933921 31.6873736 23.8237885 30.4862915 22.6343612 29.9740653 22.185022 29.7797725 21.2422907 29.5854798 20.907489 29.6119743L20.5726872 29.6384688 20.5462555 33.7716045C20.5374449 36.5181968 20.5550661 37.9577291 20.6167401 38.0725384 20.7048458 38.2315051 20.8105727 38.2491681 21.8678414 38.2491681 23.0484581 38.2491681 23.814978 38.1608533 24.6696035 37.9312346 25.2863436 37.7634364 25.5154185 37.6574585 25.9471366 37.321862 26.8193833 36.6595005 27.2422907 35.8381723 27.5770925 34.1690213 27.6740088 33.6832896 27.69163 33.6567951 27.938326 33.6567951L28.1938326 33.6567951 28.1762115 36.4652078 28.1497797 39.2647891 21.3480176 39.2912835 14.5374449 39.3089465 14.5374449 39.0528334zM1.59471366 37.7104474C1.47136564 37.339525 1.47136564 37.0215915 1.62995595 35.6438796 1.8061674 34.0453805 1.99118943 33.4448395 2.44933921 32.9944336 2.88986784 32.5440278 3.65638767 32.8266354 4.62555066 33.7804359 5.40088106 34.5576068 5.68281938 34.8843718 6.14096916 35.5555647 6.59030837 36.2002632 6.64317181 36.4298819 6.36123348 36.4652078 6.22026432 36.4917023 6.07048458 36.394556 5.83259912 36.1119484 5.21585903 35.396598 4.44933921 34.6547531 4.07929515 34.416303 3.67400881 34.1425269 3.18061674 34.0807065 2.95154185 34.2749992 2.61674009 34.5487753 2.34361233 35.4672499 2.20264317 36.7478154 2.14977974 37.2600416 2.07048458 37.7369419 2.03524229 37.8075938 1.9030837 38.0548754 1.70044053 38.0018865 1.59471366 37.7104474z"/>
    <path d="M3.48898678 37.4896603C3.3215859 37.321862 3.25991189 37.1628953 3.25991189 36.9332766 3.26872247 36.050128 4.37004405 35.8205093 4.80176211 36.6153431 4.9339207 36.8714562 4.94273128 36.9597711 4.84581498 37.1805583 4.61674009 37.7457734 3.91189427 37.9047401 3.48898678 37.4896603zM37.6563877 37.357188C37.4977974 37.2688731 37.3744493 37.0834119 37.1101322 36.4828708 36.8986784 36.0059705 36.7400881 34.7518995 36.7400881 33.5596488L36.7400881 32.3320722 36.9603524 32.3320722C37.215859 32.3320722 37.2246696 32.3762296 37.3480176 33.5243228 37.4977974 34.9108662 37.7004405 35.5908907 38.061674 35.9529816 38.2819383 36.1737688 38.5022026 36.1737688 39.0044053 35.9441501 39.3656388 35.7763519 40.5726872 34.6812476 40.8898678 34.2220103 41.0660793 33.9658972 41.4096916 33.7539415 41.5506608 33.8069304 41.8678414 33.9305712 41.6035242 34.39864 40.4317181 35.7675204 39.2334802 37.1805583 38.3436123 37.683953 37.6563877 37.357188z"/>
    <path d="M38.7929515,34.054212 C38.6872247,33.9835601 38.5374449,33.7980989 38.4669604,33.6391322 C38.2026432,33.1269059 38.6343612,32.5087019 39.2511013,32.5087019 C39.5947137,32.5087019 40,32.9502762 40,33.3211986 C39.9911894,33.9570657 39.277533,34.3898085 38.7929515,34.054212 Z"/>
    <path fill-rule="nonzero" d="M63.7885463,32.7559835 C61.4361233,32.2702517 59.5418502,30.9278658 58.6519824,29.1085796 C57.9911894,27.7661936 57.8678414,27.2186415 57.8678414,25.7084573 C57.876652,24.2777564 58.0440529,23.4652597 58.5814978,22.3524924 C58.907489,21.6636364 59.2599119,21.1425787 59.7797357,20.5950266 C60.246696,20.0916318 61.3568282,19.2614721 61.5594714,19.2614721 C61.6211454,19.2614721 61.6740088,19.2261462 61.6740088,19.1731572 C61.6740088,19.1289998 61.7268722,19.0848424 61.7973568,19.0848424 C61.8590308,19.0848424 62.0352423,19.023022 62.1674009,18.9523701 C62.30837,18.8817182 62.4933921,18.8198978 62.5726872,18.8198978 C62.6519824,18.8198978 62.7400881,18.7845718 62.7665198,18.7404144 C62.7929515,18.7050885 62.9867841,18.643268 63.1894273,18.6167736 C63.4008811,18.5814476 63.7444934,18.5196272 63.9647577,18.4754698 C64.4669604,18.3606605 65.9030837,18.3606605 66.4757709,18.4754698 C66.722467,18.5196272 67.0837004,18.5814476 67.2951542,18.6079421 C67.4977974,18.643268 67.69163,18.7050885 67.7180617,18.7404144 C67.7444934,18.7845718 67.8237885,18.8198978 67.9030837,18.8198978 C67.9735683,18.8198978 68.1762115,18.8817182 68.3524229,18.9612016 C68.5374449,19.0406849 68.7753304,19.1466628 68.8986784,19.1996517 C69.4008811,19.4204389 70.2995595,20.0739689 70.7577093,20.5597006 C71.5330396,21.3633659 71.9911894,22.1758627 72.3964758,23.4122708 C72.6167401,24.1099582 72.6343612,24.2777564 72.6431718,25.6642998 C72.6431718,27.1656525 72.5903084,27.5277435 72.2202643,28.4462181 C71.5154185,30.2125154 70.123348,31.5813958 68.2819383,32.3144092 C68.0176211,32.420387 67.1806167,32.6323427 66.5374449,32.764815 C65.9823789,32.8796243 64.3524229,32.8707928 63.7885463,32.7559835 Z M66.5550661,30.2125154 C66.5991189,30.168358 66.7136564,30.1242005 66.8017621,30.1242005 C66.8986784,30.1242005 67.215859,30.0005597 67.5154185,29.841593 C68.4317181,29.3646927 69.2246696,28.4285551 69.7004405,27.2539674 C69.7797357,27.0508432 69.938326,26.1323686 69.938326,25.7967721 C69.9471366,25.3816923 69.753304,24.0216433 69.6828194,23.9774859 C69.6387665,23.9509914 69.6035242,23.8626766 69.6035242,23.7831932 C69.6035242,23.4829227 69.1013216,22.6615944 68.6167401,22.1758627 C67.8414097,21.3898604 66.8546256,20.9747805 65.6211454,20.8864656 C64.061674,20.7804878 62.969163,21.1514102 62,22.1052108 C61.4449339,22.6527629 61.154185,23.1384947 60.8105727,24.1187897 C60.6343612,24.6310159 60.5991189,26.9625283 60.7753304,27.1391581 C60.8281938,27.192147 60.8810573,27.3069563 60.8810573,27.3776082 C60.8810573,27.6690473 61.3656388,28.4638811 61.876652,29.0026017 C62.5638767,29.7267836 63.3832599,30.1860209 64.2731278,30.3361562 C64.7048458,30.3979766 66.4581498,30.3096617 66.5550661,30.2125154 Z"/>
    <path d="M81.1013216 32.7383205C80.1321586 32.3762296 79.0660793 31.3517771 78.246696 30.0093912 77.938326 29.5059965 77.8414097 29.6914577 77.8325991 30.8130565 77.8237885 31.3341142 77.814978 31.9434867 77.8061674 32.1819369L77.7973568 32.6058482 76.4581498 32.5793538 75.1101322 32.5528593 75.0837004 25.7967721C75.0748899 22.0787163 75.0837004 18.9523701 75.1101322 18.8375607 75.154185 18.643268 75.1718062 18.6344366 76.4581498 18.660931L77.753304 18.6874255 77.8061674 22.8823816C77.8502203 26.8388875 77.8678414 27.1038321 78.0352423 27.5277435 78.4493392 28.5698589 78.8105727 29.0997481 79.4713656 29.6384688 80 30.0623801 81.0220264 30.3538192 81.4889868 30.2125154 82.123348 30.0182227 82.5198238 29.8150985 83.1013216 29.4000186 83.4273128 29.1704 83.7356828 28.9761073 83.7709251 28.9761073 83.8590308 28.9761073 84.9339207 30.6982471 84.9339207 30.8395509 84.9339207 30.8837084 84.969163 30.9190343 85.0132159 30.9190343 85.0572687 30.9190343 85.1101322 31.0073492 85.1365639 31.1044955 85.1718062 31.2369678 85.1101322 31.3694401 84.907489 31.5549013 84.3964758 32.0406331 83.8061674 32.3673981 82.7488987 32.782478 82.4757709 32.8884558 81.4273128 32.8619613 81.1013216 32.7383205zM103.682819 32.8178039C103.656388 32.7913095 103.444934 32.729489 103.207048 32.6853316 101.832599 32.43805 100.696035 31.5107439 100.317181 30.3273247 100.070485 29.5236594 100.140969 28.3049143 100.475771 27.6337213 100.907489 26.7682356 102.114537 25.7172887 103.603524 24.8959605 104.422907 24.4455547 105.638767 23.6948783 105.788546 23.5359116 105.859031 23.4652597 105.955947 23.4122708 106 23.4122708 106.044053 23.4122708 106.193833 23.2444725 106.343612 23.0413483 106.845815 22.3524924 106.599119 21.5046697 105.797357 21.1337472 104.872247 20.7098359 104.519824 20.6656785 103.638767 20.8952971 103.171806 21.0189379 102.951542 21.0895898 102.422907 21.292714 101.920705 21.4781752 100.572687 22.1935256 100.405286 22.3613239 100.352423 22.4054813 100.246696 22.4408072 100.15859 22.4408072 100.008811 22.4408072 100 22.3436609 100.017621 21.0542639L100.044053 19.658889 100.572687 19.3939444C101.832599 18.7580774 102.951542 18.4666383 104.378855 18.4048179 106.052863 18.3253345 107.348018 18.7492459 108.273128 19.6853835 109.057269 20.4890487 109.339207 21.2132306 109.339207 22.4319758 109.339207 23.1384947 109.303965 23.3062929 109.101322 23.7390358 108.960352 24.0128118 108.660793 24.4455547 108.414097 24.6928363 107.832599 25.2757144 106.290749 26.4414706 105.726872 26.7152467 105.198238 26.9713598 103.938326 27.8545085 103.462555 28.3049143 103.013216 28.7199942 102.995595 28.7641516 102.995595 29.1880629 102.995595 29.479502 103.057269 29.7002892 103.154185 29.82393 103.444934 30.1860209 104.15859 30.47746 104.792952 30.47746 105.189427 30.47746 105.374449 30.442134 106.299559 30.1948524 106.651982 30.0977061 107.674009 29.6208058 108.30837 29.2587148 108.493392 29.152737 108.660793 29.0644221 108.678414 29.0644221 108.704846 29.0644221 108.722467 29.6737947 108.722467 30.4156396L108.713656 31.7580255 108.167401 32.0141386C107.303965 32.4115555 107.039648 32.4998704 105.876652 32.764815 105.453744 32.8619613 103.770925 32.8972873 103.682819 32.8178039z"/>
    <path fill-rule="nonzero" d="M124.493392,32.7559835 C121.982379,32.075959 120.484581,30.9102028 119.53304,28.8877924 C118.977974,27.6955417 118.907489,27.3422823 118.907489,25.6201424 C118.907489,23.906834 118.977974,23.5535745 119.53304,22.3524924 C120.704846,19.8443502 123.295154,18.2635141 126.017621,18.4048179 C126.881057,18.4401439 127.621145,18.5726162 127.947137,18.7404144 C128.035242,18.7845718 128.14978,18.8198978 128.211454,18.8198978 C128.528634,18.8198978 129.84141,19.6147316 130.449339,20.1711152 C131.07489,20.7539933 132.070485,22.0963793 132.070485,22.3701554 C132.070485,22.4408072 132.105727,22.5291221 132.140969,22.582111 C132.246696,22.6969204 132.46696,23.3592818 132.60793,23.9863174 C132.76652,24.6663419 132.76652,26.4679651 132.60793,27.20981 C132.475771,27.845677 132.255507,28.5345329 132.140969,28.6581738 C132.105727,28.7111627 132.070485,28.7994775 132.070485,28.8612979 C132.070485,29.1174111 131.295154,30.2036839 130.669604,30.8307194 C129.603524,31.8993293 128.678414,32.3850611 127.022026,32.764815 C126.519824,32.8796243 124.92511,32.8796243 124.493392,32.7559835 Z M126.76652,31.3076197 C127.356828,31.1663159 127.53304,31.1044955 128.105727,30.8483824 C128.46696,30.6894157 129.69163,29.7974355 129.69163,29.7002892 C129.69163,29.6649632 129.779736,29.5413224 129.894273,29.4176816 C130.281938,28.9761073 130.546256,28.4903755 130.933921,27.4924175 C130.977974,27.3864397 131.07489,26.9095394 131.145374,26.4326392 C131.268722,25.6466369 131.268722,25.4876701 131.145374,24.7811512 C130.986784,23.8715081 130.898678,23.5535745 130.581498,22.8823816 C130.370044,22.4143128 129.488987,21.2043991 129.356828,21.2043991 C129.321586,21.2043991 129.145374,21.0719268 128.969163,20.9129601 C128.792952,20.7628248 128.511013,20.5685321 128.352423,20.4890487 C127.788546,20.2064412 127.418502,20.0563059 127.268722,20.0563059 C127.189427,20.0563059 127.048458,20.0121485 126.951542,19.967991 C126.669604,19.8090243 125.039648,19.8443502 124.45815,20.0121485 C122.933921,20.4625543 121.665198,21.5223327 120.986784,22.9000445 C120.784141,23.3239559 120.61674,23.7213728 120.61674,23.8008562 C120.61674,23.8715081 120.555066,24.1806101 120.475771,24.4897121 C120.317181,25.0990847 120.343612,26.4414706 120.528634,27.0331802 C120.581498,27.2009785 120.669604,27.4835861 120.713656,27.6513843 C120.960352,28.4462181 121.38326,29.1262425 122.088106,29.841593 C122.484581,30.2390098 122.872247,30.5657748 122.942731,30.5657748 C123.022026,30.5657748 123.0837,30.5922693 123.0837,30.6364267 C123.0837,30.6894157 123.53304,30.9190343 124.008811,31.095664 C124.995595,31.4665865 125.823789,31.5284069 126.76652,31.3076197 Z"/>
    <path d="M187.092511 32.7559835C185.938326 32.4645444 185.171806 31.9346553 184.070485 30.6540897 183.920705 30.4862915 183.779736 30.3714821 183.744493 30.4068081 183.709251 30.442134 183.682819 30.9013713 183.69163 31.422429 183.700441 31.9434867 183.665198 32.4292185 183.629956 32.4910389 183.577093 32.5705223 183.365639 32.5970167 182.898678 32.5793538L182.246696 32.5528593 182.246696 25.6201424 182.246696 18.6874255 182.898678 18.660931C183.365639 18.643268 183.577093 18.6697625 183.621145 18.7492459 183.665198 18.8110663 183.700441 21.0277694 183.700441 23.6683839L183.700441 28.4638811 184.088106 29.0114332C184.61674 29.7532781 185.585903 30.6452582 186.167401 30.9455288 187.127753 31.422429 188.255507 31.5637328 189.207048 31.3164512 190.484581 30.9896862 191.23348 30.3008303 191.726872 29.0202647 191.973568 28.3755662 192.017621 27.7396992 192.061674 23.3239559L192.114537 18.6874255 192.819383 18.6874255 193.524229 18.6874255 193.524229 23.4122708C193.524229 28.0664642 193.488987 28.7818146 193.215859 29.461839 193.180617 29.5589854 193.07489 29.8150985 192.986784 30.0358857 192.819383 30.4686285 192.299559 31.2193048 191.911894 31.5902273 191.629956 31.8640034 190.863436 32.3673981 190.61674 32.4468815 189.427313 32.8089724 189.154185 32.8531299 188.325991 32.8442984 187.84141 32.8442984 187.286344 32.8001409 187.092511 32.7559835zM199.339207 32.764815C199.198238 32.7206576 198.933921 32.6411742 198.76652 32.5881853 197.629956 32.2349258 196.801762 31.5284069 196.290749 30.4862915 196.044053 29.9564023 196.017621 29.841593 196.017621 29.0467592 196.017621 28.2784198 196.044053 28.1194531 196.264317 27.6690473 196.784141 26.5827744 197.603524 26.0175593 200.132159 25.0019383 201.770925 24.3395769 202.387665 23.9598229 202.819383 23.3504504 203.101322 22.961865 203.118943 22.9000445 203.118943 22.1935256 203.118943 21.7872772 203.0837 21.4340178 203.039648 21.3986918 202.986784 21.3633659 202.889868 21.2220621 202.819383 21.0719268 202.634361 20.7186674 201.911894 20.1887782 201.374449 20.0121485 200.528634 19.7295409 198.933921 19.8355187 197.84141 20.2417671 197.339207 20.4272283 196.643172 20.7186674 196.370044 20.8599712 196.281938 20.9041286 196.132159 20.9394545 196.035242 20.9394545 195.876652 20.9394545 195.859031 20.8864656 195.859031 20.3477449 195.859031 20.0121485 195.894273 19.7030464 195.929515 19.6500575 196 19.5440797 197.453744 18.8198978 197.603524 18.8198978 197.665198 18.8198978 197.779736 18.7845718 197.867841 18.7404144 198.193833 18.5637847 199.312775 18.3783234 200.008811 18.3783234 201.647577 18.3783234 203.365639 19.2084832 204.035242 20.330082 204.872247 21.7166254 204.713656 23.562406 203.674009 24.6575104 203.101322 25.2668829 201.964758 25.8939185 200.528634 26.4149762 199.488987 26.7858986 198.370044 27.3687767 197.991189 27.7485306 197.744493 27.9869808 197.577093 28.2519254 197.488987 28.5521959 197.330396 29.1085796 197.321586 29.2852093 197.471366 29.6826262 197.682819 30.2478413 197.806167 30.4333025 198.229075 30.7777305 198.898678 31.3252827 199.365639 31.475418 200.440529 31.4665865 201.462555 31.4665865 201.682819 31.4047661 202.889868 30.804225 203.955947 30.2655043 203.964758 30.2655043 203.964758 30.1948524 203.964758 30.150695 204.008811 30.1242005 204.052863 30.1242005 204.114537 30.1242005 204.140969 30.4156396 204.123348 30.9278658L204.096916 31.7315311 203.700441 31.9523182C203.251101 32.2084313 202.185022 32.6146797 201.559471 32.764815 201.066079 32.8796243 199.709251 32.8796243 199.339207 32.764815z"/>
    <path fill-rule="nonzero" d="M217.929515,32.7559835 C216.863436,32.5087019 216.352423,32.3144092 215.594714,31.8816663 C215.180617,31.6432162 214.299559,30.9190343 214.070485,30.6364267 C213.947137,30.47746 213.779736,30.2655043 213.69163,30.168358 C213.515419,29.9828967 213.039648,29.2763778 213.039648,29.1968944 C213.039648,29.1792315 212.942731,28.9496128 212.828194,28.6934997 C211.779736,26.3531558 212,23.615395 213.409692,21.4428493 C214.193833,20.2329356 215.497797,19.2261462 216.828194,18.7934033 C217.832599,18.4666383 218.140969,18.4224809 219.295154,18.4224809 C220.528634,18.4224809 220.863436,18.4843013 221.982379,18.8817182 C223.84141,19.5617426 225.488987,21.3633659 226.008811,23.2797985 C226.088106,23.5712375 226.193833,23.9774859 226.246696,24.1717786 C226.387665,24.6928363 226.361233,26.4414706 226.211454,27.1656525 C225.700441,29.6208058 224.202643,31.4842494 222.070485,32.3320722 C221.973568,32.3673981 221.779736,32.4468815 221.647577,32.4998704 C220.837004,32.8266354 218.819383,32.9679392 217.929515,32.7559835 Z M220.352423,31.3076197 C221.189427,31.113327 221.480176,31.0073492 222.114537,30.6275953 C223.938326,29.5413224 225.057269,27.1303266 224.757709,24.8959605 C224.502203,22.9706964 223.647577,21.5664901 222.185022,20.639184 C221.911894,20.4625543 221.647577,20.3212505 221.603524,20.3212505 C221.550661,20.3212505 221.400881,20.2594301 221.268722,20.1887782 C221.127753,20.1181263 220.942731,20.0563059 220.854626,20.0563059 C220.76652,20.0563059 220.61674,20.0121485 220.519824,19.967991 C220.431718,19.9150021 219.885463,19.8708447 219.321586,19.8708447 C218.440529,19.8708447 218.176211,19.9061706 217.594714,20.0916318 C216.193833,20.5597006 215.013216,21.5753216 214.396476,22.8558871 C214,23.6860468 213.929515,23.94216 213.814978,24.9312864 C213.753304,25.4523442 213.753304,25.9292444 213.814978,26.3884817 C213.938326,27.3157878 214.008811,27.5807324 214.405286,28.4020606 C214.837004,29.3028723 215.885463,30.3891451 216.696035,30.7777305 C217.480176,31.148653 217.647577,31.2016419 218.546256,31.3959346 C218.951542,31.475418 219.814978,31.440092 220.352423,31.3076197 Z"/>
    <path d="M234.185022,32.6941631 C233.964758,32.6058482 233.612335,32.43805 233.400881,32.3232407 C232.889868,32.0582961 231.515419,30.6982471 230.933921,29.8857504 C230.678414,29.5324909 230.414097,29.2410519 230.343612,29.2410519 C230.246696,29.2410519 230.220264,29.5501539 230.202643,30.9013713 L230.176211,32.5528593 L229.488987,32.5793538 L228.810573,32.6058482 L228.828194,25.6466369 L228.854626,18.6874255 L229.462555,18.660931 C229.894273,18.643268 230.096916,18.6697625 230.140969,18.7492459 C230.185022,18.8110663 230.220264,20.7628248 230.220264,23.0766743 C230.220264,25.8144351 230.255507,27.3687767 230.317181,27.5277435 C230.46696,27.9339919 231.568282,29.4265131 232.167401,30.0270542 C233.101322,30.9720232 234.123348,31.5107439 234.828194,31.4312605 C235.444934,31.3606086 236.678414,30.6717527 237.0837,30.1771894 C237.400881,29.7974355 237.497797,29.8327615 237.876652,30.442134 C238.079295,30.7600676 238.237885,31.0868326 238.237885,31.1751474 C238.237885,31.5372384 236.9163,32.4468815 235.938326,32.764815 C235.488987,32.9061188 234.651982,32.8707928 234.185022,32.6941631 Z"/>
    <polygon points="177.639 25.647 177.665 18.687 178.326 18.687 178.987 18.687 179.013 25.647 179.031 32.597 178.326 32.597 177.621 32.597"/>
    <path d="M2.2907489 32.0494646C1.76211454 31.8551719 1.60352423 31.2104734 1.97356828 30.768899 2.44052863 30.2213469 3.39207048 30.6011008 3.37444934 31.3252827 3.35682819 31.8551719 2.79295154 32.2349258 2.2907489 32.0494646zM38.907489 31.6078903C38.7048458 31.4489235 37.8854626 30.3096617 37.8854626 30.168358 37.8854626 30.150695 37.7885463 29.9210763 37.6740088 29.6649632 37.2422907 28.6846682 37.0484581 28.1459475 36.9603524 27.6337213 36.907489 27.3687767 36.9251101 27.2892933 37.0396476 27.2451359 37.1982379 27.1833155 37.5330396 27.4305971 37.5330396 27.6072269 37.5330396 27.7485306 37.7885463 28.3049143 38.3524229 29.3646927 38.4493392 29.5501539 38.6784141 29.8592559 38.8546256 30.0447171 39.1189427 30.3273247 39.2422907 30.3891451 39.5154185 30.3891451 39.7973568 30.3891451 39.9030837 30.3273247 40.185022 30.0270542 40.4933921 29.6914577 41.4096916 28.0399697 41.4096916 27.8191825 41.4096916 27.6513843 41.7709251 27.20981 41.9030837 27.20981 41.9735683 27.20981 42.0528634 27.2716304 42.0792952 27.3334508 42.1321586 27.4659231 41.8414097 28.5257015 41.6299559 29.0202647 41.5594714 29.1704 41.4096916 29.514828 41.2863436 29.7974355 41.1629956 30.0800431 41.0572687 30.3273247 41.0572687 30.3626507 41.0572687 30.4862915 40.2555066 31.5284069 40.0528634 31.6520477 39.7444934 31.8551719 39.215859 31.8375089 38.907489 31.6078903z"/>
    <path d="M0 31.3606086C0 31.2193048.0352422907 31.0161807.0792951542 30.9013713.123348018 30.786562.202643172 30.5392804.264317181 30.3449877.36123348 30.0182227.449339207 29.806267.757709251 29.0909166.828193833 28.9407813.881057269 28.7906461.881057269 28.7641516.881057269 28.6316793 1.53303965 27.6778788 1.83259912 27.3687767 2.11453744 27.0685062 2.20264317 27.0331802 2.57268722 27.0331802 2.96035242 27.0331802 3.030837 27.0685062 3.37444934 27.4305971 3.91189427 27.9869808 4.65198238 29.5324909 5.0660793 30.9455288 5.23348018 31.5019124 5.17180617 31.6873736 4.8722467 31.5902273 4.71365639 31.5372384 4.63436123 31.3959346 4.25550661 30.47746 4.18502203 30.3096617 4.07048458 30.0535486 3.99118943 29.9210763 3.92070485 29.788604 3.8061674 29.5766484 3.74449339 29.4441761 3.68281938 29.3205352 3.46255507 29.0467592 3.26872247 28.8348035 2.969163 28.5080385 2.86343612 28.4462181 2.5814978 28.4462181 1.95594714 28.4550496 1.55947137 29.0026017.581497797 31.1928104.370044053 31.6785421 0 31.78452 0 31.3606086zM38.907489 28.0752956C38.6960352 27.828014 38.6784141 27.2009785 38.8810573 26.9978543 39.3127753 26.5651115 40.061674 26.6799208 40.2290749 27.20981 40.3436123 27.5630694 40.2555066 27.9693178 40.0264317 28.1459475 39.938326 28.2077679 39.69163 28.2695884 39.4713656 28.2695884 39.1629956 28.2695884 39.030837 28.2254309 38.907489 28.0752956zM4.89867841 26.3973132C4.8722467 26.3354928 4.83700441 26.0263908 4.80176211 25.7084573 4.66960352 24.3219139 4.39647577 23.2621355 4.07929515 22.9177075 3.94713656 22.7764037 3.78854626 22.7057518 3.58590308 22.7057518 3.15418502 22.7057518 2.16740088 23.4299337 1.48898678 24.251262.766519824 25.1255792.440528634 25.3198719.440528634 24.8606346.440528634 24.2777564 2.47577093 21.9727385 3.38325991 21.5311641 3.98237885 21.2397251 4.0969163 21.2397251 4.45814978 21.5135012 5.030837 21.9550755 5.40088106 23.5182486 5.35682819 25.3551978 5.33039648 26.4238077 5.3215859 26.4591336 5.1277533 26.4856281 5.02202643 26.503291 4.91629956 26.4591336 4.89867841 26.3973132z"/>
    <path d="M2.49339207 26.1853575C1.88546256 25.885087 2.03524229 24.8429716 2.70484581 24.7104993 3.29515419 24.59569 3.77092511 25.0814217 3.65638767 25.6731313 3.55947137 26.194189 3.00440529 26.4414706 2.49339207 26.1853575zM38.3964758 25.7702777C38.1145374 25.6201424 37.7444934 25.3463663 37.5594714 25.1785681 36.8634361 24.5250381 35.6387665 22.9530335 35.5418502 22.582111 35.4977974 22.3789868 35.5154185 22.3524924 35.7004405 22.3524924 35.8590308 22.3524924 36.1145374 22.5644481 36.660793 23.1561577 37.7797357 24.3749028 38.3964758 24.7634882 38.969163 24.6133529 39.3920705 24.5073751 39.7621145 23.5005856 39.8678414 22.1758627 39.938326 21.2132306 40.0528634 20.8511397 40.2643172 20.8511397 40.5022026 20.8511397 40.5550661 21.2220621 40.4845815 22.5556166 40.3876652 24.4278917 40.0881057 25.5141646 39.5506608 25.8939185 39.215859 26.1323686 38.9779736 26.1058742 38.3964758 25.7702777z"/>
    <path d="M37.5066079 22.4937962C37.0396476 22.0610533 37.1189427 21.5135012 37.6828194 21.1867362 38.0176211 20.983612 38.3171806 21.0454324 38.6343612 21.3545344 38.9339207 21.6636364 38.9251101 22.0610533 38.6079295 22.4231443 38.2819383 22.7852352 37.8502203 22.8117297 37.5066079 22.4937962zM6.69603524 21.6901309C6.59030837 21.5576586 6.60792952 21.3015455 6.76651982 20.6303525 7.21585903 18.7934033 7.1277533 17.7601194 6.51101322 17.6276471 5.95594714 17.5040063 5.18061674 17.7777824 3.84140969 18.5814476 3.04845815 19.0495164 2.81938326 19.1025053 2.81938326 18.7934033 2.81938326 18.5461217 3.00440529 18.3606605 3.87665198 17.7866139 5.2246696 16.8858022 6.24669604 16.4353964 6.9339207 16.4353964 7.56828194 16.4353964 7.79735683 16.6561836 7.88546256 17.3627025 7.98237885 18.0868844 7.75330396 19.8708447 7.49779736 20.4095653 7.46255507 20.4802172 7.35682819 20.7893193 7.26872247 21.0807583 7.08370044 21.6812994 6.8722467 21.9020866 6.69603524 21.6901309z"/>
    <path d="M4.52863436 20.7186674C4.22907489 20.5155432 4.0969163 20.1092948 4.22907489 19.7913613 4.37885463 19.4292703 4.63436123 19.2614721 5.030837 19.2614721 5.28634361 19.2614721 5.40969163 19.3232925 5.58590308 19.5352482 5.85022026 19.8443502 5.87665198 20.1446208 5.66519824 20.4978802 5.45374449 20.8599712 4.88105727 20.9747805 4.52863436 20.7186674zM36.1938326 20.5420376C35.9647577 20.4802172 35.5242291 20.3035875 35.2246696 20.1446208 34.4493392 19.7472039 32.9779736 18.7492459 32.7665198 18.4843013 32.6079295 18.2811771 32.6079295 18.2458512 32.7312775 18.1751993 32.9251101 18.0692214 33.2863436 18.1663678 33.6123348 18.4136494 33.9823789 18.696257 35.2951542 19.3232925 35.7885463 19.4469333 36.2995595 19.5882371 36.5814978 19.4822593 36.784141 19.0760109 36.9427313 18.7757403 36.9251101 17.7071305 36.7488987 16.8328133 36.4845815 15.5345848 36.4757709 15.2873032 36.6872247 15.2873032 36.8898678 15.2873032 37.0572687 15.5787422 37.2599119 16.2587667 37.6211454 17.4510174 37.7180617 17.9720751 37.7709251 18.8905497 37.8237885 19.9944855 37.7004405 20.4007339 37.2334802 20.5685321 36.8898678 20.7010044 36.7312775 20.6921729 36.1938326 20.5420376z"/>
    <path d="M34.3876652 17.6188156C34.1409692 17.4245229 34.0969163 17.336208 34.0969163 17.009443 34.0969163 16.6915095 34.1409692 16.5943632 34.3788546 16.391239 34.6079295 16.1969463 34.722467 16.1616203 34.9603524 16.2057778 35.3480176 16.2675982 35.5770925 16.4707224 35.6387665 16.8239818 35.7180617 17.2037357 35.5594714 17.5481637 35.2511013 17.715962 34.8898678 17.9014232 34.7136564 17.8837602 34.3876652 17.6188156zM9.82378855 17.662973C9.72687225 17.5128378 9.85903084 17.1419153 10.2643172 16.4795538 10.7753304 15.6228997 11.1894273 14.6337732 11.1894273 14.2186933 11.1894273 13.9802432 10.784141 13.6269837 10.3876652 13.5210059 10.0088106 13.415028 9.49779736 13.4591855 8.32599119 13.7064671 7.52422907 13.8742653 6.96035242 13.9007598 6.96035242 13.7682875 6.96035242 13.5563318 7.08370044 13.450354 7.48898678 13.3002187 9.20704846 12.6731832 11.2863436 12.4259015 11.8942731 12.7879925 12.2114537 12.9734537 12.2819383 13.1500834 12.2643172 13.759456 12.246696 14.3335026 11.7621145 15.4021125 10.9427313 16.6385206 10.2907489 17.6364786 9.97356828 17.9190861 9.82378855 17.662973z"/>
    <path d="M8.12334802 16.1704518C7.68281938 15.7995294 7.8061674 15.0930105 8.36123348 14.8015714 8.59030837 14.6867621 8.65198238 14.6867621 8.9339207 14.8015714 9.29515419 14.9605382 9.42731278 15.1636624 9.42731278 15.5875737 9.42731278 16.2411037 8.63436123 16.6031947 8.12334802 16.1704518zM31.4096916 16.1527888C29.8590308 15.8171924 28.9427313 15.5345848 28.722467 15.3226291 28.6079295 15.1989883 28.6079295 15.1724938 28.7665198 15.0576845 28.8810573 14.9693697 29.030837 14.9428752 29.2070485 14.9782011 29.3568282 15.0135271 29.6299559 15.0753475 29.8237885 15.1195049 31.215859 15.4374384 32.3171806 15.4374384 32.6343612 15.1195049 32.784141 14.9693697 32.8193833 14.8368974 32.8017621 14.4659749 32.7753304 13.9714117 32.7753304 13.9625802 32.3259912 13.0529371 32.0088106 12.4082386 31.9559471 12.3287552 31.6563877 11.8341919 31.5418502 11.6575622 31.4537445 11.4279436 31.4537445 11.3219657 31.4537445 11.162999 31.4977974 11.127673 31.69163 11.1541675 31.8854626 11.1718304 32.0528634 11.3661232 32.6079295 12.1962829 33.6211454 13.7064671 34.0088106 14.5631213 34.0088106 15.2873032 34 15.8171924 33.7885463 16.064474 33.1982379 16.2234407 32.6167401 16.373576 32.3964758 16.3647445 31.4096916 16.1527888zM14.0088106 14.8015714C13.9207048 14.6955936 14.0881057 14.4836379 14.969163 13.6093207 15.5506608 13.0264426 16.0352423 12.4877219 16.0352423 12.4259015 16.0352423 12.3640811 16.0969163 12.2581033 16.1674009 12.1962829 16.3436123 12.0461476 16.3259912 11.489764 16.1409692 11.2689768 15.7973568 10.8803914 15.3303965 10.7390876 13.8325991 10.5624579 12.6696035 10.4299856 12.5110132 10.3769967 12.5110132 10.165041 12.5110132 9.9619168 12.7577093 9.90009639 13.6123348 9.90009639 15.7004405 9.90892788 17.154185 10.2710188 17.5330396 10.8892229 17.6299559 11.0481896 17.7092511 11.2424823 17.7092511 11.3307972 17.7092511 11.9136753 16.4229075 13.3973651 15.0132159 14.4218175 14.4140969 14.8633918 14.1409692 14.9605382 14.0088106 14.8015714z"/>
    <path d="M29.9118943 13.9802432C29.8061674 13.9007598 29.6740088 13.7241301 29.6035242 13.5828263 29.4977974 13.3708706 29.5066079 13.3002187 29.6299559 13.0352741 29.8325991 12.6025313 30.2819383 12.3905756 30.660793 12.5495423 31.2070485 12.779161 31.3480176 13.4591855 30.9339207 13.8830968 30.6343612 14.1833674 30.1938326 14.2275248 29.9118943 13.9802432zM23.9647577 13.4856799C23.9647577 13.2207353 24.0881057 13.1765779 25.0660793 13.0794315 26.5550661 12.9292963 27.0484581 12.7879925 27.5154185 12.3817441 28.0176211 11.9401698 27.7356828 11.3572917 26.3788546 10.0149057 25.4185022 9.06110517 25.2422907 8.81382355 25.4889868 8.72550868 25.6651982 8.66368828 26.0792952 8.9109699 26.9339207 9.60865733 28.4405286 10.8274025 29.154185 11.781203 29.0484581 12.434733 28.9779736 12.8409814 28.8810573 12.9469592 28.3348018 13.1942409 27.6740088 13.5121744 26.4493392 13.6976356 25.1189427 13.6976356L23.9647577 13.6976356 23.9647577 13.4856799zM18.8810573 13.3620391C18.8281938 13.2472298 19.0837004 12.9028018 19.2246696 12.9028018 19.2599119 12.9028018 19.4977974 12.8056555 19.753304 12.6820146 20 12.5583738 20.2378855 12.4612275 20.2731278 12.4612275 20.4229075 12.4612275 21.3832599 11.8253605 21.7004405 11.5250899 22.2995595 10.9422118 22.0881057 10.4034911 21.0132159 9.75879261 20.5198238 9.45852206 19.7621145 9.09643112 19.277533 8.91980139 18.9515419 8.80499206 18.784141 8.57537341 18.8986784 8.39874368 18.969163 8.29276584 19.2246696 8.28393436 19.4889868 8.38991219 19.6035242 8.43406963 19.8942731 8.53121598 20.1409692 8.60186787 20.6784141 8.76083463 21.9295154 9.31721828 22.4229075 9.61748882 22.6167401 9.74112963 22.9251101 9.98841125 23.1101322 10.182704 23.3832599 10.474143 23.4361233 10.5977838 23.4361233 10.9157173 23.4361233 11.2513138 23.3832599 11.3484602 23.0572687 11.6840567 22.7312775 12.0108217 21.5770925 12.6643517 20.9251101 12.9028018 20.8281938 12.9381278 20.5991189 13.0352741 20.4140969 13.1147575 20.2290749 13.1942409 20.0088106 13.2560613 19.9118943 13.2560613 19.8237885 13.2560613 19.7268722 13.2913872 19.7004405 13.3355446 19.6123348 13.4680169 18.9251101 13.4945114 18.8810573 13.3620391zM13.1189427 13.0529371C12.8634361 12.8851388 12.8193833 12.796824 12.7929515 12.452396 12.7753304 12.1167995 12.8017621 12.0108217 13.0044053 11.816529 13.3303965 11.4809325 13.8325991 11.4809325 14.0881057 11.816529 14.4845815 12.3110922 14.3964758 12.8763073 13.876652 13.1147575 13.4977974 13.3002187 13.4713656 13.2913872 13.1189427 13.0529371z"/>
    <path d="M24.5726872 11.9666642C24.3348018 11.8960123 24.1145374 11.4102806 24.1674009 11.0746841 24.2378855 10.6684357 24.5198238 10.4299856 24.9515419 10.4299856 25.4185022 10.4299856 25.7268722 10.7390876 25.7268722 11.2071564 25.7268722 11.6840567 25.5066079 11.9313383 25.0660793 11.9754957 24.8722467 11.9931587 24.6519824 11.9931587 24.5726872 11.9666642zM106.828194 11.7017196C105.259912 11.3131342 103.920705 10.129715 103.436123 8.7166772 103.215859 8.06314719 103.189427 6.59712043 103.39207 6.00541083 103.885463 4.56587853 104.907489 3.51493164 106.255507 3.04686285 106.651982 2.91439055 106.977974 2.87906461 108.017621 2.88789609 109.162996 2.89672758 109.365639 2.92322204 110 3.1440092 110.951542 3.46194272 111.013216 3.53259461 111.013216 4.22145056 111.013216 4.5217211 110.977974 4.77783421 110.92511 4.77783421 110.881057 4.77783421 110.599119 4.66302488 110.290749 4.5217211 109.427313 4.11547272 108.863436 3.98300042 107.955947 3.98300042 106.898678 3.98300042 106.202643 4.23911353 105.506608 4.90147502 104.828194 5.54617353 104.555066 6.17320908 104.546256 7.16233557 104.528634 8.31042882 104.810573 8.99045328 105.568282 9.6969722 106.052863 10.1385465 106.378855 10.3151763 107.022026 10.4829745 108.035242 10.7479191 109.427313 10.5447949 110.46696 9.97074828 110.625551 9.88243342 110.792952 9.81178152 110.837004 9.81178152 110.889868 9.81178152 110.92511 10.0855576 110.92511 10.4123226 110.92511 11.11001 110.969163 11.0658526 109.779736 11.4632695 109.251101 11.6398992 108.898678 11.6928882 108.061674 11.7193826 107.480176 11.7282141 106.92511 11.7282141 106.828194 11.7017196zM127.762115 11.5869103C127.198238 11.3572917 126.722467 10.9245488 126.511013 10.4476486 126.237885 9.86477044 126.299559 8.86681247 126.634361 8.33692328 126.898678 7.91301192 127.647577 7.28597638 128.237885 6.99453732 129.823789 6.19970354 130.440529 5.07810475 129.718062 4.31859691 129.101322 3.67389839 127.779736 3.81520218 126.828194 4.63653042 126.643172 4.80432867 126.449339 4.91913799 126.414097 4.90147502 126.378855 4.87498056 126.343612 4.5835415 126.343612 4.2567765 126.343612 3.55908907 126.387665 3.49726866 127.180617 3.13517771 127.638767 2.92322204 127.823789 2.88789609 128.590308 2.88789609 129.38326 2.87906461 129.515419 2.90555907 129.920705 3.11751474 130.493392 3.41778528 130.881057 3.88585407 131.057269 4.47756367 131.22467 5.05161029 131.22467 5.32538637 131.057269 5.85527556 130.801762 6.70309827 130.334802 7.18883003 128.977974 7.98366381 128.088106 8.50472152 127.54185 9.02577922 127.462555 9.44085909 127.321586 10.147378 127.788546 10.6242783 128.678414 10.6772672 129.330396 10.7214246 129.718062 10.6066153 130.30837 10.2091984 130.546256 10.0502317 130.757709 9.94425382 130.784141 9.97074828 130.810573 9.99724274 130.837004 10.2710188 130.837004 10.5712894 130.837004 11.0746841 130.819383 11.1365045 130.599119 11.2954713 129.894273 11.7723715 128.563877 11.9136753 127.762115 11.5869103zM18.6167401 11.489764C18.1938326 11.1011786 18.3171806 10.3858281 18.845815 10.165041 19.1629956 10.0414002 19.4449339 10.0943891 19.7180617 10.3240077 20 10.5712894 19.9911894 11.2071564 19.7092511 11.472101 19.4449339 11.7282141 18.8722467 11.7370456 18.6167401 11.489764zM177.048458 11.472101C177.022026 11.3572917 177.013216 9.40553314 177.022026 7.11817814L177.048458 2.96737947 177.577093 2.96737947 178.105727 2.96737947 178.14978 4.46873218C178.176211 5.29889191 178.185022 7.25065043 178.167401 8.82265503L178.140969 11.6663937 177.621145 11.6663937C177.145374 11.6663937 177.092511 11.6487307 177.048458 11.472101zM189.189427 8.89330693C188.643172 8.35458625 188.193833 7.86885449 188.193833 7.80703408 188.193833 7.73638219 188.30837 7.69222476 188.528634 7.69222476 188.713656 7.69222476 188.907489 7.64806733 188.969163 7.58624692 189.039648 7.51559503 189.07489 7.02986327 189.07489 5.99657935 189.07489 3.8681911 189.198238 3.46194272 190 3.02919988 190.370044 2.82607569 191.647577 2.83490717 192.052863 3.03803136 192.317181 3.17933515 192.334802 3.22349258 192.334802 3.62974096 192.334802 3.88585407 192.290749 4.07131529 192.237885 4.07131529 192.185022 4.07131529 191.894273 4.00066339 191.577093 3.92118002 191.048458 3.77987623 191.004405 3.77987623 190.704846 3.92118002 190.537445 4.00066339 190.352423 4.16846164 190.30837 4.30093394 190.202643 4.56587853 190.193833 7.41844868 190.290749 7.57741543 190.334802 7.64806733 190.660793 7.69222476 191.189427 7.70988773L192.026432 7.73638219 192.026432 8.17795652 192.026432 8.61953084 191.171806 8.6460253C190.202643 8.67251976 190.246696 8.63719382 190.202643 9.45852206L190.176211 9.85593896 189.189427 8.89330693z"/>
    <path fill-rule="nonzero" d="M113.215859,8.7166772 C112.995595,8.65485679 112.643172,8.49589003 112.440529,8.35458625 C112.079295,8.11613611 112.070485,8.09847314 112.070485,7.60390989 C112.070485,7.33013381 112.096916,7.0740207 112.123348,7.04752624 C112.15859,7.0122003 112.30837,7.09168368 112.45815,7.22415597 C112.854626,7.55975246 113.436123,7.78053962 113.920705,7.78053962 C114.264317,7.78053962 114.396476,7.73638219 114.60793,7.533258 C114.907489,7.25065043 115.048458,6.7472557 114.898678,6.46464813 C114.837004,6.35867029 114.669604,6.26152394 114.493392,6.226198 C114.325991,6.19970354 114.15859,6.13788313 114.132159,6.0937257 C114.105727,6.04956827 114,6.01424232 113.894273,6.01424232 C113.559471,6.00541083 112.581498,5.4401957 112.299559,5.09576772 C112.061674,4.80432867 112.026432,4.68951934 112.026432,4.22145056 C112.026432,3.63857245 112.14978,3.39129082 112.590308,3.04686285 C112.92511,2.79958123 113.911894,2.8172442 114.431718,3.09102028 L114.819383,3.28531299 L115.162996,3.04686285 C115.453744,2.84373866 115.559471,2.8172442 115.911894,2.87023312 C116.484581,2.9497165 116.828194,3.17050366 116.828194,3.46194272 C116.828194,3.69156137 116.810573,3.70039285 116.555066,3.62974096 C116.035242,3.47960569 116.035242,3.4707742 116.035242,5.47552164 C116.035242,7.206493 116.026432,7.32130233 115.823789,7.74521368 C115.409692,8.63719382 114.352423,9.03461071 113.215859,8.7166772 Z M114.92511,5.60799394 C114.951542,5.52851056 114.977974,5.15758813 114.977974,4.77783421 L114.977974,4.08014677 L114.651982,3.83286515 C113.955947,3.30297596 113.127753,3.62974096 113.127753,4.43340623 C113.127753,4.85731759 113.365639,5.13109367 113.982379,5.39603826 C114.211454,5.5020161 114.46696,5.61682543 114.537445,5.66098286 C114.740088,5.77579218 114.863436,5.7669607 114.92511,5.60799394 Z"/>
    <path d="M120.378855,8.6460253 C120.167401,8.54887895 119.84141,8.27510287 119.638767,8.03665273 C119.444934,7.7982026 119.242291,7.63040435 119.198238,7.65689881 C119.154185,7.68339327 119.118943,7.92184341 119.118943,8.186788 L119.118943,8.66368828 L118.590308,8.66368828 L118.061674,8.66368828 L118.061674,5.79345516 L118.061674,2.91439055 L118.572687,2.94088501 L119.07489,2.96737947 L119.118943,4.68951934 C119.154185,6.07606273 119.198238,6.48231111 119.321586,6.76491867 C119.656388,7.51559503 120.202643,7.860023 120.792952,7.68339327 C120.986784,7.62157287 121.189427,7.52442652 121.242291,7.45377462 C121.418502,7.25065043 121.647577,7.33013381 121.885463,7.69222476 C122.008811,7.88651746 122.114537,8.07197868 122.114537,8.11613611 C122.114537,8.33692328 121.242291,8.84914949 120.889868,8.84031801 C120.810573,8.83148652 120.581498,8.75200314 120.378855,8.6460253 Z"/>
    <path fill-rule="nonzero" d="M146.933921,8.7166772 C146.220264,8.50472152 145.709251,8.04548422 145.312775,7.25065043 C145.0837,6.80907611 145.066079,6.6854353 145.07489,5.83761259 C145.0837,4.75133975 145.23348,4.30976542 145.832599,3.66506691 C146.449339,2.99387393 146.748899,2.87906461 147.929515,2.88789609 C148.872247,2.88789609 148.977974,2.90555907 149.471366,3.15284069 C150,3.41778528 150,3.41778528 150.026432,3.84169664 C150.061674,4.39808029 149.973568,4.47756367 149.585903,4.24794502 C149.23348,4.04482083 148.396476,3.80637069 148.026432,3.80637069 C147.638767,3.80637069 147.030837,4.05365231 146.757709,4.31859691 C146.45815,4.61003596 146.14978,5.24590299 146.185022,5.51084759 C146.211454,5.70514029 146.237885,5.70514029 148.185022,5.73163475 L150.15859,5.74929772 L150.114537,6.36750178 C150.035242,7.44494314 149.365639,8.43406963 148.555066,8.66368828 C148.026432,8.82265503 147.374449,8.84031801 146.933921,8.7166772 Z M148.45815,7.61274138 C148.784141,7.37429124 149.0837,6.88855949 149.057269,6.63244638 L149.030837,6.41165921 L147.700441,6.38516475 C146.132159,6.35867029 146.044053,6.39399624 146.334802,6.97687435 C146.748899,7.78053962 147.788546,8.09847314 148.45815,7.61274138 Z"/>
    <path d="M153.938326 8.69901422C153.770925 8.62836233 153.444934 8.35458625 153.189427 8.08964165 152.942731 7.82469706 152.713656 7.63040435 152.669604 7.65689881 152.634361 7.68339327 152.599119 7.92184341 152.599119 8.186788L152.599119 8.66368828 152.070485 8.66368828 151.54185 8.66368828 151.54185 5.79345516 151.54185 2.92322204 152.070485 2.92322204 152.599119 2.92322204 152.599119 4.49522664C152.599119 6.26152394 152.687225 6.73842422 153.118943 7.25948192 153.268722 7.43611165 153.524229 7.62157287 153.726872 7.68339327 154.044053 7.78937111 154.105727 7.78053962 154.537445 7.56858395 154.784141 7.44494314 155.039648 7.3389653 155.092511 7.3389653 155.154185 7.3389653 155.303965 7.51559503 155.436123 7.72755071L155.665198 8.11613611 155.488987 8.31042882C155.286344 8.52238449 154.60793 8.84031801 154.378855 8.83148652 154.299559 8.83148652 154.096916 8.76966611 153.938326 8.69901422zM158.696035 8.66368828C158.493392 8.56654192 158.185022 8.38991219 158.017621 8.2574399 157.700441 8.01898976 157.665198 8.02782125 157.603524 8.44290111 157.577093 8.59303638 157.506608 8.61953084 157.048458 8.61953084L156.519824 8.61953084 156.519824 5.79345516 156.519824 2.96737947 157.048458 2.96737947 157.577093 2.96737947 157.621145 5.09576772 157.665198 7.22415597 157.929515 7.45377462C158.325991 7.80703408 158.863436 7.96600084 159.268722 7.85119152 160 7.65689881 160.035242 7.533258 160.088106 5.0427788L160.132159 2.96737947 160.660793 2.96737947 161.189427 2.96737947 161.215859 5.0427788 161.23348 7.10934665 161.471366 7.35662827C161.770925 7.67456179 162.202643 7.86885449 162.599119 7.86885449 163.004405 7.86885449 163.198238 7.76287665 163.453744 7.40961719 163.647577 7.12700962 163.656388 7.03869476 163.700441 5.0427788L163.744493 2.96737947 164.088106 2.94088501C164.281938 2.92322204 164.528634 2.93205352 164.643172 2.96737947L164.863436 3.02036839 164.828194 5.1134307C164.801762 7.15350408 164.792952 7.21532449 164.572687 7.70105625 164.290749 8.31042882 163.876652 8.63719382 163.242291 8.76966611 162.660793 8.89330693 162.211454 8.75200314 161.506608 8.21328246L161.048458 7.860023 160.625551 8.23977692C160.211454 8.61069936 159.674009 8.84914949 159.277533 8.83148652 159.162996 8.83148652 158.907489 8.75200314 158.696035 8.66368828z"/>
    <path fill-rule="nonzero" d="M167.057269,8.66368828 C166.246696,8.38991219 166.123348,8.2574399 166.096916,7.56858395 C166.070485,6.95037989 166.123348,6.87089651 166.387665,7.16233557 C166.634361,7.43611165 167.436123,7.78053962 167.84141,7.78053962 C168.555066,7.78053962 168.933921,7.4007857 168.881057,6.72076124 L168.854626,6.33217584 L168.237885,6.13788313 C167.585903,5.93475894 166.740088,5.56383651 166.519824,5.37837529 C166.211454,5.13109367 165.991189,4.62769894 165.991189,4.1949561 C165.991189,3.65623542 166.281938,3.19699812 166.748899,2.96737947 C167.162996,2.77308677 167.938326,2.83490717 168.46696,3.10868326 L168.828194,3.28531299 L169.048458,3.0821888 C169.515419,2.64061447 170.837004,2.93205352 170.837004,3.47960569 C170.837004,3.7357188 170.819383,3.74455028 170.352423,3.57675204 C170.30837,3.55908907 170.202643,3.57675204 170.132159,3.62974096 C170.026432,3.70039285 169.991189,4.0624838 169.955947,5.68747732 C169.903084,7.860023 169.903084,7.88651746 169.303965,8.36341773 C168.704846,8.84031801 167.894273,8.94629585 167.057269,8.66368828 Z M168.881057,4.8484861 L168.854626,3.94767447 L168.502203,3.74455028 C168.044053,3.47960569 167.735683,3.48843718 167.409692,3.77104474 C167.171806,3.96533745 167.136564,4.05365231 167.136564,4.42457475 C167.136564,4.81316015 167.171806,4.88381205 167.427313,5.07810475 C167.735683,5.31655489 168.599119,5.73163475 168.792952,5.74046624 C168.881057,5.74929772 168.898678,5.53734205 168.881057,4.8484861 Z"/>
    <path d="M174.343612,8.66368828 C174.167401,8.56654192 173.85022,8.29276584 173.647577,8.04548422 C173.444934,7.80703408 173.242291,7.60390989 173.207048,7.60390989 C173.171806,7.60390989 173.127753,7.83352854 173.110132,8.11613611 L173.0837,8.61953084 L172.555066,8.61953084 L172.026432,8.61953084 L172.026432,5.79345516 L172.026432,2.96737947 L172.555066,2.96737947 L173.0837,2.96737947 L173.127753,4.73367677 C173.180617,6.57062597 173.23348,6.87089651 173.621145,7.30363935 C173.806167,7.51559503 174.290749,7.78053962 174.475771,7.78053962 C174.537445,7.78053962 174.792952,7.68339327 175.030837,7.55975246 C175.268722,7.43611165 175.506608,7.3389653 175.568282,7.3389653 C175.629956,7.3389653 175.779736,7.52442652 175.911894,7.75404516 L176.15859,8.16029354 L175.876652,8.39874368 C175.603524,8.62836233 175.057269,8.84914949 174.792952,8.84031801 C174.722467,8.83148652 174.519824,8.75200314 174.343612,8.66368828 Z"/>
    <path fill-rule="nonzero" d="M184.449339,8.7166772 C183.920705,8.56654192 183.594714,8.36341773 183.23348,7.96600084 C182.810573,7.49793206 182.678414,7.21532449 182.555066,6.54413151 C182.290749,5.08693624 182.889868,3.67389839 184.008811,3.07335731 C184.30837,2.91439055 184.502203,2.88789609 185.374449,2.88789609 C186.325991,2.88789609 186.422907,2.90555907 186.9163,3.15284069 L187.444934,3.4089538 L187.471366,3.92118002 C187.488987,4.1949561 187.462555,4.42457475 187.418502,4.42457475 C187.374449,4.42457475 187.162996,4.32742839 186.951542,4.21261907 C186.343612,3.87702258 185.647577,3.75338177 185.07489,3.88585407 C184.810573,3.94767447 184.484581,4.07131529 184.361233,4.17729312 C183.920705,4.5217211 183.54185,5.29889191 183.665198,5.60799394 C183.709251,5.73163475 183.973568,5.74929772 185.638767,5.74929772 C187.947137,5.74929772 187.797357,5.65215137 187.471366,6.98570584 C187.145374,8.3192603 185.770925,9.1052626 184.449339,8.7166772 Z M185.903084,7.61274138 C186.229075,7.37429124 186.528634,6.88855949 186.502203,6.63244638 L186.475771,6.41165921 L185.145374,6.38516475 C183.594714,6.35867029 183.53304,6.38516475 183.788546,6.95037989 C184.14978,7.76287665 185.22467,8.09847314 185.903084,7.61274138 Z"/>
    <path d="M132.511013,6.6147834 C132.511013,5.48435313 132.537445,4.39808029 132.572687,4.21261907 C132.651982,3.72688731 133.295154,3.06452582 133.832599,2.92322204 C134.378855,2.77308677 134.995595,2.87023312 135.559471,3.18816663 C136.140969,3.51493164 136.193833,3.51493164 136.229075,3.21466109 C136.255507,2.97621096 136.273128,2.96737947 136.784141,2.96737947 L137.312775,2.96737947 L137.312775,5.79345516 L137.312775,8.61953084 L136.784141,8.61953084 L136.255507,8.61953084 L136.211454,6.54413151 C136.185022,5.40486975 136.132159,4.41574326 136.096916,4.35392285 C136.052863,4.29210245 135.859031,4.14196718 135.656388,4.00949488 C135.23348,3.74455028 134.528634,3.69156137 134.14978,3.89468556 C133.665198,4.15079866 133.621145,4.36275434 133.585903,6.6147834 L133.550661,8.66368828 L133.030837,8.66368828 L132.511013,8.66368828 L132.511013,6.6147834 Z"/>
    <path fill-rule="nonzero" d="M138.828194,8.61069936 C138.792952,8.57537341 138.76652,6.65010935 138.76652,4.32742839 C138.76652,-0.326765001 138.722467,0.00883148652 139.339207,0.00883148652 C139.920705,0.00883148652 139.911894,-0.0264944596 139.911894,1.51018419 C139.911894,3.07335731 139.903084,3.05569434 140.537445,2.90555907 C140.748899,2.86140163 141.198238,2.84373866 141.54185,2.87906461 C142.052863,2.93205352 142.237885,2.99387393 142.696035,3.29414447 C143.585903,3.87702258 143.964758,4.62769894 143.964758,5.79345516 C143.964758,7.10934665 143.515419,7.860023 142.422907,8.37224922 C141.920705,8.61069936 141.823789,8.61953084 140.396476,8.6460253 C139.568282,8.66368828 138.863436,8.6460253 138.828194,8.61069936 Z M142.044053,7.40961719 C142.969163,6.89739097 143.154185,5.43136421 142.422907,4.45990069 C141.955947,3.84169664 140.933921,3.61207799 140.220264,3.95650596 L139.911894,4.10664123 L139.911894,5.79345516 C139.911894,7.02103178 139.938326,7.51559503 140.026432,7.59507841 C140.202643,7.78937111 141.594714,7.6657303 142.044053,7.40961719 Z"/>
    <path d="M179.823789 7.63923584C179.312775 7.0740207 178.76652 6.46464813 178.61674 6.2880184 178.45815 6.11138867 178.325991 5.93475894 178.325991 5.899433 178.325991 5.81994962 179.162996 4.91030651 180.343612 3.70039285L181.101322 2.92322204 181.770925 2.92322204C182.140969 2.92322204 182.45815 2.9497165 182.484581 2.97621096 182.519824 3.00270542 182.052863 3.50610015 181.471366 4.10664123 180.881057 4.69835083 180.237885 5.35188083 180.052863 5.55500502L179.709251 5.91709597 180.405286 6.73842422C180.784141 7.18883003 181.189427 7.64806733 181.295154 7.75404516 181.54185 8.01015827 181.938326 8.53121598 181.938326 8.60186787 181.938326 8.63719382 181.665198 8.66368828 181.339207 8.66368828L180.740088 8.66368828 179.823789 7.63923584zM7.44493392 6.90622246C6.969163 6.6854353 6.81057269 6.49114259 6.66960352 5.92592746 6.57268722 5.53734205 6.50220264 5.43136421 6.33480176 5.39603826 6.15859031 5.35188083 6.12334802 5.29006043 6.12334802 5.0427788 6.12334802 4.79549718 6.15859031 4.73367677 6.34361233 4.68951934L6.56387665 4.63653042 6.59030837 3.3383019 6.61674009 2.04007339 7.09251101 2.04007339 7.56828194 2.04007339 7.59471366 3.3383019 7.62114537 4.63653042 7.84140969 4.68951934C8.02643172 4.73367677 8.06167401 4.79549718 8.06167401 5.0427788 8.06167401 5.28122894 8.01762115 5.36071232 7.88546256 5.38720678 7.65638767 5.42253272 7.56828194 5.57266799 7.63876652 5.79345516 7.70044053 6.01424232 7.89427313 6.13788313 8.28193833 6.19087205 8.55506608 6.226198 8.59030837 6.27035543 8.61674009 6.54413151 8.66960352 7.0740207 8.16740088 7.22415597 7.44493392 6.90622246zM32.7488987 6.93271692C32.7136564 6.89739097 32.6872247 5.77579218 32.6872247 4.45106921L32.6872247 2.0312419 33.154185 2.05773636 33.6123348 2.08423082 33.6387665 2.8172442C33.6563877 3.21466109 33.7004405 3.54142609 33.7444934 3.54142609 33.7885463 3.54142609 34.0881057 3.20582961 34.4052863 2.79074974L34.9955947 2.04007339 35.5594714 2.04007339C35.8678414 2.04007339 36.123348 2.07539933 36.123348 2.11072528 36.123348 2.15488271 35.8678414 2.50814217 35.5506608 2.90555907 35.2334802 3.29414447 34.9779736 3.64740393 34.9779736 3.69156137 34.9779736 3.77104474 35.5066079 4.50405813 35.9118943 4.9809584 36.185022 5.3077234 36.0969163 5.39603826 35.4977974 5.39603826 35.0484581 5.39603826 35.1277533 5.45785867 34.2026432 4.35392285 33.9911894 4.09780975 33.7797357 3.89468556 33.7356828 3.89468556 33.69163 3.89468556 33.6475771 4.5835415 33.6387665 5.42253272L33.6123348 6.94154841 33.215859 6.96804286C32.9955947 6.98570584 32.784141 6.96804286 32.7488987 6.93271692z"/>
    <path fill-rule="nonzero" d="M9.39207048,5.3077234 C8.63436123,5.07810475 8.23788546,4.51288961 8.24669604,3.66506691 C8.25550661,2.60528852 8.92511013,2.01357893 10.0881057,2.01357893 C10.6079295,2.01357893 10.784141,2.04890487 11.1189427,2.25202906 C11.5947137,2.52580514 11.7621145,2.75542379 11.9118943,3.31180745 C12.1321586,4.12430421 11.5859031,5.07810475 10.7753304,5.29889191 C10.3876652,5.41370124 9.75330396,5.41370124 9.39207048,5.3077234 Z M10.5198238,4.67185637 C10.6960352,4.51288961 10.7577093,4.35392285 10.8017621,3.98300042 C10.8810573,3.28531299 10.7312775,2.80841271 10.3700441,2.61412001 C10.0969163,2.47281623 10.0528634,2.47281623 9.8061674,2.59645704 C9.44493392,2.79074974 9.31277533,3.15284069 9.35682819,3.85935961 C9.39207048,4.37158583 9.42731278,4.47756367 9.63876652,4.6541934 C9.93832599,4.91913799 10.2378855,4.91913799 10.5198238,4.67185637 Z"/>
    <path d="M12.0352423 5.31655489C12 5.26356597 12.0528634 5.05161029 12.1497797 4.8484861 12.2378855 4.63653042 12.4317181 4.1949561 12.5726872 3.85052812 13.2687225 2.20787163 13.4096916 1.95175852 13.6211454 1.95175852 13.8590308 1.95175852 13.9911894 2.13721974 14.2819383 2.83490717 14.3876652 3.09985177 14.5462555 3.40012231 14.6343612 3.48843718 14.784141 3.65623542 14.8017621 3.62974096 15.1982379 2.80841271 15.4449339 2.28735501 15.6563877 1.95175852 15.7356828 1.95175852 15.9207048 1.95175852 16.2114537 2.11955676 16.2114537 2.21670312 16.2114537 2.26086055 16.30837 2.50814217 16.4229075 2.76425528 16.5374449 3.02036839 16.722467 3.43544826 16.8281938 3.67389839 16.9339207 3.92118002 17.0748899 4.23911353 17.1365639 4.38041731 17.4977974 5.18408259 17.5242291 5.29006043 17.3832599 5.34304934 17.1982379 5.41370124 16.7136564 5.40486975 16.5991189 5.32538637 16.4933921 5.26356597 16.0352423 4.21261907 16.0352423 4.03598934 16.0352423 3.98300042 16 3.88585407 15.9559471 3.81520218 15.8237885 3.6032465 15.6387665 3.83286515 15.3656388 4.56587853 15.2246696 4.93680096 15.0396476 5.27239745 14.9515419 5.32538637 14.6255507 5.49318462 14.4052863 5.34304934 14.1938326 4.80432867 14.0792952 4.5217211 13.9207048 4.13313569 13.8325991 3.93884299L13.6740088 3.58558353 13.4801762 4.02715785C13.3656388 4.27443948 13.2422907 4.56587853 13.1982379 4.68951934 12.9603524 5.3077234 12.9162996 5.35188083 12.4933921 5.37837529 12.2731278 5.39603826 12.061674 5.36071232 12.0352423 5.31655489zM20.30837 5.32538637C19.4977974 5.03394732 19.1013216 4.49522664 19.1013216 3.67389839 19.1013216 2.63178298 19.7444934 2.0312419 20.8722467 2.00474744 21.1894273 2.00474744 21.6035242 2.0312419 21.7885463 2.06656785 22.0969163 2.13721974 22.1145374 2.15488271 22.1145374 2.48164771 22.1145374 2.87023312 22.1057269 2.87906461 21.5594714 2.72892933 21.0748899 2.60528852 20.7400881 2.6847719 20.4229075 3.02919988 20.2290749 3.24115555 20.1762115 3.37362785 20.1762115 3.69156137 20.1762115 4.04482083 20.2202643 4.13313569 20.5022026 4.39808029 20.7929515 4.68068786 20.8546256 4.69835083 21.2687225 4.66302488 21.5154185 4.64536191 21.8061674 4.59237299 21.9207048 4.55704704 22.0969163 4.49522664 22.1145374 4.5217211 22.1145374 4.80432867 22.1145374 4.97212691 22.0528634 5.15758813 21.9735683 5.21940853 21.8237885 5.35188083 20.5903084 5.42253272 20.30837 5.32538637z"/>
    <path fill-rule="nonzero" d="M23.876652,5.34304934 C22.9251101,4.9809584 22.6255507,4.56587853 22.6255507,3.66506691 C22.6255507,3.18816663 22.660793,3.06452582 22.907489,2.72009785 C23.2687225,2.20787163 23.7004405,2.01357893 24.4669604,2.01357893 C25.3744493,2.01357893 25.9118943,2.33151244 26.2026432,3.04686285 C26.5022026,3.77104474 26.2907489,4.53055258 25.6299559,5.06044178 C25.3568282,5.28122894 25.215859,5.32538637 24.660793,5.36071232 C24.2995595,5.37837529 23.9471366,5.3695438 23.876652,5.34304934 Z M24.8986784,4.66302488 C25.1013216,4.48639515 25.1453744,4.36275434 25.1806167,3.92118002 C25.2334802,3.22349258 25.0837004,2.78191825 24.7400881,2.60528852 C24.1674009,2.30501798 23.7004405,2.80841271 23.7004405,3.71805583 C23.7004405,4.68068786 24.3171806,5.16641961 24.8986784,4.66302488 Z"/>
    <path d="M28.5638767,5.31655489 C28.3700441,5.19291407 28.4581498,2.88789609 28.660793,2.49931069 C28.9515419,1.96942149 29.7092511,1.80162325 30.3524229,2.12838825 C30.660793,2.28735501 30.7136564,2.2961865 30.8017621,2.17254568 C30.8722467,2.08423082 31.0484581,2.04007339 31.3568282,2.04007339 L31.8061674,2.04007339 L31.814978,2.8172442 C31.814978,3.24115555 31.8325991,3.92118002 31.8502203,4.33625988 C31.8942731,5.34304934 31.876652,5.39603826 31.4273128,5.39603826 C31.2246696,5.39603826 31.0132159,5.36071232 30.9515419,5.32538637 C30.8898678,5.29006043 30.845815,4.86614907 30.8193833,4.14196718 C30.7929515,3.09102028 30.784141,3.0115369 30.5814978,2.84373866 C30.4493392,2.72892933 30.246696,2.65827744 30.0352423,2.65827744 C29.5506608,2.65827744 29.4801762,2.84373866 29.4273128,4.20378758 L29.3832599,5.35188083 L29.030837,5.37837529 C28.8370044,5.38720678 28.6255507,5.36071232 28.5638767,5.31655489 Z"/>
  </g>
</svg>
