<?xml version="1.0" encoding="UTF-8"?>
<svg width="132px" height="120px" viewBox="0 0 132 120" version="1.1" xmlns="http://www.w3.org/2000/svg" xmlns:xlink="http://www.w3.org/1999/xlink">
    <title>mail</title>
    <g id="Page-1" stroke="none" stroke-width="1" fill="none" fill-rule="evenodd">
        <g id="mail" fill="#FFB01A" fill-rule="nonzero">
            <path d="M130.664531,48.7330078 C129.857062,48.3854766 128.919914,48.5546398 128.281828,49.1620078 L92.9455313,82.8153047 C92.5054453,83.2355391 92.2569141,83.8207734 92.263485,84.4299844 C92.2703203,85.0394531 92.5299375,85.6179844 92.9785313,86.0315156 L128.312766,118.378219 C128.728617,118.756688 129.261,118.954687 129.799828,118.954687 C130.099148,118.954687 130.400531,118.895391 130.686445,118.767773 C131.485148,118.415859 131.999742,117.625922 131.999742,116.754773 L131.999742,50.7547734 C131.999742,49.8769219 131.476383,49.0805391 130.664531,48.7330078 Z M127.599914,111.758625 L97.6887656,84.3750703 L127.599914,55.8893672 L127.599914,111.758625 Z" id="Shape"></path>
            <path d="M94.5999141,0.1546875 L2.19991406,0.1546875 C0.985617187,0.1546875 0,1.14030469 0,2.35485937 L0,68.3548594 C0,69.5691562 0.985617187,70.5547734 2.19991406,70.5547734 L94.5999141,70.5547734 C95.8142109,70.5547734 96.7998282,69.5714766 96.7998282,68.3548594 L96.7998282,2.35485938 C96.7998282,1.14030469 95.8144687,0.1546875 94.5999141,0.1546875 Z M92.4,66.1546875 L4.40008594,66.1546875 L4.40008594,4.55477344 L92.4,4.55477344 L92.4,66.1546875 Z" id="Shape"></path>
            <path d="M96.6415312,1.53630469 C96.3092109,0.702539062 95.4996797,0.1546875 94.5999141,0.1546875 L2.19991406,0.1546875 C1.30014844,0.1546875 0.490617187,0.704601562 0.158296875,1.53836719 C-0.176085938,2.37445312 0.0306796875,3.32707031 0.681914062,3.94736719 L46.8819141,47.9474531 C47.3065312,48.3522188 47.8543828,48.5546016 48.3999141,48.5546016 C48.9454453,48.5546016 49.4932969,48.3545391 49.9158516,47.9474531 L96.1158516,3.94736719 C96.7670859,3.32500781 96.9759141,2.37239062 96.6415312,1.53630469 Z M48.3999141,43.3186875 L7.70008594,4.55477344 L89.1,4.55477344 L48.3999141,43.3186875 Z" id="Shape"></path>
            <path d="M95.4666797,0.33515625 C94.6571484,-0.012375 93.72,0.1546875 93.0819141,0.761835938 L57.7456172,34.4153906 C57.3055313,34.835625 57.057,35.4208594 57.0635709,36.0300703 C57.0704062,36.6395391 57.3300234,37.2180703 57.7786172,37.6316016 L93.1128516,69.9783047 C93.5287031,70.3567734 94.0610859,70.5547734 94.5999141,70.5547734 C94.8992344,70.5547734 95.2006172,70.4954766 95.4865312,70.3678594 C96.2852344,70.0159453 96.7998282,69.2260078 96.7998282,68.3548594 L96.7998282,2.35485937 C96.7998282,1.47700781 96.2764687,0.680625 95.4666797,0.33515625 Z M92.4,63.3587109 L62.4888516,35.9751562 L92.4,7.48971094 L92.4,63.3587109 Z" id="Shape"></path>
            <path d="M39.0521484,34.4130703 L3.71791406,0.76209375 C3.07982813,0.154725752 2.14061719,-0.0144375 1.33314844,0.33309375 C0.523617188,0.678304688 0,1.4746875 0,2.35485938 L0,68.3548594 C0,69.2283281 0.514851563,70.0180078 1.31329688,70.3678594 C1.59921094,70.4931563 1.90059375,70.5547734 2.19991406,70.5547734 C2.739,70.5547734 3.27138281,70.3567734 3.68491406,69.9783047 L39.0191484,37.6295391 C39.4700625,37.2180703 39.7276172,36.6372188 39.7341957,36.0280078 C39.7407656,35.4185391 39.4942969,34.8333047 39.0521484,34.4130703 Z M4.40008594,63.3607734 L4.40008594,7.48971094 L34.3112344,35.9774766 L4.40008594,63.3607734 Z" id="Shape"></path>
            <path d="M131.841703,49.9364766 C131.509383,49.1027109 130.699852,48.5548594 129.800086,48.5548594 L94.5999141,48.5548594 C93.3856172,48.5548594 92.4,49.5404766 92.4,50.7547734 L92.4,66.1546875 L55.8800859,66.1546875 C54.9803203,66.1546875 54.1707891,66.7046016 53.8364063,67.5363047 C53.5020234,68.3723906 53.7111094,69.3270703 54.3620859,69.947625 L82.0820859,96.347625 C82.5067031,96.7523906 83.0545547,96.9547734 83.6000859,96.9547734 C84.1456172,96.9547734 84.6934687,96.7547109 85.1160234,96.347625 L131.316023,52.3475391 C131.967,51.7249219 132.176086,50.7723047 131.841703,49.9364766 Z M83.6000859,91.7188594 L61.38,70.5547734 L94.5999141,70.5547734 C95.8142109,70.5547734 96.7998281,69.5691562 96.7998281,68.3548594 L96.7998281,52.9546875 L124.299914,52.9546875 L83.6000859,91.7188594 Z" id="Shape"></path>
            <path d="M129.800086,48.5548594 L94.5999141,48.5548594 C93.3856172,48.5548594 92.4,49.5404766 92.4,50.7547734 L92.4,66.1546875 L37.4000859,66.1546875 C36.1857891,66.1546875 35.2001719,67.1403047 35.2001719,68.3546016 L35.2001719,116.754516 C35.2001719,117.968813 36.1857891,118.95443 37.4000859,118.95443 L129.800086,118.95443 C131.014383,118.95443 132,117.971133 132,116.754516 L132,50.7545156 C132,49.5404766 131.014383,48.5548594 129.800086,48.5548594 Z M127.599914,114.554859 L39.6,114.554859 L39.6,70.5547734 L94.5999141,70.5547734 C95.8142109,70.5547734 96.7998281,69.5691562 96.7998281,68.3548594 L96.7998281,52.9546875 L127.599914,52.9546875 L127.599914,114.554859 Z" id="Shape"></path>
            <path d="M74.2523203,82.8132422 L57.3980859,66.7620938 C56.9889375,66.3727969 56.4454688,66.1549453 55.8800859,66.1549453 L37.4000859,66.1549453 C36.1857891,66.1549453 35.2001719,67.1405625 35.2001719,68.3548594 L35.2001719,116.754773 C35.2001719,117.628242 35.7150234,118.417922 36.5134688,118.767773 C36.7993828,118.89307 37.1007656,118.954688 37.4000859,118.954688 C37.9391719,118.954688 38.4715547,118.756688 38.8850859,118.378219 L74.2193203,86.0294531 C74.6702344,85.6179844 74.9277891,85.0371328 74.9343676,84.4279219 C74.9409375,83.8187109 74.6944688,83.2334766 74.2523203,82.8132422 Z M39.6,111.758625 L39.6,70.5547734 L54.9999141,70.5547734 L69.5111484,84.3750703 L39.6,111.758625 Z" id="Shape"></path>
            <path d="M129.800086,22.1548594 L110.000086,22.1548594 C108.785789,22.1548594 107.800172,23.1404766 107.800172,24.3547734 C107.800172,25.5690703 108.785789,26.5546875 110.000086,26.5546875 L129.800086,26.5546875 C131.014383,26.5546875 132,25.5690703 132,24.3547734 C132,23.1404766 131.014383,22.1548594 129.800086,22.1548594 Z" id="Path"></path>
            <path d="M123.200086,13.3546875 L103.400086,13.3546875 C102.185789,13.3546875 101.200172,14.3403047 101.200172,15.5546016 C101.200172,16.7688984 102.185789,17.7545156 103.400086,17.7545156 L123.200086,17.7545156 C124.414383,17.7545156 125.4,16.7688984 125.4,15.5546016 C125.4,14.3403047 124.414383,13.3546875 123.200086,13.3546875 Z" id="Path"></path>
            <path d="M123.200086,30.9547734 L103.400086,30.9547734 C102.185789,30.9547734 101.200172,31.9403906 101.200172,33.1546875 C101.200172,34.3689844 102.185789,35.3546016 103.400086,35.3546016 L123.200086,35.3546016 C124.414383,35.3546016 125.4,34.3689844 125.4,33.1546875 C125.4,31.9403906 124.414383,30.9547734 123.200086,30.9547734 Z" id="Path"></path>
            <path d="M21.9999141,92.5546875 L2.19991406,92.5546875 C0.985617187,92.5546875 0,93.5403047 0,94.7548594 C0,95.9694141 0.985617187,96.9547734 2.19991406,96.9547734 L21.9999141,96.9547734 C23.2142109,96.9547734 24.1998281,95.9691562 24.1998281,94.7548594 C24.1998281,93.5405625 23.2144687,92.5546875 21.9999141,92.5546875 Z" id="Path"></path>
            <path d="M28.5999141,101.354859 L8.79991406,101.354859 C7.58561719,101.354859 6.6,102.340477 6.6,103.554773 C6.6,104.76907 7.58561719,105.754688 8.79991406,105.754688 L28.5999141,105.754688 C29.8142109,105.754688 30.7998281,104.76907 30.7998281,103.554773 C30.7998281,102.340477 29.8144687,101.354859 28.5999141,101.354859 Z" id="Path"></path>
            <path d="M28.5999141,83.7547734 L8.79991406,83.7547734 C7.58561719,83.7547734 6.6,84.7403906 6.6,85.9546875 C6.6,87.1689844 7.58561719,88.1546016 8.79991406,88.1546016 L28.5999141,88.1546016 C29.8142109,88.1546016 30.7998281,87.1689844 30.7998281,85.9546875 C30.7998281,84.7403906 29.8144687,83.7547734 28.5999141,83.7547734 Z" id="Path"></path>
        </g>
    </g>
</svg>