<?xml version="1.0" encoding="UTF-8"?>
<svg width="132px" height="132px" viewBox="0 0 132 132" version="1.1" xmlns="http://www.w3.org/2000/svg" xmlns:xlink="http://www.w3.org/1999/xlink">
    <title>phone</title>
    <g id="Page-1" stroke="none" stroke-width="1" fill="none" fill-rule="evenodd">
        <g id="phone" fill="#FFB01A" fill-rule="nonzero">
            <path d="M83.5980234,0 C82.3837266,0 81.3981094,0.985617187 81.3981094,2.19991406 C81.3981094,3.41421094 82.3837266,4.39982812 83.5980234,4.39982812 C107.859727,4.39982812 127.598109,24.1382109 127.598109,48.3999141 C127.598109,49.6142109 128.583727,50.5998281 129.798023,50.5998281 C131.014641,50.5998281 131.997938,49.6142109 131.997938,48.3999141 C131.997938,21.7119375 110.286258,0 83.5980234,0 Z" id="Path"></path>
            <path d="M83.5980234,13.2 C82.3837266,13.2 81.3981094,14.1856172 81.3981094,15.3999141 C81.3981094,16.6142109 82.3837266,17.5998281 83.5980234,17.5998281 C100.581938,17.5998281 114.398109,31.4157422 114.398109,48.3999141 C114.398109,49.6142109 115.383727,50.5998281 116.598023,50.5998281 C117.814641,50.5998281 118.797938,49.6142109 118.797938,48.3999141 C118.797938,28.9917891 103.008469,13.2 83.5980234,13.2 Z" id="Path"></path>
            <path d="M83.5980234,26.4 C82.3837266,26.4 81.3981094,27.3856172 81.3981094,28.5999141 C81.3981094,29.8142109 82.3837266,30.7998281 83.5980234,30.7998281 C93.3023438,30.7998281 101.198109,38.6955938 101.198109,48.3999141 C101.198109,49.6142109 102.183727,50.5998281 103.398023,50.5998281 C104.614641,50.5998281 105.597938,49.6142109 105.597938,48.3999141 C105.597938,36.2693203 95.7286172,26.4 83.5980234,26.4 Z" id="Path"></path>
            <path d="M119.048789,82.5551719 C113.062641,81.7675547 107.160023,80.2980234 101.505937,78.1924688 C96.0302578,76.1397656 89.8084687,77.4641484 85.6417031,81.576 L78.6874687,88.5147656 C64.1058516,79.9172344 51.9244687,67.7600859 43.3070859,53.2070859 L50.2657031,46.2639375 C54.3796172,42.1126406 55.7083828,35.8975547 53.6515547,30.4350234 C51.541875,24.7899609 50.0700234,18.9004922 49.2780234,12.9053203 C48.2240859,5.47361719 41.7890859,-0.0286171875 34.2674062,-0.000111113611 L15.0196406,-0.000111113611 C14.5707891,-0.000111113611 14.1219375,0.0219140625 13.6777266,0.0616171875 C9.68008594,0.422554688 6.06117188,2.31670313 3.48923438,5.39240625 C0.917554688,8.47017188 -0.301382812,12.3641719 0.0639375,16.3922344 C2.19578906,36.4299375 9.12578906,55.9592344 20.092875,72.8552344 C30.0501094,88.4928516 43.5955781,102.011766 59.2484062,111.93832 C76.1137266,122.854617 95.5901719,129.769406 115.616789,131.940703 C116.070023,131.980406 116.52532,132 116.982937,132 C116.996086,132 117.009234,132 117.024703,132 C125.314406,131.96468 132.028617,125.206383 131.995617,116.940914 L131.995617,97.7591484 C132.169641,90.1539375 126.616617,83.6199375 119.048789,82.5551719 Z M127.595789,97.68 C127.595789,97.6975312 127.595789,97.7173828 127.595789,97.7349141 L127.595789,116.952 C127.617703,122.799703 122.868023,127.578 117.009492,127.602234 C116.666344,127.589086 116.336344,127.589086 116.045789,127.562531 C96.7431094,125.468063 77.9284687,118.788914 61.6200234,108.233297 C46.492875,98.6390625 33.4161094,85.5885938 23.7932578,70.4745938 C13.1912344,54.1421719 6.4989375,35.2793203 4.44185156,15.9611719 C4.18661719,13.1407031 5.0469375,10.390875 6.86632031,8.2149375 C8.68570313,6.039 11.2442344,4.69940625 14.0734688,4.44417188 C14.388,4.41555469 14.7027891,4.40008594 15.0193828,4.40008594 L34.287,4.40008594 C34.3223203,4.40008594 34.3573828,4.40008594 34.3927031,4.40008594 C39.6639375,4.40008594 44.1805547,8.30517188 44.9173828,13.5013828 C45.7511484,19.8043828 47.3021484,26.0215313 49.5306797,31.9813828 C50.985,35.8444453 50.0455313,40.2357656 47.1479766,43.1596172 L38.9992969,51.2907656 C38.2952109,51.9925313 38.1500625,53.0750859 38.6406797,53.9374688 C47.9642109,70.3054688 61.5625313,83.8751719 77.9591484,93.1788516 C78.8215313,93.6694688 79.8994453,93.5199375 80.5991484,92.8225547 L88.7390625,84.7001719 C91.6804453,81.7984922 96.0869766,80.8634063 99.9634453,82.3154063 C105.929742,84.5374922 112.157977,86.0884922 118.452211,86.9155547 C123.798469,87.6678516 127.729852,92.2945547 127.595789,97.68 Z" id="Shape"></path>
            <path d="M33.0002578,8.80017187 L15.0196406,8.80017187 C14.8347891,8.80017187 14.6522578,8.8089375 14.4697266,8.82646875 C12.2280469,9.02885156 10.8572578,10.3003828 10.2413437,11.0374687 C9.74634375,11.6291484 8.61557812,13.2440859 8.81357812,15.4617891 C9.64528125,23.2652578 11.149875,30.8573203 13.2904922,38.0294062 C13.5764062,38.9820234 14.449875,39.6002578 15.3981094,39.6002578 C15.6071953,39.6002578 15.8183437,39.5716406 16.0294922,39.5079609 C17.1932578,39.1604297 17.8555781,37.9350469 17.5077891,36.7712812 C15.4442578,29.8588125 13.9922578,22.5328125 13.1935547,15.0330469 C13.1430234,14.4743672 13.5060234,13.9925156 13.6181719,13.8561328 C13.7986406,13.6406016 14.2010859,13.2688359 15.0196406,13.2005156 L32.995875,13.2005156 C32.9981953,13.2005156 32.9981953,13.2005156 32.9981953,13.2005156 C34.2124922,13.2005156 35.1981126,12.2172187 35.1981126,11.0026641 C35.2001719,9.78785156 34.2145547,8.80017187 33.0002578,8.80017187 Z" id="Path"></path>
            <path d="M120.997852,96.8000859 C119.783555,96.8000859 118.797937,97.7857031 118.797937,99 L118.795617,116.94968 C118.797937,117.44468 118.608703,117.911062 118.263234,118.258594 C117.917766,118.606125 117.460148,118.79768 117.024703,118.799742 L116.82232,118.795359 C109.305023,117.979125 102.040641,116.531508 95.2315547,114.492211 C94.0721719,114.142359 92.8424062,114.80468 92.4925547,115.968445 C92.1427031,117.132211 92.8050234,118.357594 93.9687891,118.707445 C101.033109,120.823828 108.563555,122.324297 116.386875,123.173531 C116.567344,123.191063 116.934727,123.199828 116.987578,123.199828 C118.653047,123.193125 120.214875,122.539828 121.387664,121.358531 C122.560195,120.174914 123.202664,118.604062 123.195961,116.940914 L123.198023,99 C123.198023,97.7857031 122.212406,96.8000859 120.997852,96.8000859 Z" id="Path"></path>
        </g>
    </g>
</svg>