<svg xmlns="http://www.w3.org/2000/svg" width="20" height="20" viewBox="0 0 20 20">
  <path fill="#FFF" d="M10,0 C4.48601563,0 0,4.48601563 0,10 C0,15.5139844 4.48601563,20 10,20 C15.5139844,20 20,15.5139844 20,10 C20,4.48601562 15.5139844,0 10,0 Z M6.74871094,1.93546875 C6.1459375,2.75703125 5.69816406,3.729375 5.3778125,4.68367187 C4.79550781,4.47492187 4.25644531,4.22523437 3.7721875,3.93796875 C4.60839844,3.07917969 5.62,2.3921875 6.74871094,1.93546875 Z M2.92554687,4.94929687 C3.54941406,5.33851562 4.25507812,5.67007812 5.02125,5.93824219 C4.76863281,7.00597656 4.6171875,8.15742188 4.57664062,9.34777344 L1.32875,9.34777344 C1.4503125,7.71582031 2.024375,6.20792969 2.92554687,4.94929687 Z M2.92550781,15.0506641 C2.024375,13.7921094 1.45027344,12.2841797 1.32871094,10.6521875 L4.5765625,10.6521875 C4.61710938,11.8425781 4.76855469,12.9939844 5.02117188,14.0617188 C4.25503906,14.3298828 3.54945313,14.6614453 2.92550781,15.0506641 Z M3.77222656,16.0619922 C4.25648438,15.7747266 4.79554687,15.5250391 5.37785156,15.3162891 C5.69816406,16.2705078 6.1459375,17.2428516 6.74875,18.0644922 C5.62,17.6078125 4.60839844,16.9208203 3.77222656,16.0619922 Z M9.3478125,18.5752344 C8.00101562,18.0809375 7.093125,16.3103125 6.62832031,14.9463672 C7.48148437,14.7433203 8.39769531,14.6185938 9.3478125,14.5791797 L9.3478125,18.5752344 Z M9.3478125,13.2739453 C8.27738281,13.3153906 7.24097656,13.4578516 6.27316406,13.6927734 C6.05347656,12.7427344 5.92011719,11.7167188 5.88140625,10.6521484 L9.3478125,10.6521484 L9.3478125,13.2739453 L9.3478125,13.2739453 Z M9.3478125,9.3478125 L5.88140625,9.3478125 C5.92007813,8.28324219 6.0534375,7.25726562 6.27316406,6.3071875 C7.24097656,6.54210937 8.27738281,6.68457031 9.3478125,6.72601562 L9.3478125,9.3478125 L9.3478125,9.3478125 Z M9.3478125,5.42082031 C8.39773437,5.38144531 7.48152344,5.25664062 6.62832031,5.05363281 C7.09277344,3.69058594 8.000625,1.91917969 9.3478125,1.42476562 L9.3478125,5.42082031 Z M17.0744922,4.94933594 C17.975625,6.20789062 18.5497266,7.71582031 18.6712891,9.3478125 L15.4234375,9.3478125 C15.3828906,8.15742187 15.2314453,7.00601562 14.9788281,5.93828125 C15.7449609,5.67011719 16.4505469,5.33855469 17.0744922,4.94933594 Z M16.2277734,3.93800781 C15.7435156,4.22527344 15.2044531,4.47496094 14.6221484,4.68371094 C14.3018359,3.72949219 13.8540625,2.75714844 13.25125,1.93550781 C14.38,2.3921875 15.3916016,3.07917969 16.2277734,3.93800781 Z M10.6521875,1.42476562 C11.9989844,1.9190625 12.906875,3.6896875 13.3716797,5.05363281 C12.5185156,5.25667969 11.6023047,5.38140625 10.6521875,5.42082031 L10.6521875,1.42476562 Z M10.6521875,6.72605469 C11.7226172,6.68460938 12.7590234,6.54214844 13.7268359,6.30722656 C13.9465234,7.25726563 14.0798828,8.28328125 14.1185938,9.34785156 L10.6521875,9.34785156 L10.6521875,6.72605469 Z M10.6521875,10.6478125 L14.1185938,10.6478125 C14.0799219,11.7123828 13.9465625,12.7427344 13.7268359,13.6927734 C12.7590234,13.4578516 11.7226172,13.3153906 10.6521875,13.2739453 L10.6521875,10.6478125 Z M10.6521875,18.5752344 L10.6521875,14.5791797 C11.6022656,14.6185547 12.5184766,14.7433594 13.3716797,14.9463672 C12.9072266,16.309375 11.9993359,18.0807812 10.6521875,18.5752344 Z M13.2512891,18.0645313 C13.8540625,17.2429687 14.3018359,16.270625 14.6221875,15.3163281 C15.2044922,15.5250781 15.7435156,15.7747656 16.2278125,16.0620312 C15.3916016,16.9208203 14.38,17.6078125 13.2512891,18.0645313 Z M17.0744531,15.0507031 C16.4505859,14.6614844 15.7449219,14.3299219 14.97875,14.0617578 C15.2313672,12.9940234 15.3828125,11.8382422 15.4233594,10.6478906 L18.6712109,10.6478906 C18.5496875,12.2798437 17.975625,13.7920703 17.0744531,15.0507031 Z"/>
</svg>
