<?xml version="1.0" encoding="UTF-8"?>
<svg width="124px" height="132px" viewBox="0 0 124 132" version="1.1" xmlns="http://www.w3.org/2000/svg" xmlns:xlink="http://www.w3.org/1999/xlink">
    <title>live-chat</title>
    <g id="Page-1" stroke="none" stroke-width="1" fill="none" fill-rule="evenodd">
        <g id="live-chat" fill="#FFB01A" fill-rule="nonzero">
            <path d="M61.6171875,0 C32.9974219,0 8.8171875,23.1703828 8.8171875,50.6000859 L8.8171875,55.0001719 C8.8171875,56.2167891 9.80280469,57.2000859 11.0171016,57.2000859 L19.8170156,57.2000859 C21.0313125,57.2000859 22.0169297,56.2167891 22.0169297,55.0001719 L22.0169297,50.6000859 C22.0171875,30.6768516 40.5214219,13.2 61.6171875,13.2 C82.7129531,13.2 101.217188,30.6768516 101.217188,50.6000859 L101.217188,55.0001719 C101.217188,56.2167891 102.202805,57.2000859 103.417102,57.2000859 L112.217016,57.2000859 C113.431313,57.2000859 114.41693,56.2167891 114.41693,55.0001719 L114.41693,50.6000859 C114.41693,23.1703828 90.2369531,0 61.6171875,0 Z M110.017102,52.8 L105.617016,52.8 L105.617016,50.6000859 C105.617016,27.9422344 85.4671641,8.80017188 61.6169297,8.80017188 C37.7666953,8.80017188 17.6171016,27.9422344 17.6171016,50.6000859 L17.6171016,52.8 L13.2172734,52.8 L13.2172734,50.6000859 C13.2172734,25.5574687 35.3821875,4.40008594 61.6171875,4.40008594 C87.8521875,4.40008594 110.017102,25.5574687 110.017102,50.6000859 L110.017102,52.8 Z" id="Shape"></path>
            <path d="M66.0172734,114.399914 L57.2173594,114.399914 C52.3640391,114.399914 48.4174453,118.346766 48.4174453,123.199828 C48.4174453,128.052891 52.3640391,132 57.2171016,132 L66.0170156,132 C70.8703359,132 74.8169297,128.053148 74.8169297,123.200086 C74.8169297,118.347023 70.8703359,114.399914 66.0172734,114.399914 Z M66.0172734,127.599914 L57.2173594,127.599914 C54.7908281,127.599914 52.8172734,125.626617 52.8172734,123.199828 C52.8172734,120.773039 54.7905703,118.799742 57.2173594,118.799742 L66.0172734,118.799742 C68.4438047,118.799742 70.4173594,120.773039 70.4173594,123.199828 C70.4173594,125.626617 68.4438047,127.599914 66.0172734,127.599914 Z" id="Shape"></path>
            <path d="M107.817187,101.199914 C106.602891,101.199914 105.617273,102.183211 105.617273,103.399828 L105.617273,107.799914 C105.617273,115.079766 99.697125,120.999914 92.4172734,120.999914 L72.6172734,120.999914 C71.4029766,120.999914 70.4173594,121.983211 70.4173594,123.199828 C70.4173594,124.416445 71.4029766,125.399742 72.6172734,125.399742 L92.4172734,125.399742 C102.121594,125.399742 110.017359,117.503977 110.017359,107.799656 L110.017359,103.39957 C110.017359,102.183469 109.031484,101.199914 107.817187,101.199914 Z" id="Path"></path>
            <path d="M24.8750391,52.8 L5.95933594,52.8 C2.68357031,52.8 0.017015625,55.4662969 0.017015625,58.7423203 L0.017015625,99.6579375 C0.017015625,102.933703 2.6833125,105.600258 5.95933594,105.600258 L24.8750391,105.600258 C28.1508047,105.600258 30.8173594,102.933961 30.8173594,99.6579375 L30.8173594,58.7423203 C30.8173594,55.4662969 28.1508047,52.8 24.8750391,52.8 Z M26.4172734,99.6579375 C26.4172734,100.509234 25.7263359,101.200172 24.8750391,101.200172 L5.95933594,101.200172 C5.10803906,101.200172 4.41710156,100.509492 4.41710156,99.6579375 L4.41710156,58.7423203 C4.41710156,57.8910234 5.10803906,57.2000859 5.95933594,57.2000859 L24.8750391,57.2000859 C25.7263359,57.2000859 26.4172734,57.8907656 26.4172734,58.7423203 L26.4172734,99.6579375 Z" id="Shape"></path>
            <path d="M83.6171016,61.5999141 L39.6172734,61.5999141 C38.4029766,61.5999141 37.4173594,62.5832109 37.4173594,63.7998281 L37.4173594,103.399828 C37.4173594,104.288508 37.954125,105.093914 38.7747422,105.43268 C39.0475078,105.547148 39.3334219,105.6 39.6172734,105.6 C40.1893594,105.6 40.7524219,105.375703 41.1726562,104.955469 L53.728125,92.4 L83.6173594,92.4 C84.8316562,92.4 85.8172734,91.4167031 85.8172734,90.2000859 L85.8172734,63.8000859 C85.8172734,62.5834687 84.8316563,61.5999141 83.6171016,61.5999141 Z M81.4171875,87.9999141 L52.8172734,87.9999141 C52.2343594,87.9999141 51.6733594,88.2309141 51.2618906,88.6444453 L41.8171875,98.0891484 L41.8171875,66 L81.4171875,66 L81.4171875,87.9999141 L81.4171875,87.9999141 Z" id="Shape"></path>
            <path d="M70.4171016,70.4000859 L52.8170156,70.4000859 C51.6027187,70.4000859 50.6171016,71.3833828 50.6171016,72.6 C50.6171016,73.8166172 51.6027188,74.7999141 52.8170156,74.7999141 L70.4171016,74.7999141 C71.6313984,74.7999141 72.6170157,73.8166172 72.6170157,72.6 C72.6172734,71.3833828 71.6316563,70.4000859 70.4171016,70.4000859 Z" id="Path"></path>
            <path d="M74.8171875,79.2 L48.4171875,79.2 C47.2028906,79.2 46.2172734,80.1832969 46.2172734,81.3999141 C46.2172734,82.6165312 47.2028906,83.5998281 48.4171875,83.5998281 L74.8171875,83.5998281 C76.0314844,83.5998281 77.0171016,82.6165312 77.0171016,81.3999141 C77.0171016,80.1832969 76.0314844,79.2 74.8171875,79.2 Z" id="Path"></path>
            <path d="M19.8172734,77.0000859 L11.0171016,77.0000859 C9.80280469,77.0000859 8.8171875,77.9833828 8.8171875,79.2 C8.8171875,80.4166172 9.80280469,81.3999141 11.0171016,81.3999141 L19.8170156,81.3999141 C21.0313125,81.3999141 22.0169297,80.4166172 22.0169297,79.2 C22.0169297,77.9833828 21.0315703,77.0000859 19.8172734,77.0000859 Z" id="Path"></path>
            <path d="M19.8172734,66 L11.0171016,66 C9.80280469,66 8.8171875,66.9832969 8.8171875,68.1999141 C8.8171875,69.4165312 9.80280469,70.3998281 11.0171016,70.3998281 L19.8170156,70.3998281 C21.0313125,70.3998281 22.0169297,69.4165312 22.0169297,68.1999141 C22.0169297,66.9832969 21.0315703,66 19.8172734,66 Z" id="Path"></path>
            <path d="M19.8172734,87.9999141 L11.0171016,87.9999141 C9.80280469,87.9999141 8.8171875,88.9832109 8.8171875,90.1998281 C8.8171875,91.4164453 9.80280469,92.3997422 11.0171016,92.3997422 L19.8170156,92.3997422 C21.0313125,92.3997422 22.0169297,91.4164453 22.0169297,90.1998281 C22.0169297,88.9832109 21.0315703,87.9999141 19.8172734,87.9999141 Z" id="Path"></path>
            <path d="M117.275039,52.8 L98.3593359,52.8 C95.0835703,52.8 92.4170156,55.4662969 92.4170156,58.7423203 L92.4170156,99.6579375 C92.4170156,102.933703 95.0833125,105.600258 98.3593359,105.600258 L117.275039,105.600258 C120.550805,105.600258 123.217359,102.933961 123.217359,99.6579375 L123.217359,58.7423203 C123.217359,55.4662969 120.550805,52.8 117.275039,52.8 Z M118.817273,99.6579375 C118.817273,100.509234 118.126336,101.200172 117.275039,101.200172 L98.3593359,101.200172 C97.5080391,101.200172 96.8171016,100.509492 96.8171016,99.6579375 L96.8171016,58.7423203 C96.8171016,57.8910234 97.5077812,57.2000859 98.3593359,57.2000859 L117.275039,57.2000859 C118.126336,57.2000859 118.817273,57.8907656 118.817273,58.7423203 L118.817273,99.6579375 Z" id="Shape"></path>
            <path d="M112.217273,77.0000859 L103.417359,77.0000859 C102.203063,77.0000859 101.217445,77.9833828 101.217445,79.2 C101.217445,80.4166172 102.203062,81.3999141 103.417359,81.3999141 L112.217273,81.3999141 C113.43157,81.3999141 114.417187,80.4166172 114.417187,79.2 C114.417187,77.9833828 113.43157,77.0000859 112.217273,77.0000859 Z" id="Path"></path>
            <path d="M112.217273,66 L103.417359,66 C102.203063,66 101.217445,66.9832969 101.217445,68.1999141 C101.217445,69.4165312 102.203062,70.3998281 103.417359,70.3998281 L112.217273,70.3998281 C113.43157,70.3998281 114.417187,69.4165312 114.417187,68.1999141 C114.417187,66.9832969 113.43157,66 112.217273,66 Z" id="Path"></path>
            <path d="M112.217273,87.9999141 L103.417359,87.9999141 C102.203063,87.9999141 101.217445,88.9832109 101.217445,90.1998281 C101.217445,91.4164453 102.203062,92.3997422 103.417359,92.3997422 L112.217273,92.3997422 C113.43157,92.3997422 114.417187,91.4164453 114.417187,90.1998281 C114.417187,88.9832109 113.43157,87.9999141 112.217273,87.9999141 Z" id="Path"></path>
        </g>
    </g>
</svg>