<svg xmlns="http://www.w3.org/2000/svg" width="159" height="20" viewBox="0 0 159 20">
  <g fill="none" fill-rule="evenodd">
    <path fill="#8CB849" fill-rule="nonzero" d="M131.28737,6.63977655 C131.326843,6.63977655 131.366514,6.65306603 131.404541,6.67907262 C131.111712,6.81596083 130.797804,7.16069781 130.665225,7.84918493 C130.471468,7.90879022 130.282099,7.96701392 130.107014,8.02089552 C130.26229,7.49576373 130.631014,6.63978971 131.28737,6.63978971 L131.28737,6.63977655 M131.558883,6.89503981 C131.615067,7.03490829 131.65158,7.23563205 131.65158,7.50648742 C131.65158,7.52036901 131.651514,7.53300059 131.651383,7.54582954 C131.428949,7.61425062 131.18737,7.68852697 130.945198,7.76306647 C131.081185,7.24181626 131.336054,6.99003985 131.558883,6.89503981 M132.232962,7.36707947 C132.131449,7.3982637 132.01612,7.43372424 131.891054,7.47221109 C131.891186,7.44826372 131.891186,7.42471107 131.891186,7.39898738 C131.891186,7.17451361 131.859936,6.99378985 131.809541,6.85056611 C132.011712,6.87576349 132.146317,7.10418463 132.232962,7.36707947 M133.874081,7.76661911 C133.869147,7.73122436 133.837963,7.71168487 133.812173,7.70951382 C133.78645,7.70740856 133.241844,7.66727696 133.241844,7.66727696 C133.241844,7.66727696 132.86362,7.29431629 132.822173,7.25306627 C132.780594,7.21181625 132.699475,7.22431626 132.668028,7.23352679 C132.663357,7.23490837 132.585331,7.25878996 132.456317,7.29846102 C132.329936,6.93734246 132.106975,6.60548706 131.714738,6.60548706 C131.703949,6.60548706 131.692765,6.60593443 131.681646,6.60655943 C131.570067,6.46001332 131.431843,6.39634882 131.312501,6.39634882 C130.398672,6.39634882 129.962159,7.53102691 129.825251,8.10767187 C129.470185,8.21694823 129.217915,8.29464563 129.185704,8.30471143 C128.987454,8.36642198 128.98125,8.37267198 128.955237,8.55813258 C128.935599,8.69859316 128.417007,12.6822132 128.417007,12.6822132 L132.458028,13.434253 L134.647634,12.9637922 C134.647634,12.9637922 133.879015,7.80207965 133.874147,7.7666849 L133.874081,7.76661911"/>
    <path fill="#5A873E" d="M133.812001,7.70968461 C133.786277,7.70751356 133.241671,7.66744775 133.241671,7.66744775 C133.241671,7.66744775 132.863448,7.29448708 132.821934,7.25323706 C132.806408,7.23784232 132.785487,7.22994758 132.763513,7.22659231 L132.457987,13.4344237 L134.64733,12.963963 C134.64733,12.963963 133.878711,7.80225044 133.873843,7.76685569 C133.868974,7.73146093 133.83779,7.71185566 133.812001,7.7097504"/>
    <path fill="#FFFFFE" d="M131.714106,8.91131588 L131.444172,9.70901357 C131.444172,9.70901357 131.207593,9.58361878 130.917632,9.58361878 C130.492553,9.58361878 130.471152,9.84861889 130.471152,9.91539523 C130.471152,10.2796717 131.427198,10.419277 131.427198,11.2726984 C131.427198,11.9440802 130.998514,12.3764488 130.420494,12.3764488 C129.726744,12.3764488 129.372073,11.9475671 129.372073,11.9475671 L129.557803,11.3380274 C129.557803,11.3380274 129.922428,11.6490143 130.230106,11.6490143 C130.431086,11.6490143 130.512941,11.4917774 130.512941,11.376909 C130.512941,10.9016456 129.728533,10.8804614 129.728533,10.09954 C129.728533,9.44230293 130.203415,8.80625005 131.162132,8.80625005 C131.531541,8.80625005 131.714041,8.91131588 131.714041,8.91131588"/>
    <path fill="#000" fill-rule="nonzero" d="M137.199027,10.4071591 C136.980672,10.2894617 136.868369,10.1902511 136.868369,10.0539353 C136.868369,9.88038258 137.024356,9.76886938 137.267645,9.76886938 C137.551067,9.76886938 137.804225,9.88663259 137.804225,9.88663259 L138.003896,9.27926392 C138.003896,9.27926392 137.820277,9.13676386 137.280145,9.13676386 C136.528369,9.13676386 136.007382,9.56432983 136.007382,10.1655143 C136.007382,10.5063039 136.250671,10.7666329 136.575145,10.9524883 C136.837185,11.1011726 136.930737,11.2065673 136.930737,11.3615016 C136.930737,11.5226859 136.799751,11.6527517 136.556395,11.6527517 C136.193961,11.6527517 135.851395,11.4668306 135.851395,11.4668306 L135.63929,12.0741993 C135.63929,12.0741993 135.95554,12.2848572 136.487777,12.2848572 C137.261461,12.2848572 137.816725,11.9068308 137.816725,11.2251858 C137.816725,10.8595277 137.535935,10.5992645 137.199027,10.4071591 M140.281133,9.13051386 C139.900541,9.13051386 139.601133,9.31025078 139.370278,9.58288246 L139.357778,9.57669825 L139.688436,7.86011862 L138.827449,7.86011862 L137.991396,12.2291335 L138.852383,12.2291335 L139.139423,10.7356461 C139.251725,10.1716985 139.544949,9.82465888 139.819423,9.82465888 C140.012844,9.82465888 140.087778,9.95472472 140.087778,10.1407116 C140.087778,10.2584091 140.075212,10.4009749 140.050278,10.5187381 L139.72587,12.2291993 L140.586923,12.2291993 L140.923765,10.4630144 C140.9612,10.2770275 140.9862,10.0539353 140.9862,9.90525101 C140.9862,9.42182977 140.730344,9.13057965 140.281133,9.13057965 M142.508569,11.6342649 C142.215345,11.6342649 142.090542,11.38637 142.090542,11.0765673 C142.090542,10.5869618 142.346332,9.78748781 142.814292,9.78748781 C143.11995,9.78748781 143.219819,10.0478169 143.219819,10.3018959 C143.219819,10.8286067 142.963964,11.6342649 142.508634,11.6342649 L142.508569,11.6342649 M142.932779,9.13057965 C141.897121,9.13057965 141.210871,10.0601853 141.210871,11.0951199 C141.210871,11.7582781 141.622647,12.291173 142.396266,12.291173 C143.413174,12.291173 144.09949,11.38637 144.09949,10.3266328 C144.09949,9.71314567 143.737648,9.13057965 142.932779,9.13057965 M145.478372,11.6466333 C145.25482,11.6466333 145.12278,11.5227517 145.12278,11.5227517 L145.266267,10.7232777 C145.36607,10.1903827 145.646794,9.83709309 145.946333,9.83709309 C146.208307,9.83709309 146.289425,10.0788037 146.289425,10.3080801 C146.289425,10.8596593 145.958767,11.6466991 145.478372,11.6466991 L145.478372,11.6466333 M146.301925,9.13057965 C145.720873,9.13057965 145.391004,9.63873775 145.391004,9.63873775 L145.37857,9.63873775 L145.428438,9.18018493 L144.667319,9.18018493 C144.629885,9.49005348 144.561267,9.96104051 144.492583,10.3142643 L143.893635,13.4438709 L144.754688,13.4438709 L144.991793,12.1796598 L145.010477,12.1796598 C145.010477,12.1796598 145.187254,12.291173 145.515872,12.291173 C146.526597,12.291173 147.187913,11.2624884 147.187913,10.2213038 C147.187913,9.64498775 146.932123,9.13057965 146.301991,9.13057965 L146.301925,9.13057965 M148.416992,7.90353969 C148.142518,7.90353969 147.924163,8.12044767 147.924163,8.39932936 C147.924163,8.65340841 148.086334,8.82696111 148.329689,8.82696111 L148.342124,8.82696111 C148.610413,8.82696111 148.841269,8.64715841 148.847519,8.33117144 C148.847519,8.0832766 148.679032,7.90353969 148.416992,7.90353969"/>
    <polyline fill="#000" points="147.213 12.229 148.074 12.229 148.66 9.199 147.793 9.199 147.213 12.229"/>
    <path fill="#000" fill-rule="nonzero" d="M150.850448,9.19202704 L150.251501,9.19202704 L150.282685,9.0494612 C150.332619,8.75827687 150.50729,8.49794782 150.79433,8.49794782 C150.947554,8.49794782 151.068804,8.5413031 151.068804,8.5413031 L151.23729,7.87202652 C151.23729,7.87202652 151.087488,7.79768438 150.76933,7.79768438 C150.463606,7.79768438 150.157882,7.88446073 149.927027,8.08275028 C149.633869,8.33071091 149.496566,8.69011895 149.427948,9.0494612 L149.402948,9.19202704 L149.003671,9.19202704 L148.878934,9.83656678 L149.278211,9.83656678 L148.82275,12.228673 L149.683737,12.228673 L150.139198,9.83656678 L150.731896,9.83656678 L150.850448,9.19202704 M152.921831,9.19821126 C152.921831,9.19821126 152.383673,10.5452513 152.141962,11.2805147 L152.129528,11.2805147 C152.112949,11.0438041 151.917357,9.19821126 151.917357,9.19821126 L151.012685,9.19821126 L151.53058,11.9807782 C151.543014,12.0426861 151.53683,12.0799229 151.51183,12.123344 C151.411962,12.3154493 151.24354,12.5013705 151.043869,12.6376863 C150.881698,12.7554495 150.700777,12.8297917 150.55729,12.8793311 L150.79433,13.6043972 C150.969067,13.5672262 151.330909,13.4246603 151.636567,13.1395944 C152.029659,12.7740022 152.391501,12.2099888 152.765844,11.4415674 L153.820252,9.19821126 L152.921831,9.19821126"/>
    <path fill="#F7F7F7" d="M2.63158,0.132 L30.921065,0.132 C32.3744208,0.132 33.552645,1.31019784 33.552645,2.76358 L33.552645,17.23727 C33.552645,18.6906258 32.3744208,19.86885 30.921065,19.86885 L2.63158,19.86885 C1.17819784,19.86885 0,18.6906258 0,17.23727 L0,2.76358 C0,1.31019784 1.17819784,0.132 2.63158,0.132"/>
    <polyline fill="#26337A" points="13.921 13.141 14.953 6.866 16.602 6.866 15.571 13.141 13.921 13.141"/>
    <path fill="#26337A" fill-rule="nonzero" d="M21.5522423,7.02021065 C21.2261895,6.89428955 20.7133604,6.75698686 20.0745443,6.75698686 C18.444149,6.75698686 17.2965169,7.60843457 17.2869774,8.82771137 C17.2765827,9.72955384 18.1059251,10.2325804 18.7311885,10.5323173 C19.3737546,10.8395543 19.5896757,11.0361991 19.5871099,11.310936 C19.582702,11.7311336 19.074215,11.9236994 18.6000701,11.9236994 C17.9398724,11.9236994 17.5890828,11.8288968 17.0467142,11.5946204 L16.8346088,11.4947519 L16.6039508,12.8992262 C16.9884905,13.0739631 17.7013197,13.2256737 18.4411884,13.2336342 C20.1738865,13.2336342 21.299808,12.3924496 21.3129659,11.0904754 C21.3189527,10.3753436 20.8794789,9.83323809 19.9278338,9.38567212 C19.3515835,9.09475095 18.9978334,8.90198772 19.0019123,8.60751392 C19.0023071,8.34679013 19.3007282,8.06757949 19.9465838,8.06757949 C20.4859919,8.05909264 20.8764526,8.18119796 21.180729,8.30869801 L21.3288212,8.38040856 L21.5521765,7.02021065 M23.7480327,10.9160675 C23.8846774,10.5554094 24.4049408,9.16225098 24.4049408,9.16225098 C24.3953355,9.17882993 24.5408619,8.79882978 24.6241514,8.56363232 L24.7354673,9.10481675 C24.7354673,9.10481675 25.0519148,10.6023831 25.1170464,10.9160675 L23.7480327,10.9160675 M25.7825072,6.87257901 L24.5080988,6.87257901 C24.1128354,6.87257901 23.8169143,6.9835659 23.6437563,7.3927108 L21.194808,13.1427789 L22.9268481,13.1427789 C22.9268481,13.1427789 23.209414,12.369226 23.2735588,12.199489 C23.4625062,12.199489 25.1454674,12.2027127 25.3857307,12.2027127 C25.4351386,12.4216602 25.5865202,13.1427789 25.5865202,13.1427789 L27.117113,13.1427789 L25.7825072,6.87257901 M12.537765,6.87146059 L10.9236854,11.1490939 L10.7507906,10.2795541 C10.450001,9.27771155 9.51368486,8.19179007 8.46638181,7.6477109 L9.94302713,13.1350815 L11.688291,13.1340947 L14.2852657,6.87146059 L12.537765,6.87146059"/>
    <path fill="#EC982D" d="M9.42505377,6.86757901 L6.76577639,6.86757901 L6.74386849,6.99757906 C8.81314563,7.51731611 10.1822251,8.77185609 10.7505148,10.2799488 L10.1726199,7.39698712 C10.0729488,6.99935538 9.78321181,6.88152638 9.42505377,6.8676448"/>
    <path fill="#F7F7F7" d="M44.07858,0.132 L72.368065,0.132 C73.8214208,0.132 74.999645,1.31019784 74.999645,2.76358 L74.999645,17.23727 C74.999645,18.6906258 73.8214208,19.86885 72.368065,19.86885 L44.07858,19.86885 C42.6251978,19.86885 41.447,18.6906258 41.447,17.23727 L41.447,2.76358 C41.447,1.31019784 42.6251978,0.132 44.07858,0.132"/>
    <path fill="#C00" d="M60.2797423,10.1598185 C60.2797423,13.7052804 57.3483595,16.5790974 53.7321081,16.5790974 C50.1157251,16.5790974 47.1841449,13.7052804 47.1841449,10.1598185 C47.1841449,6.61442233 50.1157251,3.74034223 53.7321081,3.74034223 C57.3484253,3.74034223 60.2797423,6.61442233 60.2797423,10.1598185"/>
    <path fill="#F90" d="M62.5229763,3.74014487 C60.8307388,3.74014487 59.2893566,4.36942143 58.1271193,5.40172448 C57.8906718,5.61212588 57.6699481,5.83936939 57.466198,6.08133001 L58.789159,6.08133001 C58.969817,6.29700773 59.1363302,6.52374466 59.288304,6.7611987 L56.9669215,6.7611987 C56.8281056,6.97942248 56.7018556,7.20613309 56.5896845,7.4410674 L59.6654094,7.4410674 C59.770541,7.66113328 59.863041,7.88771231 59.9427121,8.12067293 L56.3123817,8.12067293 C56.2368554,8.3420546 56.1731054,8.56883101 56.1221843,8.80014689 L60.1327122,8.80014689 C60.2287649,9.23837075 60.2798833,9.69310777 60.2798833,10.1595553 C60.2798833,10.872253 60.1613964,11.5582401 59.9427121,12.1988325 L56.3123817,12.1988325 C56.3921186,12.4315299 56.4846186,12.6585037 56.5895529,12.8788327 L59.6654752,12.8788327 C59.5530409,13.1131749 59.4274488,13.3401487 59.2877777,13.5586356 L56.9669873,13.5586356 C57.1183689,13.795412 57.2851453,14.0224516 57.4662638,14.2378464 L58.7887643,14.2378464 C58.585409,14.4800176 58.3644878,14.7072545 58.1273167,14.9176493 C59.2894882,15.9499524 60.8307388,16.5788342 62.5229763,16.5788342 C66.139162,16.5788342 69.0706105,13.7050173 69.0706105,10.1595553 C69.0706105,6.61448812 66.139162,3.74007908 62.5229763,3.74007908"/>
    <path fill="#006" fill-rule="nonzero" d="M52.2033953,10.8632903 C52.1287901,10.8550009 52.0958953,10.8523035 52.0446453,10.8523035 C51.6417504,10.8523035 51.4380003,10.9878957 51.4380003,11.2555931 C51.4380003,11.4204616 51.5374082,11.5251985 51.6926715,11.5251985 C51.9822768,11.5251985 52.1909611,11.255001 52.2033953,10.8632246 L52.2033953,10.8632903 M52.7205008,12.043225 L52.1312901,12.043225 L52.1448427,11.768817 C51.9651716,11.9855276 51.7254346,12.0889487 51.3998424,12.0889487 C51.0147107,12.0889487 50.7505,11.794146 50.7505,11.3657248 C50.7505,10.7208561 51.2098423,10.3447375 51.9983953,10.3447375 C52.0792506,10.3447375 52.1824743,10.3520401 52.2882638,10.3651323 C52.3101717,10.277698 52.3159612,10.2405927 52.3159612,10.1934217 C52.3159612,10.0180926 52.1922111,9.95236893 51.8601715,9.95236893 C51.5124082,9.94894787 51.225566,10.0338163 51.1076712,10.0717769 C51.1151054,10.0277637 51.2062897,9.47618453 51.2062897,9.47618453 C51.5603688,9.37414501 51.7939873,9.3359871 52.0569479,9.3359871 C52.6674087,9.3359871 52.9908299,9.60460563 52.9901062,10.1124348 C52.9913562,10.2486848 52.9682641,10.4161191 52.9325404,10.637106 C52.8708956,11.020593 52.7384614,11.8430276 52.720435,12.0431592 L52.7205008,12.043225"/>
    <polyline fill="#006" points="50.452 12.043 49.742 12.043 50.149 9.54 49.24 12.043 48.755 12.043 48.695 9.554 48.267 12.043 47.602 12.043 48.157 8.787 49.18 8.787 49.242 10.609 49.865 8.787 51.002 8.787 50.452 12.043"/>
    <path fill="#006" fill-rule="nonzero" d="M63.4017412,10.8631853 C63.3271359,10.8548959 63.2946358,10.8521985 63.2435174,10.8521985 C62.8402936,10.8521985 62.6367408,10.9877907 62.6367408,11.2554881 C62.6367408,11.4203566 62.735754,11.5250935 62.891412,11.5250935 C63.18082,11.5250935 63.3896359,11.254896 63.4017412,10.8631196 L63.4017412,10.8631853 M63.9191098,12.04312 L63.3301622,12.04312 L63.3434517,11.768712 C63.1638463,11.9854226 62.9241752,12.0888437 62.5987145,12.0888437 C62.2130565,12.0888437 61.9492406,11.794041 61.9492406,11.3656198 C61.9492406,10.7207511 62.4087802,10.3446325 63.1971358,10.3446325 C63.2778595,10.3446325 63.3808859,10.3519351 63.4867412,10.3650273 C63.5087807,10.277593 63.5145044,10.2404877 63.5145044,10.1933167 C63.5145044,10.0179876 63.3907543,9.95226393 63.0586489,9.95226393 C62.7108856,9.94884287 62.424175,10.0337113 62.3058854,10.0716719 C62.3137802,10.0276587 62.4051618,9.47607953 62.4051618,9.47607953 C62.7590435,9.37404001 62.9928594,9.3358821 63.2554253,9.3358821 C63.8663466,9.3358821 64.1893073,9.60450063 64.1886494,10.1123298 C64.1898994,10.2485798 64.1670046,10.4160141 64.1310835,10.637001 C64.0696362,11.020488 63.9368729,11.8429226 63.9191098,12.0430542 L63.9191098,12.04312 M55.8796329,12.0028569 C55.6850275,12.0629227 55.5333827,12.0888437 55.368909,12.0888437 C55.0055536,12.0888437 54.8071982,11.8841726 54.8071982,11.5070672 C54.8021324,11.3900277 54.8595009,11.0821328 54.9045667,10.8012774 C54.9457509,10.5538431 55.2129221,8.99417144 55.2129221,8.99417144 L55.9193697,8.99417144 L55.8369355,9.39496107 L56.2637778,9.39496107 L56.1673961,10.0314745 L55.7391065,10.0314745 C55.657067,10.5349615 55.5400275,11.1623302 55.5387117,11.2454881 C55.5387117,11.3820013 55.612988,11.4416724 55.7821986,11.4416724 C55.8631855,11.4416724 55.9258829,11.4335803 55.9738434,11.4167382 L55.8796329,12.0027911 M58.0460153,11.9814095 C57.8032521,12.0541069 57.5693046,12.0896332 57.3210808,12.0888437 C56.5300279,12.0877911 56.1176593,11.6830541 56.1176593,10.9074617 C56.1176593,10.0023297 56.642199,9.33581631 57.3544361,9.33581631 C57.9369363,9.33581631 58.3091075,9.70890857 58.3091075,10.2939088 C58.3091075,10.4883826 58.283647,10.6778563 58.2218707,10.9452906 L56.8148306,10.9452906 C56.7673964,11.3294355 57.0179886,11.4894356 57.4293045,11.4894356 C57.6818704,11.4894356 57.91016,11.4383171 58.1637785,11.3229882 L58.0461469,11.9814095 L58.0460153,11.9814095 M57.6489099,10.4116062 C57.6529231,10.3562772 57.7237126,9.93884287 57.3198308,9.93884287 C57.0950939,9.93884287 56.9339754,10.1070008 56.8687122,10.4116062 L57.6489099,10.4116062 M53.1468686,10.2321982 C53.1468686,10.5668694 53.312395,10.7978564 53.688053,10.9714749 C53.9758163,11.1043039 54.020619,11.1435144 54.020619,11.2637776 C54.020619,11.4285803 53.8935137,11.5034488 53.6123951,11.5034488 C53.4001582,11.5034488 53.2029213,11.4708172 52.9754212,11.3987119 C52.9754212,11.3987119 52.8821317,11.9825937 52.8777238,12.0104884 C53.039237,12.0448306 53.1832502,12.0767385 53.6174609,12.0888437 C54.3674612,12.0888437 54.7139087,11.8088436 54.7139087,11.2037118 C54.7139087,10.8398959 54.5690402,10.6263431 54.2128559,10.4656852 C53.914961,10.331672 53.8804873,10.3016062 53.8804873,10.1780535 C53.8804873,10.0348955 53.9987769,9.96180341 54.2283822,9.96180341 C54.3679875,9.96180341 54.5584481,9.97640867 54.7392377,10.0014745 L54.8403561,9.3872637 C54.6563429,9.35857948 54.3771981,9.33581631 54.214698,9.33581631 C53.4195661,9.33581631 53.144237,9.74292174 53.1468028,10.2321982 M61.5033851,9.40568476 C61.7008194,9.40568476 61.8852274,9.45601373 62.1386485,9.5815401 L62.2550302,8.87482929 C62.1505564,8.8346319 61.7841089,8.59917128 61.4737141,8.59917128 C60.9981876,8.59917128 60.5956216,8.8308819 60.3129899,9.212461 C59.9003582,9.07851358 59.7305555,9.34917158 59.5227264,9.61904011 L59.3380553,9.66121118 C59.3520027,9.57246114 59.3647658,9.48430321 59.3606869,9.39496107 L58.7075945,9.39496107 C58.6185813,10.214764 58.460555,11.0448301 58.3369365,11.8648963 L58.3045023,12.0429884 L59.0156868,12.0429884 C59.134371,11.2868039 59.1993053,10.8027906 59.238779,10.4748957 L59.506608,10.3294351 C59.5468712,10.1832509 59.6717397,10.1341719 59.9229898,10.1401587 C59.8901608,10.3127904 59.8723976,10.4946984 59.8723976,10.6828563 C59.8723976,11.549304 60.349832,12.0887121 61.1147008,12.0887121 C61.3118061,12.0887121 61.4810825,12.0633832 61.7431879,11.9933832 L61.8677932,11.2514092 C61.6320694,11.3648961 61.4391088,11.4183829 61.2641087,11.4183829 C60.8508191,11.4183829 60.6007532,11.1192381 60.6007532,10.6250931 C60.6007532,9.90798759 60.9724639,9.40568476 61.5033851,9.40568476 M67.5217428,8.78686872 L67.3637164,9.72759279 C67.1697032,9.47693479 66.9608873,9.29528998 66.6852293,9.29528998 C66.3266107,9.29528998 66.0000975,9.56193482 65.7863474,9.95450077 C65.4886499,9.89397443 65.1810182,9.79101386 65.1810182,9.79101386 L65.1808208,9.79351386 C65.204505,9.57410588 65.2145708,9.44061899 65.2122024,9.39496107 L64.55911,9.39496107 C64.4704916,10.214764 64.3122678,11.0448301 64.1887151,11.8648963 L64.1560178,12.0429885 L64.8673996,12.0429885 C64.9633865,11.4318698 65.0367418,10.9238433 65.0908866,10.5214747 C65.3340446,10.3060141 65.4557551,10.1186456 65.7008868,10.1308166 C65.5921368,10.3887115 65.5287157,10.6855537 65.5287157,10.9900933 C65.5287157,11.6518041 65.8699658,12.0887779 66.3869397,12.0887779 C66.6474661,12.0887779 66.8474004,12.00062 67.0423347,11.796541 L67.0087821,12.0428569 L67.6813481,12.0428569 L68.2228615,8.78693451 L67.521677,8.78693451 L67.5217428,8.78686872 M66.6327951,11.4312777 C66.3908871,11.4312777 66.2683212,11.2553566 66.2683212,10.909238 C66.2683212,10.3887115 66.4973345,10.0197639 66.819703,10.0197639 C67.0639795,10.0197639 67.1964137,10.2019351 67.1964137,10.5383168 C67.1964137,11.063317 66.9635847,11.4312777 66.6327951,11.4312777"/>
    <polyline fill="#FFF" points="50.657 11.85 49.946 11.85 50.354 9.347 49.444 11.85 48.959 11.85 48.9 9.361 48.472 11.85 47.806 11.85 48.362 8.594 49.384 8.594 49.413 10.609 50.103 8.594 51.207 8.594 50.657 11.85"/>
    <path fill="#FFF" fill-rule="nonzero" d="M52.4080007,10.6704221 C52.333527,10.6618695 52.3005664,10.6595668 52.2493822,10.6595668 C51.8464215,10.6595668 51.6426057,10.7948958 51.6426057,11.0623959 C51.6426057,11.2270671 51.7421452,11.3324618 51.8974742,11.3324618 C52.186948,11.3324618 52.3956981,11.0621986 52.4080007,10.6704221 M52.9249746,11.8499621 L52.3360928,11.8499621 L52.3495138,11.5757514 C52.1699085,11.7923304 51.9301716,11.8959489 51.6045135,11.8959489 C51.219316,11.8959489 50.955237,11.6006856 50.955237,11.172396 C50.955237,10.5273957 51.414645,10.1518693 52.2032638,10.1518693 C52.2838559,10.1518693 52.3871454,10.1590403 52.4930007,10.1724614 C52.5149086,10.084764 52.5206981,10.0475271 52.5206981,10.0001587 C52.5206981,9.82496125 52.3969481,9.75976385 52.0649085,9.75976385 C51.7170136,9.7556849 51.4303029,9.84061915 51.3123424,9.87844811 C51.3199082,9.8346323 51.4109608,9.28305313 51.4109608,9.28305313 C51.7651057,9.18121099 51.99879,9.14272413 52.2617506,9.14272413 C52.8721456,9.14272413 53.1954352,9.41167161 53.1949089,9.91930339 C53.1960273,10.0553561 53.1731326,10.2236456 53.1373431,10.4439746 C53.0755668,10.8271985 52.9431325,11.6500935 52.9250404,11.8499621 L52.9249746,11.8499621 M62.4591889,8.6817371 L62.3427415,9.38831633 C62.0889256,9.26325049 61.905044,9.21259258 61.7078728,9.21259258 C61.1770832,9.21259258 60.8048462,9.71548752 60.8048462,10.4327246 C60.8048462,10.9268696 61.0550436,11.2254223 61.4683333,11.2254223 C61.6433991,11.2254223 61.8367545,11.172396 62.0719519,11.0584486 L61.9470835,11.8004226 C61.6853728,11.8703568 61.5160307,11.8958831 61.3189911,11.8958831 C60.5535961,11.8958831 60.0768853,11.3564092 60.0768853,10.4901589 C60.0768853,9.32614526 60.7358988,8.51265809 61.6780044,8.51265809 C61.9883993,8.51265809 62.3550442,8.64160551 62.4592547,8.68180289 M63.6059657,10.6704879 C63.5318867,10.6619353 63.4988604,10.6596326 63.447742,10.6596326 C63.0450444,10.6596326 62.841097,10.7949616 62.841097,11.0624617 C62.841097,11.2271329 62.9405049,11.3325276 63.0957023,11.3325276 C63.3851761,11.3325276 63.5940578,11.0622644 63.6059657,10.6704879 M64.1233343,11.8500278 L63.5344525,11.8500278 L63.5478078,11.5758172 C63.3682025,11.7923962 63.1283997,11.8959489 62.8030706,11.8959489 C62.4174126,11.8959489 62.1536625,11.6007514 62.1536625,11.172396 C62.1536625,10.5273957 62.6126758,10.1518693 63.4014919,10.1518693 C63.4820841,10.1518693 63.5851762,10.1591061 63.6909,10.1724614 C63.7129394,10.0848298 63.7187289,10.0475929 63.7187289,10.0002245 C63.7187289,9.82502703 63.5953078,9.75976385 63.263005,9.75976385 C62.9154391,9.75575069 62.6288601,9.84061915 62.5106363,9.8785139 C62.5181363,9.8346323 62.6092548,9.28311892 62.6092548,9.28311892 C62.9634654,9.18121099 63.1968866,9.14278992 63.4598472,9.14278992 C64.070308,9.14278992 64.393795,9.4117374 64.3930055,9.91936918 C64.3944529,10.0554219 64.3714265,10.2237114 64.3355713,10.4440404 C64.2740581,10.8271985 64.141558,11.6501593 64.1234001,11.8500278 L64.1233343,11.8500278 M56.0838574,11.8098305 C55.8894495,11.8698963 55.7376073,11.8959489 55.5733309,11.8959489 C55.2099097,11.8959489 55.0114228,11.6911462 55.0114228,11.3145013 C55.0064886,11.1970013 55.0639228,10.8896327 55.1091202,10.6085142 C55.1499755,10.3608825 55.4172782,8.8014082 55.4172782,8.8014082 L56.1239232,8.8014082 L56.0412258,9.20206626 L56.4040549,9.20206626 L56.3074101,9.8383823 L55.9434626,9.8383823 C55.8614231,10.3423299 55.7443836,10.9693038 55.7429362,11.0525275 C55.7429362,11.1895013 55.8175415,11.2487118 55.986489,11.2487118 C56.0675416,11.2487118 56.1301074,11.2408829 56.1782654,11.223646 L56.0838574,11.8098305 M58.2506346,11.7888436 C58.0078056,11.8617384 57.7733318,11.8961463 57.5253712,11.8959489 C56.7341866,11.8954226 56.322147,11.4901593 56.322147,10.7146984 C56.322147,9.80930334 56.8465551,9.14278992 57.5582659,9.14278992 C58.1413583,9.14278992 58.5133321,9.51594796 58.5133321,10.1015403 C58.5133321,10.2956193 58.4874768,10.4850273 58.4264242,10.7525274 L57.019121,10.7525274 C56.9714236,11.1367381 57.2223447,11.2970013 57.6332659,11.2970013 C57.8860292,11.2970013 58.1141872,11.2456855 58.3681347,11.1300276 L58.2505688,11.7888436 L58.2506346,11.7888436 M57.8533976,10.218514 C57.8572134,10.1631193 57.9283319,9.74581648 57.5245817,9.74581648 C57.2995816,9.74581648 57.1384631,9.91436918 57.0730026,10.218514 L57.8533976,10.218514 M53.3510274,10.0391061 C53.3510274,10.3744351 53.5168169,10.6048958 53.8925408,10.7786458 C54.180304,10.9113433 54.2249093,10.9506196 54.2249093,11.0709486 C54.2249093,11.2360144 54.0979356,11.3104882 53.8166197,11.3104882 C53.6045801,11.3104882 53.4072116,11.2781855 53.17958,11.2062776 C53.17958,11.2062776 53.0864878,11.7898305 53.0821457,11.8172647 C53.2435273,11.8520015 53.3876721,11.8836463 53.8216855,11.8958831 C54.5718831,11.8958831 54.9183306,11.6160146 54.9183306,11.0108828 C54.9183306,10.6469353 54.773199,10.4334483 54.4171462,10.2731851 C54.1191198,10.1387772 54.0849093,10.1090403 54.0849093,9.98529026 C54.0849093,9.8421323 54.2030672,9.76851385 54.4328699,9.76851385 C54.5721463,9.76851385 54.7628701,9.78371123 54.943528,9.80871124 L55.0447781,9.19463205 C54.8606333,9.16614519 54.5816858,9.14278992 54.4191199,9.14278992 C53.6237907,9.14278992 53.348659,9.55002692 53.3510274,10.0391719 M67.8859016,11.8500278 L67.2135329,11.8500278 L67.2468882,11.6036462 C67.0518223,11.8078568 66.8520196,11.8960147 66.5914274,11.8960147 C66.0749141,11.8960147 65.7330718,11.4595672 65.7330718,10.7971327 C65.7330718,9.91634286 66.2630062,9.17397414 66.889717,9.17397414 C67.165375,9.17397414 67.3741251,9.28430313 67.5685331,9.53509271 L67.7262305,8.59417128 L68.4272834,8.59417128 L67.8859016,11.8500278 M66.8371512,11.2381855 C67.1684013,11.2381855 67.4007699,10.870488 67.4007699,10.3459483 C67.4007699,10.009435 67.2684672,9.82667177 67.024125,9.82667177 C66.7016906,9.82667177 66.472809,10.1957509 66.472809,10.7164748 C66.472809,11.0629881 66.5954406,11.2381855 66.8371512,11.2381855 M64.7637951,9.20213205 C64.6749135,10.0217376 64.5168213,10.851738 64.3931371,11.6719357 L64.3607686,11.8499621 L65.0717558,11.8499621 C65.326098,10.2306851 65.3872822,9.91463233 65.7862297,9.95410603 C65.8496508,9.62272432 65.9679403,9.33246105 66.0559667,9.1861452 C65.7582692,9.12528991 65.5920191,9.29028998 65.3740585,9.60371116 C65.3914927,9.468119 65.4228085,9.33654 65.4169533,9.20213205 L64.7637951,9.20213205 M58.9123454,9.20213205 C58.8230033,10.0217376 58.6647137,10.851738 58.5412926,11.6719357 L58.50899,11.8499621 L59.2201745,11.8499621 C59.4745825,10.2306851 59.5355693,9.91463233 59.9339248,9.95410603 C59.9977406,9.62265853 60.1162275,9.33239526 60.2041222,9.1861452 C59.9066879,9.12528991 59.7401089,9.29022419 59.5226088,9.60371116 C59.5397799,9.46805321 59.571293,9.33647421 59.5651088,9.20206626 L58.9122796,9.20206626"/>
    <path fill="#F7F7F7" d="M127.025704,19.73685 C125.543535,19.73685 124.342,18.5390075 124.342,17.0613925 L124.342,2.6754575 C124.342,1.19786925 125.543535,0 127.025704,0 L155.536704,-3.61194965e-15 C157.018847,-3.61194965e-15 158.220408,1.19786925 158.220408,2.6754575 L158.220408,17.0613925 C158.220408,18.5390075 157.018847,19.73685 155.536704,19.73685 L127.025704,19.73685 Z"/>
    <path fill="#0079C1" fill-rule="nonzero" d="M143.601976,7.11671411 L145.266946,7.11671411 C145.823949,7.11671411 146.243613,7.25971731 146.480383,7.52980474 C146.695616,7.77554552 146.767136,8.12656554 146.692664,8.57296563 C146.527414,9.5944553 145.894396,10.1096815 144.7977,10.1096815 L144.270889,10.1096815 C144.157167,10.1096815 144.060151,10.1901459 144.042506,10.2993715 L143.851493,11.4746999 C143.839014,11.5509505 143.771183,11.6072689 143.691544,11.6072689 L142.837187,11.6072689 C142.752181,11.6072689 142.686967,11.5332256 142.700251,11.4515572 L143.373391,7.30640404 C143.391238,7.19717849 143.488053,7.11671411 143.601976,7.11671411 Z M145.458965,8.63068863 C145.492041,8.42708631 145.465607,8.27953482 145.378051,8.18007469 C145.231588,8.01399566 144.947853,8.01399566 144.647346,8.01399566 L144.532081,8.01399566 C144.46378,8.01399566 144.405611,8.0621539 144.395077,8.12756884 L144.218892,9.21092847 L144.47002,9.21092847 C144.911623,9.21092847 145.36792,9.21092847 145.458965,8.63068863 Z"/>
    <path fill="#00457C" fill-rule="nonzero" d="M131.364301,7.11671411 L133.029271,7.11671411 C133.586273,7.11671411 134.005938,7.25971731 134.242707,7.52987163 C134.458008,7.77561241 134.529461,8.12656554 134.454988,8.57303252 C134.289739,9.59452219 133.656721,10.1097484 132.560025,10.1097484 L132.033214,10.1097484 C131.919492,10.1097484 131.822476,10.1901459 131.804831,10.2993715 L131.62301,11.4177796 C131.60523,11.5268045 131.508416,11.6072689 131.394627,11.6072689 L130.599526,11.6072689 C130.514305,11.6072689 130.449265,11.5332256 130.462576,11.4515572 L131.135716,7.30640404 C131.153563,7.19717849 131.25031,7.11671411 131.364301,7.11671411 Z M133.22129,8.63068863 C133.254366,8.42708631 133.227932,8.27953482 133.140376,8.18007469 C132.993913,8.01399566 132.710178,8.01399566 132.40967,8.01399566 L132.294405,8.01399566 C132.226105,8.01399566 132.167936,8.0621539 132.157402,8.12756884 L131.981217,9.21092847 L132.232345,9.21092847 C132.673948,9.21092847 133.130312,9.21092847 133.22129,8.63068863 Z M138.005462,8.61222796 C138.090669,8.61216108 138.155883,8.68613748 138.142599,8.76787271 L137.711596,11.4177796 C137.693749,11.5269383 137.596935,11.607202 137.482944,11.607202 L136.765121,11.607202 C136.679712,11.607202 136.614632,11.5332256 136.627983,11.4514904 L136.66361,11.2364505 C136.66361,11.2364505 136.269977,11.6791049 135.559869,11.6791049 C135.146176,11.6791049 134.799106,11.5634582 134.555896,11.285612 C134.291014,10.9832184 134.182794,10.5499281 134.259011,10.0963711 C134.405407,9.18745132 135.157783,8.53925486 136.038508,8.53925486 C136.422747,8.53925486 136.807657,8.62072254 136.980421,8.86398851 L137.036041,8.94237943 L137.070996,8.72600179 C137.081731,8.66031931 137.1399,8.61222796 137.2082,8.61222796 L138.005462,8.61222796 Z M135.994562,10.8581408 C136.455824,10.8581408 136.817319,10.561165 136.894408,10.1189119 C136.929363,9.90480837 136.881325,9.71057015 136.75915,9.57158014 C136.637846,9.43359341 136.454147,9.36062032 136.227642,9.36062032 C135.773425,9.36062032 135.405959,9.66702709 135.334237,10.1055346 C135.296933,10.3204407 135.341349,10.5136756 135.459163,10.6491207 C135.578118,10.7858365 135.763361,10.8581408 135.994562,10.8581408 Z"/>
    <path fill="#0079C1" fill-rule="nonzero" d="M150.54808,8.20629376 C150.633288,8.20622687 150.698502,8.28027016 150.685217,8.36193851 L150.254214,11.0118454 C150.236368,11.1210709 150.139553,11.2013347 150.025563,11.2013347 L149.307739,11.2013347 C149.22233,11.2013347 149.157317,11.1272914 149.170602,11.045623 L149.206228,10.8305163 C149.206228,10.8305163 148.812596,11.2732376 148.102488,11.2732376 C147.688795,11.2732376 147.341725,11.157524 147.098514,10.8797447 C146.833632,10.5773511 146.725412,10.1439939 146.801629,9.69050382 C146.948025,8.78158401 147.700402,8.13338755 148.581126,8.13338755 C148.965366,8.13338755 149.350276,8.21485523 149.522838,8.45805431 L149.578659,8.53644523 L149.613681,8.32013448 C149.624416,8.254452 149.682585,8.20629376 149.750819,8.20629376 L150.54808,8.20629376 Z M149.437027,9.71297766 C149.471982,9.49894106 149.423943,9.30470284 149.301768,9.16564594 C149.180532,9.02765921 148.996765,8.954753 148.770327,8.954753 C148.31611,8.954753 147.948577,9.26109289 147.876922,9.69966726 C147.839552,9.91457338 147.883766,10.1077414 148.001849,10.2432533 C148.120737,10.3799692 148.305979,10.4522734 148.537181,10.4522734 C148.998509,10.4522734 149.359937,10.1552308 149.437027,9.71297766 Z"/>
    <path fill="#00457C" d="M142.333951,8.13338755 C142.445996,8.13338755 142.51168,8.25552219 142.447942,8.34494935 L139.783225,12.0794198 C139.739883,12.1398852 139.668832,12.1759369 139.593017,12.1759369 L138.792536,12.1759369 C138.679887,12.1759369 138.614204,12.0525984 138.679216,11.9633718 L139.509085,10.8264362 L138.626817,8.31157302 C138.596156,8.22421933 138.663114,8.13338755 138.758184,8.13338755 L139.545784,8.13338755 C139.647966,8.13338755 139.738139,8.19860182 139.767525,8.29364745 L140.235899,9.81263845 L141.341383,8.23197816 C141.384323,8.17030886 141.456045,8.13338755 141.532664,8.13338755 L142.333951,8.13338755 Z"/>
    <path fill="#0079C1" d="M151.541983,7.23055482 C151.55245,7.16487234 151.610619,7.11671411 151.679121,7.11671411 L152.448002,7.11671411 C152.533411,7.11671411 152.598491,7.1907574 152.585139,7.27242574 L151.911328,11.4175789 C151.89375,11.5268045 151.796734,11.6072689 151.682945,11.6072689 L150.995648,11.6072689 C150.910441,11.6072689 150.845428,11.5332925 150.858712,11.4515572 L151.541983,7.23055482 Z"/>
    <path fill="#F7F7F7" d="M85.52658,0.132 L113.816065,0.132 C115.269421,0.132 116.447645,1.31019784 116.447645,2.76358 L116.447645,17.23727 C116.447645,18.6906258 115.269421,19.86885 113.816065,19.86885 L85.52658,19.86885 C84.0731978,19.86885 82.895,18.6906258 82.895,17.23727 L82.895,2.76358 C82.895,1.31019784 84.0731978,0.132 85.52658,0.132"/>
    <path fill="#C00" d="M104.273266,16.579795 C100.578725,16.579795 97.5837896,13.6320965 97.5837896,9.99558184 C97.5837896,6.35886986 100.579054,3.41136868 104.273266,3.41136868 C107.968531,3.41136868 110.9634,6.35913302 110.9634,9.99558184 C110.9634,13.632228 107.968531,16.579795 104.273266,16.579795 Z"/>
    <path fill="#06C" d="M99.1060307,14.1771625 C98.9212938,13.9566361 98.7511621,13.7236754 98.596491,13.4797938 L100.967479,13.4797938 C101.109781,13.2563068 101.238268,13.023412 101.353005,12.7824908 L98.2111619,12.7824908 C98.1040566,12.5568987 98.0088592,12.3242012 97.9278723,12.0854511 L101.635703,12.0854511 C101.859058,11.4288719 101.97965,10.7265032 101.97965,9.995845 C101.97965,9.51742375 101.927874,9.05084462 101.829519,8.60150234 L97.7345828,8.60150234 C97.7864249,8.36393645 97.8517539,8.13150215 97.9287276,7.90419942 L101.635308,7.90419942 C101.553992,7.66538354 101.459387,7.43281766 101.352347,7.20722546 L98.211754,7.20722546 C98.3264909,6.9663701 98.455241,6.73387001 98.5971489,6.50985676 L100.966689,6.50985676 C100.81215,6.26657377 100.641558,6.03401447 100.45715,5.81321175 L99.1068202,5.81321175 C99.3145834,5.56504059 99.540373,5.33206024 99.7820178,5.11636936 C98.5945831,4.05676368 97.0185956,3.41130289 95.2899107,3.41130289 C91.5948435,3.41130289 88.5998028,6.35906723 88.5998028,9.99551605 C88.5998028,13.6321622 91.5950408,16.5797292 95.2899107,16.5797292 C97.0186614,16.5797292 98.5947805,15.9342684 99.7820178,14.8751233 C100.024057,14.6590048 100.25011,14.4255178 100.457873,14.1768335 L99.1059649,14.1768335"/>
    <path fill="#006" fill-rule="nonzero" d="M99.6862391,11.7743699 C99.4003179,11.8488436 99.1238046,11.885291 98.8315677,11.8846331 C97.8990673,11.8838436 97.4134092,11.4658172 97.4134092,10.6664747 C97.4134092,9.73259279 98.0316332,9.04568462 98.870844,9.04568462 C99.5572917,9.04568462 99.9954497,9.43081635 99.9954497,10.0342376 C99.9954497,10.2345009 99.9658445,10.4295667 99.8932128,10.7052905 L98.2349885,10.7052905 C98.1759753,11.0957512 98.4655807,11.2671329 98.958673,11.2671329 C99.2540021,11.2671329 99.5209759,11.214896 99.8168312,11.0977907 L99.6862391,11.7743699 M99.2403836,10.1545666 C99.2403836,10.095685 99.3325547,9.67654013 98.8526203,9.66746118 C98.5876202,9.66746118 98.3976201,9.84081651 98.320778,10.1545666 L99.2403836,10.1545666 M100.248016,9.97140867 C100.248016,10.316343 100.445318,10.5547642 100.893937,10.7321327 C101.236832,10.8703564 101.290779,10.9104222 101.290779,11.0339091 C101.290779,11.2050934 101.139332,11.2835145 100.802884,11.281475 C100.550253,11.2796987 100.31966,11.2494355 100.047621,11.1752249 L99.9271602,11.8044357 C100.169134,11.8596989 100.508213,11.877791 100.808805,11.8846989 C101.704266,11.8846989 102.117687,11.5961462 102.117687,10.9724617 C102.117687,10.5973958 101.945253,10.3769351 101.51999,10.2125272 C101.164529,10.0726587 101.122819,10.0425929 101.122819,9.91594812 C101.122819,9.76732964 101.263674,9.69219803 101.538279,9.69219803 C101.704793,9.69219803 101.932687,9.70719804 102.149003,9.73298752 L102.270319,9.10035569 C102.049924,9.07028989 101.715714,9.04614514 101.522161,9.04614514 C100.573476,9.04614514 100.245187,9.46640847 100.248016,9.97140867 M96.9588696,11.8396331 L96.2632114,11.8396331 L96.2797903,11.5528567 C96.067685,11.779041 95.7850533,11.8845015 95.4016321,11.8845015 C94.9478161,11.8845015 94.6369607,11.5790409 94.6369607,11.139896 C94.6369607,10.4722641 95.1773557,10.0871982 96.1065666,10.0871982 C96.2020272,10.0871982 96.3235404,10.0942377 96.4482773,10.1080535 C96.4740667,10.0187113 96.4811062,9.98022447 96.4811062,9.9317376 C96.4811062,9.74897437 96.3348562,9.68167171 95.9438034,9.68167171 C95.5583427,9.68311908 95.298211,9.7394349 95.0567635,9.80318492 L95.1756452,9.19075047 C95.5930795,9.08627674 95.8663033,9.0458162 96.1755798,9.0458162 C96.8951195,9.0458162 97.2751197,9.32364526 97.2751197,9.84535599 C97.2811723,9.98463236 97.2319618,10.2641719 97.2071591,10.3865404 C97.1790012,10.5643694 96.9795933,11.5962119 96.958738,11.8396989 L96.9588696,11.8396331 M96.3482114,10.6215405 C96.2601193,10.6129879 96.221764,10.6104221 96.1613692,10.6104221 C95.6869612,10.6104221 95.446369,10.7494353 95.446369,11.0237775 C95.446369,11.196146 95.5637374,11.3038434 95.7467638,11.3038434 C96.087685,11.3038434 96.3338035,11.0231854 96.3482114,10.6215405 M103.583083,11.7963436 C103.354925,11.8578568 103.176964,11.8846989 102.984596,11.8846989 C102.558477,11.8846989 102.32578,11.6702909 102.32578,11.288646 C102.312359,11.1837776 102.416503,10.6993037 102.440188,10.5643036 C102.463674,10.4289089 102.832819,8.45542122 102.832819,8.45542122 L103.660714,8.45542122 L103.535517,9.1084478 L103.960122,9.1084478 L103.844793,9.77469807 L103.41828,9.77469807 C103.41828,9.77469807 103.184267,10.9314748 103.184267,11.0198959 C103.184267,11.1600934 103.270517,11.2210802 103.468806,11.2210802 C103.563543,11.2210802 103.636833,11.2123302 103.693346,11.1956855 L103.583083,11.7962778 M107.282492,9.04568462 C106.675716,9.04568462 106.201571,9.29180314 105.92611,9.70219804 L106.165189,9.09325043 C105.724663,8.93417141 105.440715,9.16127677 105.18407,9.48410585 C105.18407,9.48410585 105.141044,9.5376585 105.098083,9.58667168 L105.098083,9.10811885 L104.320715,9.10811885 C104.215451,9.95272445 104.029201,10.8093037 103.883609,11.6558172 L103.848412,11.8398963 L104.684662,11.8398963 C104.76407,11.4103566 104.829202,11.0618038 104.894136,10.7837116 C105.071768,10.021014 105.370781,9.78792176 105.819663,9.89114548 C105.716044,10.1101587 105.659268,10.3640404 105.659268,10.6448958 C105.659268,11.3267382 106.035255,11.8846331 106.969466,11.8846331 C107.911966,11.8846331 108.594532,11.3891066 108.594532,10.2591719 C108.594532,9.5777243 108.139663,9.04568462 107.282558,9.04568462 L107.282492,9.04568462 M107.039071,11.2218697 C106.743808,11.2263434 106.564663,10.9824617 106.564663,10.6173958 C106.564663,10.1849614 106.825913,9.69621119 107.245782,9.69621119 C107.584532,9.69621119 107.700584,9.96061919 107.700584,10.2423298 C107.700584,10.8574617 107.444334,11.2219355 107.039071,11.2219355 L107.039071,11.2218697"/>
    <polyline fill="#006" points="94.248 11.84 93.415 11.84 93.91 9.274 92.77 11.84 92.012 11.84 91.873 9.289 91.376 11.84 90.62 11.84 91.264 8.502 92.566 8.502 92.674 10.363 93.498 8.502 94.904 8.502 94.248 11.84"/>
    <path fill="#FFF" fill-rule="nonzero" d="M99.8955547,11.5691067 C99.6098309,11.643712 99.3332518,11.6801594 99.0410807,11.6795015 C98.1085803,11.6786462 97.6229222,11.2605539 97.6229222,10.4613431 C97.6229222,9.52746113 98.2410804,8.84055296 99.0801596,8.84055296 C99.7666731,8.84055296 100.204963,9.22568469 100.204963,9.8289744 C100.204963,10.0291719 100.175226,10.223843 100.102726,10.5001589 L98.4445673,10.5001589 C98.3854225,10.890159 98.6748305,11.0618696 99.1679228,11.0618696 C99.4632519,11.0618696 99.730423,11.0096328 100.026213,10.8923301 L99.8954889,11.5691067 L99.8955547,11.5691067 M99.4496335,9.94936919 C99.4496335,9.89035601 99.5418703,9.47134268 99.0621333,9.46219794 C98.797199,9.46219794 98.6071989,9.63555327 98.5300936,9.94936919 L99.4496992,9.94936919 L99.4496335,9.94936919 M100.457529,9.76601385 C100.457529,10.1110798 100.654766,10.3492378 101.103318,10.5268694 C101.446411,10.665159 101.500226,10.705159 101.500226,10.8283169 C101.500226,10.9998301 101.348713,11.0782512 101.012595,11.0762775 C100.759634,11.0744354 100.529042,11.0441065 100.2572,10.9699617 L100.136542,11.5989751 C100.378581,11.6544357 100.717858,11.6725278 101.018187,11.6795015 C101.913648,11.6795015 102.327332,11.3908829 102.327332,10.7669353 C102.327332,10.3921325 102.154766,10.1714088 101.729503,10.0071982 C101.373976,9.86746126 101.332266,9.83693493 101.332266,9.71075067 C101.332266,9.56213219 101.473318,9.48673743 101.747792,9.48673743 C101.914305,9.48673743 102.142069,9.50200059 102.358516,9.52779007 L102.479766,8.89515824 C102.259437,8.8646977 101.925227,8.84081612 101.731805,8.84081612 C100.782923,8.84081612 100.454634,9.26088207 100.457594,9.76594806 M97.1684483,11.6342383 L96.4725928,11.6342383 L96.4894349,11.3474619 C96.277198,11.5735146 95.9948294,11.6787778 95.6112767,11.6787778 C95.1575923,11.6787778 94.8464079,11.3735145 94.8464079,10.934238 C94.8464079,10.2668035 95.3869345,9.88173758 96.3161454,9.88173758 C96.4116059,9.88173758 96.5329876,9.88890864 96.6579876,9.90226391 C96.6837771,9.81305335 96.690685,9.77489544 96.690685,9.726277 C96.690685,9.54318482 96.5445007,9.47614532 96.1536453,9.47614532 C95.7679873,9.47772426 95.5079214,9.53397429 95.2666055,9.59785589 L95.3850924,8.98528986 C95.8026583,8.88081613 96.0757505,8.84048717 96.3852243,8.84048717 C97.1047641,8.84048717 97.4846327,9.11798728 97.4846327,9.63996117 C97.4908827,9.77936912 97.441409,10.0583166 97.4168695,10.1811456 C97.3884484,10.3589746 97.1891062,11.3908171 97.1683826,11.6343041 L97.1684483,11.6342383 M96.5577244,10.4162773 C96.4697638,10.4073299 96.431277,10.4050273 96.3708164,10.4050273 C95.8966057,10.4050273 95.6559477,10.5438431 95.6559477,10.8180538 C95.6559477,10.9906854 95.7735136,11.0985802 95.956211,11.0985802 C96.2973296,11.0985802 96.5434481,10.817659 96.5577244,10.4162773 M103.792596,11.5909488 C103.564306,11.6525936 103.386477,11.6794357 103.194043,11.6794357 C102.767924,11.6794357 102.535424,11.4649619 102.535424,11.083317 C102.521872,10.9783828 102.626016,10.4939089 102.649635,10.3589746 C102.673319,10.2235798 103.042398,8.25009219 103.042398,8.25009219 L103.870227,8.25009219 L103.745161,8.9029214 L104.169833,8.9029214 L104.054372,9.56936904 L103.627925,9.56936904 C103.627925,9.56936904 103.393714,10.7261458 103.393714,10.8141722 C103.393714,10.9548301 103.480096,11.0154223 103.678319,11.0154223 C103.773056,11.0154223 103.84628,11.007067 103.903122,10.9902249 L103.792662,11.5909488 M107.91036,10.0365403 C107.91036,10.6521984 107.653847,11.0166065 107.248584,11.0166065 C106.953255,11.0207512 106.774242,10.7771327 106.774242,10.4121325 C106.774242,9.97969815 107.035492,9.49081637 107.455295,9.49081637 C107.794176,9.49081637 107.91036,9.75522438 107.91036,10.0364745 L107.91036,10.0365403 M108.804045,10.0537771 C108.804045,9.37239527 108.349045,8.84042138 107.492202,8.84042138 C106.506413,8.84042138 105.868847,9.48700058 105.868847,10.4396325 C105.868847,11.1214091 106.244834,11.6793699 107.17911,11.6793699 C108.121611,11.6793699 108.804045,11.1838434 108.804045,10.0538429 L108.804045,10.0537771 M104.530228,8.90252667 C104.42503,9.74732964 104.238714,10.6038431 104.093188,11.4502251 L104.058122,11.634633 L104.894307,11.634633 C105.195623,9.99982974 105.296807,9.53417166 105.928386,9.6980533 L106.232136,8.92463194 C105.791544,8.76555293 105.508057,8.99278986 105.251412,9.31575052 C105.27457,9.17042151 105.318123,9.03002672 105.307662,8.90259246 L104.530162,8.90259246"/>
    <polyline fill="#FFF" points="94.457 11.635 93.624 11.635 94.119 9.068 92.979 11.635 92.22 11.635 92.081 9.083 91.585 11.635 90.829 11.635 91.473 8.296 92.775 8.296 92.843 10.363 93.76 8.296 95.114 8.296 94.457 11.635"/>
  </g>
</svg>
