<svg xmlns="http://www.w3.org/2000/svg" width="965" height="94" viewBox="0 0 965 94">
  <g fill="none" fill-rule="evenodd" transform="translate(-166 -432)">
    <g transform="translate(978.5 434)">
      <g fill="#797979" fill-rule="nonzero" transform="translate(18.116 22.107)">
        <path d="M54.1390452 22.4695416L54.1390452 35.7942582 49.9118937 35.7942582 49.9118937 2.88811589 61.1230345 2.88811589C63.8259787 2.83165451 66.4394978 3.85721267 68.3827077 5.73684839 70.3487886 7.50531606 71.454449 10.0373261 71.4152294 12.6814543 71.4715411 15.340351 70.3639107 17.8912573 68.3827077 19.6654437 66.4222896 21.5348423 64.0023986 22.4686665 61.1230345 22.4669161L54.1390452 22.4669161 54.1390452 22.4695416zM54.1390452 6.93935482L54.1390452 18.4261794 61.2280569 18.4261794C62.7995044 18.4727595 64.31786 17.8551234 65.4105739 16.7248166 66.4966578 15.6689 67.1094145 14.2185449 67.1094145 12.7037716 67.1094145 11.1889982 66.4966578 9.73864321 65.4105739 8.6827266 64.3311128 7.52812762 62.8080452 6.89232098 61.2280569 6.93672926L54.1390452 6.93672926 54.1390452 6.93935482zM81.1560566 12.5449252C84.2804729 12.5449252 86.7467488 13.3798533 88.5548844 15.0497094 90.36302 16.7195655 91.2662126 19.0090537 91.2644648 21.9181741L91.2644648 35.7942582 87.2211 35.7942582 87.2211 32.6698419 87.0373108 32.6698419C85.2869375 35.2428906 82.9589411 36.5294149 80.0533214 36.5294149 77.5730425 36.5294149 75.497975 35.7942582 73.8281189 34.3239446 72.2051703 32.9572654 71.2849669 30.9316603 71.3233348 28.8102688 71.3233348 26.480522 72.2037725 24.6277519 73.964648 23.2519585 75.7255235 21.8761651 78.0762748 21.186518 81.0169019 21.1830173 83.5269372 21.1830173 85.594128 21.6424903 87.2184744 22.5614362L87.2184744 21.5952302C87.2281674 20.1491044 86.5870479 18.7752767 85.4724771 17.8538073 84.3546352 16.8452721 82.8978148 16.2949802 81.392357 16.3126037 79.0311034 16.3126037 77.16258 17.3085661 75.7867866 19.3004908L72.0637426 16.9558659C74.1116794 14.0152388 77.1424507 12.5449252 81.1560566 12.5449252zM75.6869683 28.9021634C75.6812648 29.9937172 76.2035649 31.0207117 77.0890643 31.6590013 78.0239683 32.3944074 79.1843658 32.7839893 80.3736397 32.7617365 82.1574327 32.7587555 83.8672968 32.0487512 85.1285287 30.7873154 86.5288273 29.4692843 87.2289766 27.9228296 87.2289766 26.1479511 85.9109456 25.0977271 84.0730536 24.5726151 81.7153008 24.5726151 79.9981847 24.5726151 78.5663793 24.9865784 77.4198848 25.814505 76.2620129 26.6546841 75.6869683 27.6760269 75.6869683 28.9021634L75.6869683 28.9021634z"/>
        <polygon points="114.474 13.28 100.359 45.719 95.996 45.719 101.234 34.369 91.952 13.28 96.547 13.28 103.255 29.454 103.347 29.454 109.872 13.28"/>
        <path d="M37.0571697,19.5971791 C37.0587465,18.3089533 36.949824,17.0229653 36.731583,15.7533594 L18.9040313,15.7533594 L18.9040313,23.034037 L29.1148338,23.034037 C28.6926203,25.3837873 27.328726,27.4590312 25.3392786,28.7787621 L25.3392786,33.5047699 L31.4332032,33.5047699 C35.0013391,30.2149434 37.0571697,25.3497809 37.0571697,19.5971791 Z"/>
        <path d="M18.9040313,38.0706186 C24.0054942,38.0706186 28.3009102,36.3955114 31.4332032,33.5073955 L25.3392786,28.7813877 C23.6431669,29.9313829 21.4587011,30.5877729 18.9040313,30.5877729 C13.9732298,30.5877729 9.78808732,27.263814 8.29151817,22.7846088 L2.01380445,22.7846088 L2.01380445,27.6550225 C5.22264269,34.0402713 11.7578403,38.0702929 18.9040313,38.0706186 Z"/>
        <path d="M8.29151817,22.7846088 C7.50033575,20.4374748 7.50033575,17.8956997 8.29151817,15.5485657 L8.29151817,10.6781521 L2.01380445,10.6781521 C-0.670119402,16.0188768 -0.670119402,22.3142978 2.01380445,27.6550225 L8.29151817,22.7846088 Z"/>
        <path d="M18.9040313,7.74540171 C21.5999234,7.70135797 24.2048709,8.71994713 26.1558277,10.5810064 L26.1558277,10.5810064 L31.5513533,5.18548081 C28.1300283,1.97199454 23.5975325,0.207736766 18.9040313,0.26255599 C11.7578403,0.262881685 5.22264269,4.2929033 2.01380445,10.6781521 L8.29151817,15.5485657 C9.78808732,11.0693605 13.9732298,7.74540171 18.9040313,7.74540171 Z"/>
      </g>
      <rect width="150.882" height="90" stroke="#797979" stroke-width="3" rx="10"/>
    </g>
    <g transform="translate(777.5 434)">
      <g fill="#797979" fill-rule="nonzero" transform="translate(17.941 20.547)">
        <path d="M21.7936933 6.29831401C23.1296993 4.58059201 24.0839894 2.290296 23.7977024 0 21.7936933.0954290002 19.4079683 1.336006 17.9765333 2.95829901 16.7359563 4.38973401 15.5908083 6.77545901 15.8770953 8.97032602 18.1673913 9.25661302 20.3622583 8.01603602 21.7936933 6.29831401M23.7977024 9.54290002C20.5531163 9.35204202 17.7856753 11.356051 16.2588113 11.356051 14.7319473 11.356051 12.3462223 9.63832902 9.76963932 9.63832902 6.42962432 9.73375802 3.37589631 11.546909 1.65817431 14.600637-1.7772697 20.612664.703884305 29.4875611 4.13932831 34.3544401 5.76162132 36.7401651 7.76563032 39.4121771 10.3422133 39.3167481 12.8233673 39.2213191 13.7776573 37.6944551 16.7359563 37.6944551 19.6942553 37.6944551 20.5531163 39.3167481 23.2251283 39.2213191 25.8971404 39.1258901 27.6148624 36.8355941 29.2371554 34.3544401 31.1457354 31.5869991 31.9091674 28.9149871 31.9091674 28.8195581 31.8137384 28.7241291 26.6605724 26.8155491 26.6605724 20.898951 26.5651434 15.936643 30.6685904 13.550918 30.8594484 13.455489 28.6645814 10.020045 25.0382794 9.63832902 23.7977024 9.54290002M51.8538284 2.76744101C58.9155744 2.76744101 63.7824534 7.63432001 63.7824534 14.600637 63.7824534 21.662383 58.8201454 26.5292621 51.6629704 26.5292621L43.9332214 26.5292621 43.9332214 38.8396031 38.3029104 38.8396031 38.3029104 2.76744101 51.8538284 2.76744101zM43.9332214 21.853241L50.3269644 21.853241C55.1938434 21.853241 57.9612844 19.181229 57.9612844 14.696066 57.9612844 10.115474 55.1938434 7.53889101 50.3269644 7.53889101L43.8377924 7.53889101 43.8377924 21.853241 43.9332214 21.853241 43.9332214 21.853241zM65.2138884 31.4915701C65.2138884 26.9109781 68.7447614 24.048108 75.0430755 23.666392L82.2956795 23.284676 82.2956795 21.280667C82.2956795 18.322368 80.2916705 16.604646 77.0470845 16.604646 73.8979274 16.604646 71.9893474 18.13151 71.5122024 20.421806L66.3590364 20.421806C66.6453234 15.650356 70.7487704 12.119483 77.2379425 12.119483 83.6316855 12.119483 87.7351325 15.459498 87.7351325 20.803522L87.7351325 38.9350321 82.5819665 38.9350321 82.5819665 34.6407271 82.4865375 34.6407271C80.9596735 37.5990261 77.6196585 39.4121771 74.1842144 39.4121771 68.8401904 39.4121771 65.2138884 36.1675911 65.2138884 31.4915701L65.2138884 31.4915701zM82.2956795 29.1058451L82.2956795 27.0064071 75.8065075 27.3881231C72.5619214 27.5789811 70.7487704 29.0104161 70.7487704 31.3007121 70.7487704 33.5910081 72.6573504 35.1178721 75.5202205 35.1178721 79.3373805 35.1178721 82.2956795 32.5412891 82.2956795 29.1058451L82.2956795 29.1058451zM92.5065825 48.6687901L92.5065825 44.2790561C92.8882985 44.3744851 93.8425885 44.3744851 94.2243045 44.3744851 96.7054585 44.3744851 98.0414645 43.3247661 98.9003255 40.6527541 98.9003255 40.5573251 99.3774705 39.0304611 99.3774705 39.0304611L89.8345705 12.692057 95.6557395 12.692057 102.33577 34.1635821 102.431199 34.1635821 109.111229 12.692057 114.836969 12.692057 105.007782 40.4618961C102.717486 46.8556391 100.140903 48.8596481 94.7014495 48.8596481 94.3197335 48.7642191 92.9837275 48.7642191 92.5065825 48.6687901z"/>
      </g>
      <rect width="150.882" height="90" stroke="#797979" stroke-width="3" rx="10"/>
    </g>
    <g transform="translate(576.5 434)">
      <g fill="#797979" fill-rule="nonzero" transform="matrix(1 0 0 -1 17.941 59)">
        <path d="M21.0414247 25.8305364C19.6921297 27.3026168 17.2530816 27.9337291 14.1329377 27.9337291L5.07718561 27.9337291C4.43907893 27.934054 3.89553676 27.4900185 3.7955972 26.8867618L.0265988108 3.99467667C-.00876943004 3.77975615.0559509307 3.56078854.203709401 3.39546054.351467872 3.23013255.567446435 3.13519133.79474583 3.13519133L6.38537303 3.13519133 7.78947808 11.6598334 7.74595243 11.3928838C7.84398147 11.9949644 8.3853028 12.4391411 9.02189863 12.4398509L11.678575 12.4398509C16.8976222 12.4398509 20.9841965 14.4689764 22.1779276 20.3387814 22.213393 20.5123758 22.2440221 20.681341 22.2706211 20.8464486 22.6252745 23.0159927 22.2682031 24.4927023 21.0422307 25.8297649M89.4830823 14.9372955C89.1413254 12.7893543 87.4277046 12.7893543 85.770506 12.7893543L84.8274504 12.7893543 85.4892014 16.7997705C85.5295029 17.0420311 85.7471311 17.2202546 86.0034488 17.2202546L86.4362872 17.2202546C87.5647298 17.2202546 88.6303021 17.2202546 89.1800148 16.6053447 89.5080692 16.2373246 89.607211 15.6910809 89.4830823 14.9372955M88.761685 20.541694L82.5101129 20.541694C82.0824025 20.5414906 81.7182091 20.2439009 81.6508844 19.8396011L79.124785 4.49617157C79.1012582 4.35222142 79.1446107 4.20561722 79.2434673 4.09482543 79.342324 3.98403363 79.4868165 3.92011409 79.6390324 3.9198382L82.8470336 3.9198382C83.1460709 3.9198382 83.4007765 4.12815146 83.4475263 4.41053167L84.1648934 8.7619644C84.2309879 9.16547492 84.5953136 9.46405727 85.0225098 9.46405727L87.0005085 9.46405727C91.1193241 9.46405727 93.4955019 11.3705094 94.1161453 15.151781 94.3958379 16.8043996 94.1274297 18.1036572 93.3189812 19.0132918 92.4299296 20.0131955 90.8541401 20.5424655 88.7624911 20.5424655M44.8934778 14.9372955C44.5517209 12.7893543 42.8381001 12.7893543 41.1800955 12.7893543L40.2370399 12.7893543 40.8987909 16.7997705C40.9390924 17.0420311 41.1567206 17.2202546 41.4130383 17.2202546L41.8458767 17.2202546C42.9743193 17.2202546 44.0398915 17.2202546 44.5896043 16.6053447 44.9184647 16.2373246 45.0176065 15.6910809 44.8934778 14.9372955M44.1720805 20.541694L37.9205084 20.541694C37.4933122 20.541694 37.1289865 20.2438832 37.0620859 19.8396011L34.5351805 4.49617157C34.5113673 4.35217395 34.5546157 4.20541572 34.6535331 4.09455586 34.7524505 3.983696 34.8971182 3.9198382 35.0494279 3.9198382L38.0349647 3.9198382C38.4621608 3.9198382 38.8256806 4.21764902 38.8925811 4.62193106L39.5752889 8.76119287C39.6413834 9.16547492 40.0057091 9.46328574 40.4329053 9.46328574L42.410904 9.46328574C46.5297196 9.46328574 48.9058974 11.3705094 49.5265408 15.151781 49.8062334 16.8043996 49.5378252 18.1036572 48.7293767 19.0132918 47.8403251 20.0131955 46.2645356 20.5424655 44.1728866 20.5424655M58.6862708 9.42856686C58.3960999 7.79137887 57.0395506 6.69194773 55.3073912 6.69194773 54.4392964 6.69194773 53.7436921 6.95966886 53.2971513 7.46579295 52.8538345 7.96728786 52.6877922 8.68249674 52.8280415 9.47794482 53.0972557 11.1012453 54.4771798 12.2353953 56.1827403 12.2353953 57.0331024 12.2353953 57.7222584 11.9653596 58.1784717 11.4546063 58.637103 10.9399954 58.8176538 10.2209288 58.6862708 9.42856686M62.8582845 15.0067333L59.8646874 15.0067333C59.6075531 15.007028 59.3885703 14.827877 59.3488279 14.584706L59.2182509 13.7838572 59.008683 14.0739528C58.3606345 14.974329 56.9154219 15.2759975 55.4726274 15.2759975 52.1654845 15.2759975 49.3403478 12.8765372 48.790635 9.5126637 48.5044942 7.83304153 48.9107335 6.22902936 49.9053751 5.10953842 50.8186076 4.0810881 52.1219589 3.6528886 53.6751795 3.6528886 56.3415283 3.6528886 57.8197881 5.29161965 57.8197881 5.29161965L57.6859871 4.49540004C57.6621517 4.35126921 57.7055027 4.20437982 57.8046013 4.09349073 57.9036999 3.98260164 58.0485901 3.91885332 58.2010405 3.91906667L60.8964063 3.91906667C61.3236025 3.91906667 61.6879282 4.21610596 61.7548288 4.62115953L63.3733379 14.4296284C63.396908 14.5738447 63.35335 14.7207105 63.2541314 14.8315604 63.1549127 14.9424104 63.009976 15.0061365 62.8574784 15.0059617M103.275875 9.42856686C102.985704 7.79137887 101.629155 6.69194773 99.8969957 6.69194773 99.0289009 6.69194773 98.3332966 6.95966886 97.8867558 7.46579295 97.443439 7.96728786 97.2773967 8.68249674 97.417646 9.47794482 97.6868602 11.1012453 99.0659783 12.2353953 100.772345 12.2353953 101.622707 12.2353953 102.311863 11.9653596 102.768076 11.4546063 103.226707 10.9399954 103.407258 10.2209288 103.275875 9.42856686M107.447889 15.0067333L104.454292 15.0067333C104.197158 15.007028 103.978175 14.827877 103.938432 14.584706L103.807855 13.7838572 103.598288 14.0739528C102.950239 14.974329 101.505026 15.2759975 100.062232 15.2759975 96.755895 15.2759975 93.9307583 12.8765372 93.3802395 9.5126637 93.0940987 7.83304153 93.5011441 6.22902936 94.4957857 5.10953842 95.4090182 4.0810881 96.7123694 3.6528886 98.2655901 3.6528886 100.932745 3.6528886 102.411005 5.29161965 102.411005 5.29161965L102.277204 4.49540004C102.252836 4.35144096 102.295771 4.20450328 102.39463 4.09353515 102.493489 3.98256703 102.638288 3.91877446 102.790645 3.91906667L105.485205 3.91906667C105.912401 3.91906667 106.276727 4.21610596 106.344433 4.62115953L107.962942 14.4296284C107.986512 14.5738447 107.942954 14.7207105 107.843736 14.8315604 107.744517 14.9424104 107.59958 15.0061365 107.447083 15.0059617M78.8023728 15.0059617L75.7926551 15.0059617C75.5049022 15.0059617 75.2364941 14.8694008 75.075288 14.6410278L70.9242312 8.7897395 69.1646667 14.4126547C69.0544255 14.7648133 68.7161042 15.0062045 68.3320372 15.0067333L65.3747115 15.0067333C65.2064625 15.0067333 65.0485882 14.9288836 64.9507349 14.7978752 64.8528817 14.6668667 64.8270715 14.4987167 64.8814209 14.3463031L68.194206 5.03701454 65.0780923.828314982C64.9658413.676029707 64.9515678.476570965 65.0410768.311057053 65.1305858.145543141 65.3089678.0415434155 65.5036764.0413537443L68.51017.0413537443C68.7938927.0413537443 69.0606888.174828542 69.2235069.398572424L79.2295689 14.2228582C79.3403047 14.3751708 79.3534708 14.5737586 79.2637387 14.7382487 79.1740066 14.9027388 78.9962354 15.0058927 78.8023728 15.0059617M110.975884 20.1196667L108.409483 4.49540004C108.385935 4.35131688 108.42939 4.20458207 108.528428 4.09376124 108.627465 3.9829404 108.77218 3.91906667 108.924537 3.91906667L111.50464 3.91906667C111.931836 3.91906667 112.296162 4.21687749 112.363063 4.62115953L114.893192 19.9653606C114.917028 20.1094914 114.873677 20.2563808 114.774578 20.3672699 114.675479 20.478159 114.530589 20.5419073 114.378139 20.5416956L111.490938 20.5416956C111.234119 20.54232 111.015302 20.3633526 110.975884 20.1204383"/>
        <path d="M21.0414247,25.8305364 C19.6921297,27.3026168 17.2530816,27.9337291 14.1329377,27.9337291 L5.07718561,27.9337291 C4.43907893,27.934054 3.89553676,27.4900185 3.7955972,26.8867618 L0.0265988108,3.99467667 C-0.00876943004,3.77975615 0.0559509307,3.56078854 0.203709401,3.39546054 C0.351467872,3.23013255 0.567446435,3.13519133 0.79474583,3.13519133 L6.38537303,3.13519133 L7.78947808,11.6598334 L7.74595243,11.3928838 C7.84398147,11.9949644 8.3853028,12.4391411 9.02189863,12.4398509 L11.678575,12.4398509 C16.8976222,12.4398509 20.9841965,14.4689764 22.1779276,20.3387814 C22.213393,20.5123758 22.2440221,20.681341 22.2706211,20.8464486 C22.6252745,23.0159927 22.2682031,24.4927023 21.0422307,25.8297649"/>
        <path d="M9.29756105,20.8179019 C9.38507288,21.3449665 9.85959412,21.7331221 10.4171373,21.7337088 L17.5166535,21.7337088 C18.3573433,21.7337088 19.1416109,21.6812447 19.858172,21.5716874 C20.2499466,21.5113572 20.6375493,21.4283947 21.0188559,21.3232545 C21.4518888,21.2067227 21.8709126,21.0469078 22.2690091,20.8464486 C22.6252745,23.0167642 22.267397,24.4927023 21.0414247,25.8305364 C19.6913237,27.3018453 17.2530816,27.9329574 14.1329377,27.9329574 L5.07637958,27.9329574 C4.43888338,27.9325237 3.89624712,27.4886699 3.79640323,26.8859903 L0.0257927803,3.99621973 C-0.00981493492,3.78131223 0.0546826734,3.56225739 0.20229053,3.39677602 C0.349898387,3.23129465 0.565810351,3.13596308 0.793133769,3.13596308 L6.384567,3.13596308 L7.78867205,11.6613765 L9.29756105,20.8179019 L9.29756105,20.8179019 Z"/>
        <path d="M22.2698151,20.8472201 C22.2421477,20.6774718 22.2112447,20.5082212 22.1771216,20.339553 C20.9833905,14.4705195 16.8968161,12.4406224 11.677769,12.4406224 L9.02028657,12.4406224 C8.38374442,12.4401832 7.84249509,11.9957848 7.7451464,11.3936554 L6.384567,3.13673461 L5.99767239,0.794367634 C5.96653918,0.606169126 6.02308444,0.414360566 6.15240336,0.269500877 C6.28172227,0.124641189 6.47083813,0.041353676 6.66990178,0.041353676 L11.3827618,0.041353676 C11.9405349,0.041353676 12.4144808,0.430205179 12.5023381,0.957160596 L12.5482819,1.18707672 L13.4365274,6.57544661 L13.4929495,6.87325743 C13.5801948,7.40077901 14.0553585,7.78918049 14.6133319,7.78906428 L15.3186085,7.78906428 C19.883965,7.78906428 23.45871,9.56358472 24.5033255,14.6988926 C24.9385819,16.8437477 24.7128934,18.6360133 23.5602699,19.8943798 C23.1942787,20.2845142 22.756959,20.6074204 22.2698151,20.8472201"/>
        <path d="M21.0196619,21.3232545 C20.837499,21.3749471 20.6496939,21.4212389 20.4562466,21.46213 C20.2627993,21.5030211 20.0629037,21.5392831 19.858172,21.5701443 C19.1408049,21.6820162 18.3573433,21.7344811 17.5158475,21.7344811 L10.4171373,21.7344811 C9.85883205,21.735133 9.38345382,21.3459488 9.29756105,20.8179019 L7.78867205,11.6598334 L7.7451464,11.3936554 C7.84249509,11.9957848 8.38374442,12.4401832 9.02028657,12.4406224 L11.677769,12.4406224 C16.8968161,12.4406224 20.9833905,14.469748 22.1771216,20.339553 C22.2125869,20.5131473 22.2424101,20.681341 22.2698151,20.8472201 C21.9545605,21.0051152 21.6261907,21.1377571 21.28807,21.2437869 C21.2002127,21.271562 21.1107433,21.297794 21.0196619,21.324026"/>
      </g>
      <rect width="150.882" height="90" stroke="#797979" stroke-width="3" rx="10"/>
    </g>
    <g transform="translate(375.5 433.5)">
      <rect width="150.882" height="90" y=".5" stroke="#797979" stroke-width="3" rx="10"/>
      <g fill-rule="nonzero" transform="translate(18 11.75)">
        <path fill="#797979" d="M114.485256,33.7506485 C114.485256,15.1195812 99.3813163,0.0149930482 80.7508975,0.0149930482 C72.6661946,0.0149930482 65.3097439,2.84499575 59.4999377,7.58739028 C63.9317064,11.8661157 67.3148696,17.2232771 69.1299882,23.2788603 L66.327222,23.2788603 C64.5704673,17.8951109 61.4849603,13.1449345 57.4740605,9.33312063 C53.4363525,13.1782516 50.4144689,17.9640703 48.6786144,23.2626481 L45.8751997,23.2626481 C47.6653415,17.318069 50.9460065,11.9300634 55.405383,7.61073585 C49.6098435,2.91697794 42.2884113,0.0149930482 34.2491025,0.0149930482 C15.6186837,0.0149930482 0.51409554,15.1189327 0.51409554,33.75 C0.51409554,52.3804188 15.6180352,67.4843585 34.2491025,67.4843585 C42.2877628,67.4843585 49.6098435,64.5823736 55.405383,59.8886157 C51.0079842,55.62286 47.6825365,50.2585652 45.8751997,44.2373519 L48.6786144,44.2373519 C50.4146165,49.5358602 53.4364787,54.321645 57.4740605,58.1668794 C61.4856087,54.354417 64.5704673,49.6048891 66.327222,44.2204912 L69.1299882,44.2204912 C67.3148696,50.2760744 63.9317064,55.6338843 59.4999377,59.9119612 C65.3097439,64.6537073 72.6661946,67.4843585 80.7508975,67.4843585 C99.3813163,67.4843585 114.485256,52.3804188 114.485256,33.7506485 L114.485256,33.7506485 Z"/>
        <path fill="#FFF" d="M89.6922534,41.6524777 L92.0216232,29.170376 L94.9664083,29.170376 L95.2744402,30.4005582 C95.8023097,29.7844944 96.8133028,29.170376 98.5272573,29.170376 L97.605107,32.4218961 C96.7692056,32.4218961 95.1868943,32.2033555 94.1765496,35.9386478 L93.1214593,41.6524777 L89.6922534,41.6524777 L89.6922534,41.6524777 Z M44.5542292,25.9979715 L47.9484167,25.9979715 L47.2519403,29.3052616 L49.0787317,29.3052616 L48.4704497,32.0029727 L46.7299072,32.0029727 L45.7720901,37.0501567 C45.5976468,38.0079738 45.6851927,38.8788935 47.6436272,38.574104 L47.4257351,41.0973718 C46.68581,41.5759561 45.6851927,41.7075992 44.9011704,41.7075992 C44.1184451,41.7075992 41.5504316,41.2277179 42.2041078,37.834179 L44.5542292,25.9979715 L44.5542292,25.9979715 Z M59.262591,36.0936365 C59.6542779,34.0911048 60.5686464,29.1314667 54.6070939,29.1314667 C49.1234773,29.1314667 48.4276495,34.5703376 48.2973033,35.3530629 C48.1669572,36.1370852 48.0800598,41.6628536 53.9540663,41.6628536 C55.3904677,41.7069508 57.4792484,41.5325074 58.3067194,41.0967233 L58.8287524,38.5306553 C58.3067194,38.6597045 56.3476364,38.8347963 54.9981324,38.8347963 C53.6499253,38.8347963 51.4742472,38.9223422 51.8652856,36.0936365 L59.262591,36.0936365 L59.262591,36.0936365 Z M41.3351335,32.0905186 L42.1178588,29.5659538 C40.5076625,28.9570234 39.2463529,29.088018 38.7671201,29.088018 C38.2878873,29.088018 34.2134356,29.0380844 33.5889415,32.0470699 C33.1103571,34.3537426 33.9546888,35.3076688 34.7640022,35.6585009 C36.0700575,36.2246311 36.8099826,36.7466642 37.5064589,37.0949024 C38.3676513,37.5254986 38.2094202,38.9657909 37.0706748,38.9657909 C36.5479933,38.9657909 34.2860663,39.2264832 32.5889726,38.660353 L32.1103883,41.2277179 C33.6771359,41.663502 34.937797,41.663502 36.1141547,41.663502 C36.9403287,41.663502 40.9875438,41.8813941 41.5523771,38.1383199 C41.8286331,36.313474 41.0303441,35.4834091 40.3773164,35.0936676 C39.7249372,34.6578835 38.636774,34.0489531 37.9409461,33.7435151 C37.2444697,33.4393741 36.7224367,32.2649619 37.9843948,31.9167237 C38.7671201,31.8291778 40.3766679,31.8291778 41.3351335,32.0905186 L41.3351335,32.0905186 Z M19.3163637,41.6628536 L22.1444209,26.606902 L16.5752039,26.606902 L12.4404428,35.7453983 L11.7874152,26.606902 L6.34854427,26.606902 L3.43294113,41.6628536 L6.82648011,41.6628536 L8.91526074,30.7844633 L9.82962917,41.6628536 L13.0493733,41.6628536 L17.7930648,31.045804 L15.7911816,41.6628536 L19.3163637,41.6628536 L19.3163637,41.6628536 Z M23.0574924,29.5231536 L22.5354593,32.2208647 C23.3629303,32.1346158 25.5820571,31.7863776 26.7564693,31.8291778 C27.9321785,31.8726265 29.2369369,31.6988317 28.84525,33.5697203 C27.9749787,33.6572662 21.8830802,32.699449 20.92656,37.9204279 C20.5348731,40.4890898 22.7533514,41.7938482 24.4938938,41.7075992 C26.2344363,41.6200533 26.7130206,41.4021613 27.3225996,40.9663772 L27.7577352,41.6628536 L30.9333821,41.6628536 L32.2828861,34.8751271 C32.6311243,33.1780334 33.1959576,29.0873695 27.4963944,29.0873695 C26.4523283,29.1314667 25.2779161,29.0873695 23.0574924,29.5231536 L23.0574924,29.5231536 Z M78.0609683,30.0879869 C77.1894001,29.5653054 76.5817666,29.4790564 75.4495061,29.4790564 C74.3185426,29.4790564 71.7939779,30.5600863 71.3166905,33.613169 C70.7505603,37.2246 73.2303793,39.0079427 76.7121127,37.834179 L77.7127301,40.8801282 C76.5817666,41.4021613 75.4495061,41.6628536 73.5786175,41.6628536 C70.0534354,41.6628536 66.2247608,38.5306553 67.9653033,32.1767675 C69.2486615,27.4953309 73.275125,25.780728 75.6245979,25.8676254 C78.408558,25.9713835 79.4104723,26.9116915 80.2807435,27.8695086 L78.0609683,30.0879869 L78.0609683,30.0879869 Z M106.998459,30.6100199 C106.344783,30.1320841 105.955042,29.1314667 104.343548,29.1314667 C102.47266,29.1314667 99.5570566,28.7832285 97.9040601,34.4399915 C96.7983876,38.220678 99.0350236,41.663502 101.470745,41.663502 C102.603006,41.6207018 103.733969,41.141469 104.429149,40.6628847 L104.86623,41.663502 L108.520461,41.663502 L111.480161,25.8248252 L107.910882,25.8248252 L106.998459,30.6100199 L106.998459,30.6100199 Z M80.4979871,29.5231536 L79.9746571,32.2208647 C80.8027766,32.1346158 83.0206064,31.7863776 84.1963155,31.8291778 C85.3713762,31.8726265 86.6774316,31.6988317 86.2850962,33.5697203 C85.414825,33.6572662 79.3229264,32.699449 78.3664062,37.9204279 C77.9740708,40.4890898 80.1925491,41.7938482 81.9330916,41.7075992 C83.674931,41.6200533 84.1522183,41.4021613 84.7624458,40.9663772 L85.1982299,41.6628536 L88.3732283,41.6628536 L89.7233809,34.8751271 C90.071619,33.1780334 90.6364523,29.0873695 84.9355921,29.0873695 C83.8921746,29.1314667 82.7171139,29.0873695 80.4979871,29.5231536 L80.4979871,29.5231536 Z"/>
        <path fill="#797979" d="M52.0825292,33.831061 L56.3035392,33.831061 C56.5214312,32.6125516 56.1297443,31.5678371 54.7808888,31.5678371 C53.4313848,31.5678371 52.4742161,32.2643134 52.0825292,33.831061 Z M28.2804167,36.0936365 C27.7142865,36.0047936 26.4523283,35.6578524 25.3641651,36.3977775 C24.2760018,37.1377026 23.9718608,38.4418124 25.1034728,38.8788935 C26.1922845,39.2971684 27.7998869,38.5747525 28.0190759,37.4411951 L28.2804167,36.0936365 L28.2804167,36.0936365 Z M105.77995,35.7013011 C106.128188,34.5703376 105.938181,33.1579302 105.562058,32.6566488 C104.51864,31.2643446 102.117288,32.3648291 101.385145,35.0936676 C100.906561,36.8770103 101.951275,38.2258659 103.125687,38.2258659 C104.388294,38.2252174 105.171019,37.2246 105.77995,35.7013011 L105.77995,35.7013011 Z M85.7202629,36.0936365 C85.1541327,36.0047936 83.8928231,35.6578524 82.8046598,36.3977775 C81.7164965,37.1377026 81.411707,38.4418124 82.5439675,38.8788935 C83.6334278,39.2971684 85.2403816,38.5747525 85.4582737,37.4411951 L85.7202629,36.0936365 L85.7202629,36.0936365 Z"/>
        <path fill="#FFF" d="M59.3598643,41.6628536 L61.666537,29.3052616 L64.5821401,29.3052616 L64.8862811,30.523771 C65.4096111,29.914192 66.4102285,29.3052616 68.1060252,29.3052616 L67.235754,32.5691029 C66.4102285,32.5691029 64.7987352,32.3084106 63.7981178,36.0054421 L62.7547002,41.663502 L59.3598643,41.663502 L59.3598643,41.6628536 Z"/>
      </g>
    </g>
    <g transform="translate(168.5 403.5)">
      <rect width="150.882" height="90" y="30.5" stroke="#797979" stroke-width="3" rx="10"/>
      <g transform="translate(5)">
        <path fill="#797979" fill-rule="nonzero" d="M61.9127636,91.6958958 L52.5290027,91.6958958 L58.3937328,55.653307 L67.7784578,55.653307 L61.9127636,91.6958958 Z M44.6348042,55.653307 L35.6887529,80.4436742 L34.6301513,75.1053526 L34.6311154,75.1072808 L31.4736288,58.8985283 C31.4736288,58.8985283 31.0918381,55.653307 27.0222958,55.653307 L12.2327251,55.653307 L12.0591838,56.2635937 C12.0591838,56.2635937 16.5818615,57.2045729 21.8748696,60.3832701 L30.0274518,91.6968599 L39.8045728,91.6968599 L54.7339407,55.653307 L44.6348042,55.653307 Z M118.442861,91.6958958 L127.059184,91.6958958 L119.546776,55.6523428 L112.003516,55.6523428 C108.520158,55.6523428 107.671734,58.3383757 107.671734,58.3383757 L93.6765966,91.6958958 L103.458538,91.6958958 L105.414734,86.3421483 L117.343766,86.3421483 L118.442861,91.6958958 Z M108.117157,78.9463988 L113.047656,65.4583874 L115.821424,78.9463988 L108.117157,78.9463988 Z M94.4102905,64.3207281 L95.7494504,56.5807885 C95.7494504,56.5807885 91.6172405,55.0092761 87.3095611,55.0092761 C82.6528709,55.0092761 71.594437,57.0445293 71.594437,66.941201 C71.594437,76.252653 84.5733941,76.3683472 84.5733941,81.259318 C84.5733941,86.1502888 72.9316687,85.2739055 69.0896583,82.1896919 L67.6945795,90.2824988 C67.6945795,90.2824988 71.8846365,92.317752 78.2863803,92.317752 C84.6900524,92.317752 94.3505151,89.00215 94.3505151,79.9780051 C94.3505151,70.6067778 81.2548998,69.7342509 81.2548998,65.6598881 C81.2558639,61.5845611 90.3947388,62.1080772 94.4102905,64.3207281 L94.4102905,64.3207281 Z"/>
        <path fill="#797979" fill-rule="nonzero" d="M34.8369334,77.0702786 L31.3708848,59.277543 C31.3708848,59.277543 30.9517839,55.7151858 26.48455,55.7151858 L10.2496842,55.7151858 L10.0591838,56.3851122 C10.0591838,56.3851122 17.8622911,58.0022488 25.3468394,64.0612192 C32.5033037,69.8524308 34.8369334,77.0702786 34.8369334,77.0702786 Z"/>
        <polygon points=".178 .485 150.178 .485 150.178 150.485 .178 150.485"/>
      </g>
    </g>
  </g>
</svg>
