<?xml version="1.0" encoding="iso-8859-1"?>
<!-- Generator: Adobe Illustrator 18.1.1, SVG Export Plug-In . SVG Version: 6.00 Build 0)  -->
<svg version="1.1" id="Layer_2" xmlns="http://www.w3.org/2000/svg" xmlns:xlink="http://www.w3.org/1999/xlink" x="0px" y="0px"
	 viewBox="0 0 279 49" style="enable-background:new 0 0 279 49;" xml:space="preserve">
<circle style="fill:#FFFFFF;" cx="28.458" cy="24.958" r="18.958"/>
<path style="fill:#12CF6C;" d="M28.5,4.667c-11.046,0-20,8.954-20,20c0,11.046,8.954,20,20,20s20-8.954,20-20
	C48.5,13.621,39.546,4.667,28.5,4.667z M37.89,38.667l-9.406-7.223l-9.339,7.223l3.628-11.785L13.5,19.667h11.254l3.729-11.254
	l3.763,11.254H43.5l-9.239,7.249L37.89,38.667z"/>
<g>
	<path style="fill:#FFFFFF;" d="M57.555,10.303c0-1.012,0.828-1.84,1.794-1.84h12.054c3.956,0,7.131,1.196,9.155,3.22
		c1.563,1.564,2.483,3.818,2.483,6.349v0.092c0,5.291-3.588,8.373-8.603,9.34l8.005,10.305c0.368,0.414,0.598,0.828,0.598,1.334
		c0,0.967-0.92,1.795-1.84,1.795c-0.736,0-1.288-0.414-1.702-0.967l-9.063-11.777h-9.247v10.903c0,1.013-0.828,1.841-1.84,1.841
		c-0.966,0-1.794-0.828-1.794-1.841V10.303z M71.08,24.887c4.83,0,8.281-2.484,8.281-6.625v-0.092c0-3.957-3.037-6.35-8.235-6.35
		h-9.937v13.066H71.08z"/>
	<path style="fill:#FFFFFF;" d="M90.353,38.827V10.303c0-1.012,0.828-1.84,1.794-1.84h20.013c0.92,0,1.656,0.736,1.656,1.657
		c0,0.92-0.736,1.656-1.656,1.656H93.986V22.77h16.103c0.92,0,1.656,0.783,1.656,1.656c0,0.92-0.736,1.656-1.656,1.656H93.986
		v11.271h18.402c0.92,0,1.656,0.736,1.656,1.656s-0.736,1.656-1.656,1.656H92.146C91.181,40.667,90.353,39.839,90.353,38.827z"/>
	<path style="fill:#FFFFFF;" d="M131.062,39.516l-12.421-28.661c-0.138-0.276-0.185-0.506-0.185-0.828
		c0-0.92,0.828-1.794,1.841-1.794c0.92,0,1.564,0.598,1.886,1.38l11.134,26.683l11.179-26.774c0.322-0.644,0.967-1.288,1.795-1.288
		c1.012,0,1.794,0.828,1.794,1.748c0,0.275-0.046,0.506-0.138,0.736l-12.468,28.799c-0.414,0.92-1.059,1.519-2.116,1.519h-0.185
		C132.121,41.035,131.431,40.436,131.062,39.516z"/>
	<path style="fill:#FFFFFF;" d="M154.798,10.073c0-1.012,0.828-1.84,1.794-1.84c1.012,0,1.84,0.828,1.84,1.84v28.983
		c0,1.013-0.828,1.841-1.84,1.841c-0.966,0-1.794-0.828-1.794-1.841V10.073z"/>
	<path style="fill:#FFFFFF;" d="M167.401,38.827V10.303c0-1.012,0.828-1.84,1.794-1.84h20.013c0.92,0,1.656,0.736,1.656,1.657
		c0,0.92-0.736,1.656-1.656,1.656h-18.173V22.77h16.103c0.92,0,1.656,0.783,1.656,1.656c0,0.92-0.736,1.656-1.656,1.656h-16.103
		v11.271h18.402c0.92,0,1.656,0.736,1.656,1.656s-0.736,1.656-1.656,1.656h-20.242C168.229,40.667,167.401,39.839,167.401,38.827z"
		/>
	<path style="fill:#FFFFFF;" d="M195.828,10.901c-0.092-0.275-0.184-0.552-0.184-0.828c0-0.966,0.874-1.84,1.886-1.84
		c0.92,0,1.61,0.69,1.887,1.518l8.879,25.58l8.419-25.671c0.276-0.828,0.828-1.426,1.794-1.426h0.23c0.92,0,1.518,0.598,1.794,1.426
		l8.419,25.671l8.925-25.671c0.276-0.828,0.874-1.426,1.748-1.426c0.967,0,1.841,0.874,1.841,1.794c0,0.276-0.139,0.599-0.23,0.874
		l-10.305,28.615c-0.322,0.92-0.967,1.564-1.887,1.564h-0.275c-0.921,0-1.564-0.645-1.887-1.564l-8.373-24.75l-8.327,24.75
		c-0.321,0.92-0.966,1.564-1.886,1.564h-0.276c-0.92,0-1.564-0.598-1.886-1.564L195.828,10.901z"/>
	<path style="fill:#FFFFFF;" d="M246.015,36.802c-0.414-0.276-0.69-0.782-0.69-1.38c0-1.013,0.782-1.795,1.749-1.795
		c0.46,0,0.874,0.184,1.104,0.414c3.036,2.576,6.073,3.818,10.167,3.818c4.325,0,7.177-2.3,7.177-5.475v-0.092
		c0-2.99-1.609-4.692-8.372-6.119c-7.407-1.609-10.812-4.002-10.812-9.293V16.79c0-5.061,4.462-8.787,10.581-8.787
		c4.232,0,7.314,1.058,10.259,3.174c0.368,0.276,0.782,0.782,0.782,1.472c0,0.967-0.782,1.748-1.748,1.748
		c-0.414,0-0.736-0.092-1.058-0.321c-2.715-1.979-5.337-2.807-8.327-2.807c-4.187,0-6.855,2.3-6.855,5.198v0.092
		c0,3.037,1.656,4.739,8.741,6.258c7.177,1.564,10.489,4.186,10.489,9.108v0.093c0,5.52-4.601,9.108-10.995,9.108
		C253.514,41.127,249.604,39.655,246.015,36.802z"/>
</g>
<g>
</g>
<g>
</g>
<g>
</g>
<g>
</g>
<g>
</g>
<g>
</g>
<g>
</g>
<g>
</g>
<g>
</g>
<g>
</g>
<g>
</g>
<g>
</g>
<g>
</g>
<g>
</g>
<g>
</g>
</svg>
