<svg xmlns="http://www.w3.org/2000/svg" width="57" height="72" viewBox="0 0 57 72">
  <path fill="#FFB01A" stroke="#FFB01A" d="M54.4979968,48.3513784 L37.0770114,33.2309724 C37.0793602,33.2279099 37.0821494,33.2254308 37.0844982,33.2223683 C39.9371294,29.5788759 41.4450661,25.2089891 41.4450661,20.5853529 C41.4449193,9.23458493 32.1490588,0 20.7229735,0 C9.29630088,0 0,9.23458493 0,20.5853529 C0,26.2512578 2.08001906,31.4815594 5.85690737,35.3127389 C9.73494136,39.2467307 14.9949571,41.3875596 21.1001044,41.5263927 L23.2477986,64.2166995 C23.2934536,64.6979485 23.576045,65.125531 24.0026478,65.3582805 C24.2224084,65.4783011 24.465804,65.5383843 24.7093464,65.5383843 C24.9382086,65.5383843 25.1673645,65.4853011 25.3772895,65.3786971 L38.0840642,58.9286481 L43.8559739,69.2495432 C44.1243256,69.7293339 44.6246224,70 45.1406268,70 C45.3816736,70 45.6263903,69.9407918 45.8521698,69.8161045 C46.5609236,69.4249804 46.81621,68.5371489 46.4224905,67.833067 L40.7001994,57.6005467 L54.1999914,50.7479984 C54.6337874,50.5277906 54.9292972,50.1082289 54.9888983,49.6280008 C55.0486462,49.1480643 54.8647049,48.6695861 54.4979968,48.3513784 Z M2.93601392,20.5853529 C2.93601392,10.8428316 10.915219,2.91666059 20.7229735,2.91666059 C30.5301408,2.91666059 38.5089054,10.8428316 38.5089054,20.5853529 C38.5089054,24.5021365 37.2464194,28.2052746 34.8603209,31.3071431 L31.2280313,28.1546705 C32.8468025,25.9455918 33.7017698,23.3383889 33.7017698,20.5854988 C33.7017698,13.4767219 27.8795074,7.69342147 20.7229735,7.69342147 C13.5664395,7.69342147 7.74417712,13.4767219 7.74417712,20.5854988 C7.74417712,27.5674009 13.3588633,33.270639 20.3379152,33.4737844 L20.8230915,38.5992321 C9.07609983,38.1623163 2.93601392,29.3222097 2.93601392,20.5853529 Z M19.9518294,19.5865425 C19.4170345,19.8585211 19.1030278,20.4269783 19.1593992,21.0212479 L20.0603151,30.5391864 C14.8308339,30.1986663 10.6803378,25.8658211 10.6803378,20.5854988 C10.6803378,15.0849686 15.1855044,10.6100821 20.7231203,10.6100821 C26.2607361,10.6100821 30.7659027,15.0851144 30.7659027,20.5854988 C30.7659027,22.6270154 30.158001,24.5639697 29.0054687,26.2255912 L21.5867488,19.7864796 C21.134309,19.3937513 20.4866243,19.3148556 19.9518294,19.5865425 Z M25.9684559,61.8034546 L22.4270359,24.3886784 L50.9336759,49.1307101 L25.9684559,61.8034546 Z" transform="translate(1 1)"/>
</svg>
