<svg xmlns="http://www.w3.org/2000/svg" width="250" height="58" viewBox="0 0 250 58">
  <g fill="#FFF" fill-rule="evenodd">
    <path d="M5.33383346 27.5749859L7.63920147 27.5749859C8.70321747 27.5749859 11.0996499 27.5749859 11.7514795 27.532541 12.4170168 27.1910489 12.9966658 26.7076967 13.4481537 26.1177136 14.8284988 24.5425391 16.5539301 22.3448406 17.2441027 20.8356914 17.5454301 20.1871345 17.7814308 19.5110828 17.9486538 18.8172043 18.0411082 18.2558951 18.2769651 17.7268912 18.6340335 17.2797585 18.6915479 17.2090172 18.8401267 16.9779287 18.9455697 16.8081494 19.2775715 16.2554235 19.6525173 15.7287776 20.0671001 15.2329749 20.7404976 14.2740992 21.3643369 13.2824467 21.9363174 12.2618374L22.3389181 11.5780042C22.4608965 11.0445199 22.6942611 10.5418317 23.0242977 10.1018676 13.2173293 11.0930956 5.14231058 18.1226184 2.94698675 27.5797019L5.34341919 27.5797019 5.33383346 27.5749859M30.6978047 10.7526882C30.6258747 11.1878381 30.5283887 11.618322 30.4058732 12.0418789 30.1617994 12.9414261 29.8220104 13.8505942 29.5731509 14.5144312 29.4582926 14.8174873 29.3625774 15.0772496 29.3051483 15.2600453 29.2477191 15.442841 29.1855042 15.606395 29.1041463 15.8180532 28.8966357 16.3431579 28.7239655 16.8814912 28.5872841 17.4295416 28.4830503 17.8580051 28.4684058 18.3035456 28.5442123 18.737974L28.7069282 18.737974C28.9458333 18.7478353 29.1839249 18.7719355 29.4200065 18.8101302 29.611437 18.8438031 29.8985826 18.9207697 30.1857283 19.0025467 30.5093893 19.1008234 30.8386017 19.1795218 31.171595 19.2382569 31.8625631 19.2569213 32.5508034 19.332541 33.2294721 19.4643463 33.8707641 19.6134692 35.6845674 20.1426146 36.4167889 20.8160724L36.6417196 20.9988681C37.5242139 21.679734 38.3141516 22.4737889 38.9915282 23.360781 39.9653348 24.6139417 40.3177104 26.2449123 39.9486804 27.7911715 39.8338699 28.2886163 39.6153043 28.7559479 39.3073884 29.1621392 39.8365978 29.94691 40.1653317 30.8506423 40.2645406 31.7934352 40.3660944 33.029519 39.945761 34.2516044 39.1063864 35.1607244 39.6868992 36.1955405 39.8102283 37.4272949 39.4466062 38.5576457 39.0829362 39.6879966 38.2654804 40.613953 37.1920821 41.1112054 37.430078 41.8639389 37.430078 42.6722807 37.1920821 43.4250141 36.8164956 44.7985795 35.7522381 45.8738512 34.3876263 46.2583475 33.8276922 46.4267119 33.2342579 46.590266 32.951898 46.6576118 32.6796361 46.7258234 32.3997169 46.7581975 32.1191756 46.75382 31.851173 46.75382 31.5640274 46.729768 31.310382 46.7057159L31.0280222 46.7057159C30.9406342 46.718704 30.8542512 46.7380419 30.7695911 46.7634409 30.3496406 46.8803339 29.9176778 46.9481607 29.4822214 46.9654782L29.3960777 46.9654782C28.8833792 46.9563384 28.3724992 46.9014997 27.86942 46.8019242L27.7306329 46.7778721C27.6062032 46.7778721 27.3477721 46.8067346 27.1371986 46.8307866L26.7112659 46.8740804C26.6107649 46.8740804 26.4624063 46.9221845 26.2757616 46.9606678 25.0772157 47.2449632 23.8508166 47.3931239 22.6194404 47.4032258 22.3801523 47.4032258 22.1408643 47.4032258 21.8776474 47.4032258 20.6322968 47.3373231 19.3971876 47.1410583 18.1926116 46.8163554 17.9087681 46.7392926 17.6212875 46.676661 17.3311746 46.6287493 16.5606672 46.5277306 14.7947214 46.4267119 14.0385712 46.4267119L13.8519265 46.4267119C13.5360663 46.4267119 13.1292766 46.4555744 12.6650578 46.4555744 11.741406 46.4555744 10.6119664 46.4267119 9.51602721 46.393039 8.58280384 46.3497453 7.69743809 46.3497453 7.07050342 46.3497453L6.68764255 46.3497453C6.36565657 46.3419525 6.04515416 46.3032767 5.73049039 46.2342954 11.5437062 54.5279287 22.0667807 58.0289474 31.654909 54.8588851 41.2430372 51.6888229 47.6437052 42.5927165 47.4236559 32.4496237 47.2035588 22.3065789 40.4143349 13.4994822 30.6978047 10.7526882"/>
    <path fill-rule="nonzero" d="M32.2206563,9.73488551 C32.2163978,9.2593738 32.1828566,8.78452561 32.1201761,8.31304245 C31.8992631,6.55611837 31.2632234,4.87549987 30.2636844,3.40768388 L30.1823433,3.279718 C29.4365409,2.01848159 28.2420225,1.0786765 26.8330027,0.644568856 C26.3526595,0.517446607 25.8562872,0.459970971 25.3592929,0.473947688 C24.5009526,0.427230664 23.6494067,0.647640037 22.9238438,1.10429811 C21.7544933,1.80131876 21.0309879,3.04658313 21.0099349,4.39823454 L21.0099349,4.45510827 C21.0069684,4.5119346 21.0069684,4.56890311 21.0099349,4.62572944 L21.2874517,7.27983649 C21.2001296,7.61463313 21.150368,7.95796084 21.1391238,8.30356349 L21.0817065,8.48366362 L20.9620872,8.68272164 C16.0466428,9.34785983 11.4546969,11.4881128 7.80396353,14.8156047 C4.12665075,18.1741876 1.57109911,22.5639859 0.478477224,27.3989158 C0.364135522,27.885281 0.480448551,28.3967653 0.794272193,28.7875826 C1.10863651,29.1710063 1.58275481,29.3909654 2.08137593,29.3847567 L10.0480217,29.3847567 C10.5904235,29.3807755 11.129141,29.296081 11.6461356,29.1335644 C11.995424,28.9961196 12.7370637,28.5790456 13.8040679,27.3515211 C14.5122142,26.5410705 16.890246,23.7353002 17.8472005,21.6641488 C18.1937615,20.918013 18.4662065,20.1402174 18.6606118,19.3418051 C18.7009474,19.0384786 18.8035329,18.7465269 18.9620524,18.4839598 L19.0003306,18.4413045 C19.1756925,18.2284546 19.3355517,18.0035665 19.4788078,17.7682988 C19.7616357,17.284967 20.0815934,16.8238633 20.4357623,16.3891111 C21.1857275,15.3585592 21.8666484,14.2803756 22.4740752,13.1615273 L22.8616418,12.5074795 C22.9519783,12.3607927 23.0181995,12.2008353 23.0578174,12.0335318 C23.1236081,11.713238 23.2555242,11.409864 23.445384,11.1425101 C23.5131842,11.0567256 23.5724676,10.964685 23.6224206,10.8676205 C23.6606988,10.7896561 23.692661,10.708848 23.718116,10.6259072 C23.7582603,10.4759027 23.8229025,10.333434 23.9095069,10.2040937 C24.0484567,10.0271217 24.1494154,9.82394028 24.2061628,9.60691964 C24.2453979,9.44648834 24.2933413,9.28828461 24.349706,9.13297195 C24.427315,8.94154448 24.4679377,8.73736781 24.4693253,8.53105838 C24.4583681,8.35778311 24.4810958,8.18398649 24.5363121,8.01919488 C24.625883,7.78018306 24.6586109,7.52391955 24.6320075,7.27035753 L24.3257821,4.36979768 L24.3257821,4.3461003 C24.3753523,4.12059599 24.5246851,3.92916852 24.7324877,3.82475784 C24.931917,3.74819159 25.1458921,3.71583518 25.3592929,3.7299683 C25.5346548,3.72575491 25.7098732,3.74327202 25.8808331,3.78210255 C26.5244806,3.99087651 27.0635331,4.43496549 27.3880363,5.02384549 L27.4980861,5.19446666 C28.2319266,6.25530377 28.694949,7.47671436 28.8473919,8.7538138 C29.0045716,9.75896205 28.9209817,10.7866228 28.6033685,11.7539027 C28.3784842,12.5643532 28.0579044,13.417459 27.8138811,14.0478095 L27.7803877,14.1331201 C27.6703379,14.4174887 27.5794272,14.6686809 27.5172252,14.8535205 C27.4550231,15.0383601 27.416745,15.1426286 27.3449734,15.3274682 C27.1229121,15.9042626 26.939129,16.4948014 26.7947246,17.0952931 C26.6350089,17.7408573 26.6121855,18.4122042 26.7277378,19.0669155 C26.8575008,19.8038567 27.4768896,20.3588021 28.2301562,20.4129269 L28.4359015,20.4129269 C28.5960956,20.4205101 28.7558113,20.4363399 28.9143787,20.4603217 C28.9957198,20.4603217 29.1727564,20.5171954 29.5698925,20.6214639 C29.9954501,20.7552593 30.4327783,20.848864 30.8761353,20.901093 C31.475763,20.9248852 32.0734289,20.9850292 32.6656401,21.0811932 C33.5299614,21.2593501 34.3580619,21.5797387 35.1154435,22.0290885 L35.3546821,22.2234071 L35.4073146,22.2755413 C36.1783807,22.8593975 36.8699716,23.5396072 37.4647667,24.299298 C38.1525777,25.1463847 38.4068405,26.2605883 38.1537739,27.3183447 C38.0928159,27.5907225 37.9719047,27.8464173 37.7997007,28.0671821 C37.3882103,28.598904 37.344621,29.3250866 37.689651,29.9013596 C38.0612364,30.4465417 38.3063603,31.0664652 38.4073668,31.7165793 C38.490574,32.4926686 38.23856,33.2673835 37.7135748,33.8493439 C37.2209347,34.3576054 37.1111242,35.1208033 37.4408428,35.7451346 C37.8060645,36.3608875 37.8938651,37.1001511 37.6828566,37.7830149 C37.4718481,38.4659261 36.9813611,39.0298765 36.3307757,39.3376581 C35.5276516,39.6685684 35.123147,40.5613436 35.4073146,41.3756332 C35.5522454,41.8111911 35.5522454,42.2813472 35.4073146,42.7169051 C35.174057,43.5183981 34.5326104,44.1394117 33.71829,44.3520246 C33.172826,44.5179063 32.5890838,44.6695696 32.3641995,44.7311828 C32.0054851,44.7807577 31.6415553,44.7807577 31.2828409,44.7311828 L31.2158541,44.7311828 C31.0962348,44.7311828 30.9909698,44.7311828 30.9000592,44.7311828 C30.8220195,44.7255428 30.743645,44.7255428 30.6656053,44.7311828 C30.5040236,44.7491454 30.3440686,44.7792411 30.1871281,44.8212329 C29.8906636,44.9039841 29.5856822,44.9532747 29.2780214,44.9681566 L29.1871107,44.9681566 C28.7688738,44.9520424 28.3527421,44.9012826 27.9430699,44.8164934 L27.794742,44.7880565 C27.6928742,44.7790041 27.5903843,44.7790041 27.4885165,44.7880565 C27.3306191,44.7880565 27.0100393,44.8259723 26.7803703,44.8496697 L26.3306017,44.8970645 C26.2205519,44.8970645 26.0770087,44.9349803 25.8521244,44.9871145 L25.6990117,45.0202909 C24.4142047,45.3293522 23.0914544,45.4554223 21.7707137,45.3947096 C20.6208372,45.3353239 19.4805303,45.1557925 18.3687406,44.8591487 C18.0332324,44.7695726 17.6929873,44.6983856 17.3495842,44.6458722 L16.8711069,44.5747801 L16.8136897,44.5747801 C15.6009413,44.3589443 14.3711591,44.2510738 13.1389846,44.2524956 L5.54076626,44.2524956 C4.93539688,44.2592257 4.38323416,44.5965343 4.10533459,45.1292989 C3.82165979,45.6691727 3.86215332,46.320045 4.21059958,46.8212921 C10.3486968,55.4442963 21.3946785,59.170947 31.5703579,56.0514233 C41.7459416,52.9323736 48.7362547,43.6771705 48.8841041,33.1272846 C49.0324321,22.5773986 42.3047552,13.1331852 32.2206563,9.73488551 M38.8045029,41.6789597 C40.0247634,40.7349981 40.8234376,39.355289 41.029422,37.8352439 C41.1609554,36.9610948 41.0772219,36.0684617 40.7853986,35.2332711 C41.4527308,34.1440446 41.7698177,32.8795047 41.6945053,31.6075713 C41.6444088,30.7321425 41.4062707,29.8773779 40.9959286,29.100388 C41.1466011,28.7781036 41.2636366,28.4414586 41.345217,28.0956189 C41.8205362,26.1041856 41.3654087,24.0066353 40.105961,22.3845493 C39.3442252,21.3922924 38.4528221,20.504541 37.4551971,19.7446607 L37.3212235,19.6261738 C36.1441695,18.555052 33.6656575,17.9673569 33.3881407,17.9057437 C32.6438216,17.7592464 31.888306,17.6752155 31.1297282,17.6545514 C31.0244632,17.6545514 30.7708703,17.5692408 30.4120124,17.4744513 L30.1105717,17.3938802 C30.2206215,17.0384194 30.3306713,16.7540508 30.4311515,16.4933795 C30.5316317,16.2327083 30.6081881,16.0194319 30.6656053,15.8582896 C30.7230226,15.6971474 30.7804399,15.5360052 30.861781,15.3227288 L30.9048439,15.2042418 C31.1249435,14.6260257 31.4215993,13.8392725 31.6704075,13.0146035 C39.9783511,15.9676294 45.5951474,23.6803697 45.8031414,32.4210077 C46.0111833,41.1616932 40.7675036,49.1279955 32.6092755,52.4655351 C24.4509996,55.8030747 15.0604056,53.8233952 8.9810175,47.4848189 L13.1581237,47.4848189 C14.2107736,47.483871 15.261366,47.5772387 16.2969343,47.764448 L16.3352124,47.764448 L16.933309,47.8687165 C17.0624978,47.8687165 17.3543689,47.9587666 17.6079619,48.0203798 C18.9129128,48.3635179 20.2502088,48.5715809 21.5984619,48.6412512 C23.2252845,48.7057081 24.8533032,48.5464617 26.4358667,48.1673035 L26.5650555,48.1388667 L26.6990291,48.1056903 L27.1775064,48.0535561 L27.4358841,48.0251192 C28.015942,48.1398146 28.6052345,48.2033236 29.1966802,48.2146983 L29.3545777,48.2146983 C29.8961182,48.1952664 30.4337831,48.1156432 30.9574764,47.9777245 C31.2445628,48.0061613 31.5794968,48.0345982 31.9144309,48.0345982 C32.3355865,48.0374419 32.7553067,47.9867295 33.1632564,47.8829349 C33.7230748,47.7360111 34.2159063,47.5985663 34.6321815,47.4753399 C36.5451335,46.9336177 38.0320014,45.4393554 38.55091,43.5368346 C38.7362721,42.9352054 38.8218716,42.3077461 38.8045029,41.6789597 M10.4308035,26.0955597 C10.3016146,26.0955597 10.1245781,26.128736 10.0528065,26.128736 L4.25366253,26.128736 C6.50566343,19.3187239 12.1242301,14.1272431 19.139089,12.3747741 C18.7757334,13.0289641 18.3747216,13.6619213 17.9381111,14.2705649 C17.4664283,14.8393495 17.0393395,15.4430167 16.660577,16.0763056 L16.6222988,16.1142214 L16.4691861,16.3559347 C15.9606605,16.9905981 15.6172574,17.7392458 15.4691687,18.5360941 C15.3273002,19.1404722 15.1253349,19.7294944 14.8662874,20.29444 C14.3591015,21.3939986 12.9523785,23.3229657 11.3303407,25.2092775 C11.0649294,25.5371071 10.7632016,25.8344145 10.4308035,26.0955597"/>
    <path d="M64.4393241,48.0439509 C63.9592934,48.0439509 63.4264593,48.0439509 62.8216206,47.992244 C62.2201421,47.9583994 61.6239439,47.8672072 61.0407066,47.7196075 L60.7766897,47.6490981 L51.4784946,20.493566 L52.0353303,20.3713497 C52.7476959,20.2039133 53.4739823,20.096974 54.2050691,20.0517069 C54.8675115,20.0188025 55.4195469,20 55.8947773,20 C56.5140169,20 57.1524578,20 57.8149002,20.0517069 C58.4322197,20.0828251 59.0447389,20.1741583 59.6438172,20.3243434 L59.9318356,20.3995534 L64.7993472,38.5533815 L69.5996544,20.3807509 L69.9116743,20.3196428 C70.4862711,20.209601 71.0661482,20.1295963 71.6493856,20.0799107 C72.2542243,20.0282038 72.8686636,20 73.4735023,20 C73.953533,20 74.4815668,20 75.1152074,20.0517069 C75.844374,20.1016746 76.5682604,20.2085669 77.2801459,20.3713497 L77.8321813,20.493566 L68.3323733,47.7290088 L68.0347542,47.7807157 C67.3996736,47.8888301 66.7583525,47.9593396 66.1146313,47.992244 C65.4233871,48.0251484 64.8809524,48.0439509 64.4393241,48.0439509"/>
    <path fill-rule="nonzero" d="M88.6690562,48.8137907 C87.1660693,48.8274023 85.6669056,48.6696962 84.2007168,48.3444274 C82.9003584,48.0599932 81.6769415,47.5066138 80.6117085,46.7204301 C79.5918757,45.94415 78.7870968,44.9291048 78.2700119,43.7681345 C77.69319,42.3909285 77.4164875,40.9104156 77.4575866,39.4218297 C77.4097969,37.9045656 77.7620072,36.4008662 78.4802867,35.0567503 C79.1187575,33.9280722 80.0191159,32.9632019 81.1087216,32.2405701 C82.1878136,31.5353516 83.3873357,31.0266086 84.6499403,30.7386073 C85.9015532,30.4375576 87.1847073,30.2800393 88.4731183,30.2692439 C89.2281959,30.2692439 90.0597372,30.306793 90.948626,30.3771975 L90.948626,30.3255675 C90.9739546,29.7168501 90.8645161,29.1100102 90.6284349,28.5466803 C90.4425329,28.1425585 90.148626,27.7954642 89.7777778,27.5422427 C89.3519713,27.2759729 88.8726404,27.1030594 88.3727599,27.0353303 C87.6994026,26.9336192 87.018399,26.8849932 86.3369176,26.8898276 C84.5615293,26.9230116 82.8071685,27.2762075 81.1612903,27.9318143 L80.7264038,28.0960915 L80.5304659,27.692439 C80.1146953,26.8606802 79.7772999,25.9934844 79.5221027,25.1015532 C79.2769415,24.139546 79.1612903,23.1501749 79.1780167,22.1586448 L79.1780167,21.797235 L79.5029869,21.6752005 C80.8602151,21.16397 82.2633214,20.7789512 83.6941458,20.5252603 C88.9510155,19.5865335 92.9271207,20.426694 95.5173238,22.8720771 C97.4289128,24.6697389 98.3847073,27.5657109 98.3847073,31.4191842 L98.3847073,47.119389 L98.0454002,47.2367298 C96.7297491,47.6755846 95.3892473,48.0388718 94.0310633,48.3256528 C92.2671446,48.6786141 90.4692951,48.8424219 88.6690562,48.8137907 M89.0896057,35.8218126 C87.9173238,35.7541304 86.7512545,36.0355137 85.744325,36.6291176 C84.9988053,37.1313364 84.6356033,37.943335 84.6356033,39.1073562 C84.5940263,39.7206264 84.7402628,40.3320661 85.0561529,40.8627752 C85.3151732,41.2551161 85.678853,41.5700589 86.1075269,41.7733402 C86.539546,41.9723033 87.0035842,42.0961683 87.479092,42.1394436 C88.004779,42.1910736 88.4683393,42.2145417 88.8506571,42.2145417 C89.288411,42.2148233 89.7252091,42.1755376 90.1553166,42.0972009 L90.953405,41.9470046 L90.953405,36.0142516 C90.7096774,35.9767025 90.4755078,35.9391534 90.1887694,35.9109916 C89.8227001,35.8663552 89.4537634,35.8428401 89.0848268,35.8405871 L89.0896057,35.8218126"/>
    <path d="M119.866735,48.0913978 C118.729505,48.0890132 117.595611,47.9817031 116.477923,47.7718522 L116.068024,47.6955428 L116.068024,32.0950399 C116.068024,30.316077 115.829711,28.9425078 115.357851,28.012487 C114.939373,27.1854839 114.059044,26.6977714 113.136773,26.7819979 C112.634885,26.7869103 112.136811,26.8673214 111.659231,27.0204648 C111.159727,27.1829084 110.714558,27.4799428 110.37234,27.8789455 C109.913349,28.4384842 109.577328,29.0884972 109.385724,29.7866805 C109.091646,30.8888744 108.958667,32.0277922 108.990124,33.1681408 L108.990124,47.6764655 L108.580226,47.7527749 C106.341036,48.176769 104.041791,48.176769 101.8026,47.7527749 L101.392702,47.6764655 L101.392702,20.0047693 L101.778769,19.9093826 C102.226321,19.8020248 102.680069,19.720803 103.137154,19.6661464 C103.633799,19.6096297 104.133779,19.5825399 104.63376,19.5850676 C105.121349,19.5814429 105.608461,19.6085328 106.092237,19.6661464 C106.531686,19.7239507 106.967323,19.8051726 107.398193,19.9093826 L107.617441,19.9618453 L107.722298,20.1621575 C107.85909,20.4408776 107.959658,20.735718 108.022573,21.0397156 C108.103599,21.3831079 108.175093,21.7408082 108.237055,22.1128165 C108.275185,22.3354015 108.309979,22.554791 108.341913,22.7709851 C108.472032,22.6024844 108.607393,22.4323621 108.747045,22.260666 C109.216998,21.7001734 109.755109,21.2003469 110.348509,20.7726327 C110.978132,20.3198318 111.668287,19.957076 112.398002,19.6947624 C113.213986,19.4075052 114.07382,19.2654743 114.93842,19.2750607 C117.798177,19.2750607 120.004957,20.1764655 121.477732,21.950659 C122.950507,23.7248526 123.655914,26.4481443 123.655914,30.1205342 L123.655914,47.6907735 L123.246015,47.7670829 C122.131663,47.9778876 121.000629,48.0866285 119.866735,48.0913978"/>
    <path fill-rule="nonzero" d="M137.046595,48.8137907 C135.543608,48.8274023 134.044444,48.6696962 132.578256,48.3444274 C131.277897,48.0599932 130.05448,47.5066138 128.989247,46.7204301 C127.969415,45.94415 127.164636,44.9291048 126.647551,43.7681345 C126.070729,42.3909285 125.794026,40.9104156 125.835125,39.4218297 C125.787336,37.9045656 126.139546,36.4008662 126.857826,35.0567503 C127.496296,33.9280722 128.396655,32.9632019 129.48626,32.2405701 C130.565352,31.5353516 131.764875,31.0266086 133.027479,30.7386073 C134.279092,30.4375576 135.562246,30.2800393 136.850657,30.2692439 C137.605735,30.2692439 138.437276,30.306793 139.326165,30.3771975 L139.326165,30.3255675 C139.351493,29.7168501 139.242055,29.1100102 139.005974,28.5466803 C138.820072,28.1425585 138.526165,27.7954173 138.155317,27.5422427 C137.72951,27.2759729 137.250179,27.1030594 136.750299,27.0353303 C136.076941,26.9336192 135.395938,26.8849932 134.714456,26.8898276 C132.93859,26.9230116 131.184707,27.2762075 129.538829,27.9318143 L129.103943,28.0960915 L128.908005,27.692439 C128.492234,26.8606802 128.154839,25.9934844 127.899642,25.1015532 C127.65448,24.139546 127.538829,23.1501749 127.555556,22.1586448 L127.555556,21.797235 L127.880526,21.6752005 C129.237754,21.16397 130.64086,20.7789512 132.071685,20.5252603 C137.328554,19.5865335 141.304659,20.426694 143.894863,22.8720771 C145.806452,24.6697389 146.762246,27.5657109 146.762246,31.4191842 L146.762246,47.119389 L146.422939,47.2367298 C145.107288,47.6755846 143.766786,48.0388718 142.408602,48.3256528 C140.644683,48.6786141 138.846834,48.8424219 137.046595,48.8137907 M137.467145,35.8218126 C136.294863,35.7541304 135.128793,36.0355137 134.121864,36.6291176 C133.376344,37.1313364 133.013142,37.943335 133.013142,39.1073562 C132.971565,39.7206264 133.117802,40.3320661 133.433692,40.8627752 C133.694146,41.2557732 134.059259,41.5708099 134.489845,41.7733402 C134.921864,41.9723033 135.385902,42.0961683 135.86141,42.1394436 C136.387097,42.1910736 136.850657,42.2145417 137.232975,42.2145417 C137.670729,42.2148233 138.107527,42.1755376 138.537634,42.0972009 L139.335723,41.9470046 L139.335723,36.0142516 C139.091995,35.9767025 138.857826,35.9391534 138.571087,35.9109916 C138.205018,35.8663552 137.836081,35.8428401 137.467145,35.8405871 L137.467145,35.8218126"/>
    <path d="M153.673835,48.0956578 C153.136201,48.0956578 152.569241,48.0956578 151.997393,48.0439509 C151.395732,48.0049357 150.797002,47.9344262 150.203649,47.8324226 L149.778429,47.7619132 L149.778429,20.4042541 L150.184099,20.3149421 C150.672858,20.2115283 151.161616,20.1316176 151.591724,20.0752101 C152.566308,19.9605617 153.552134,19.97001 154.524275,20.1034138 C155.013034,20.1739233 155.472467,20.2632352 155.922124,20.366649 L156.146953,20.418356 L156.25448,20.6157824 C156.394754,20.8904871 156.497882,21.18108 156.562398,21.480698 C156.645487,21.8191433 156.718801,22.1716905 156.78234,22.5383395 C156.824862,22.7827722 156.863962,23.0256537 156.899642,23.266937 C157.466601,22.5821494 158.101499,21.9524061 158.796025,21.3866855 C159.956826,20.4573242 161.430922,19.9690229 162.940697,20.0141019 C163.268166,20.0141019 163.639622,20.0141019 164.079505,20.0658088 C164.433366,20.0843293 164.782828,20.1459545 165.12056,20.2491333 L165.399153,20.3478465 L165.452916,20.6298842 C165.525741,21.0376168 165.576083,21.4486868 165.604431,21.861449 C165.638645,22.3315118 165.653307,22.8015747 165.653307,23.2716376 C165.653307,23.8592162 165.628869,24.5079029 165.579993,25.1988954 C165.535028,25.8743287 165.445585,26.5463306 165.311176,27.2107644 L165.208537,27.6808273 L164.719778,27.5821141 C164.36885,27.5171044 164.011567,27.4856102 163.654285,27.4881015 L162.867384,27.4881015 C162.291626,27.4944004 161.717335,27.551043 161.151841,27.6573242 C160.531118,27.7846172 159.958293,28.0722487 159.494949,28.4893354 C158.871294,29.0749868 158.405018,29.7977084 158.136201,30.5952171 C157.704138,31.9410071 157.514011,33.3479523 157.574128,34.7552735 L157.574128,47.7713144 L157.153796,47.8465245 C156.565819,47.9513485 155.971489,48.0218579 155.374715,48.0580528 C154.783317,48.0768553 154.21147,48.0956578 153.673835,48.0956578"/>
    <path fill-rule="nonzero" d="M178.236559,48.8137907 C176.733572,48.8274023 175.234409,48.6696962 173.76822,48.3444274 C172.467861,48.0599932 171.244444,47.5066138 170.179211,46.7204301 C169.159379,45.94415 168.3546,44.9291048 167.837515,43.7681345 C167.260693,42.3909285 166.98399,40.9104156 167.02509,39.4218297 C166.9773,37.9045656 167.32951,36.4008662 168.04779,35.0567503 C168.68626,33.9280722 169.586619,32.9632019 170.676225,32.2405701 C171.755317,31.5353516 172.954839,31.0266086 174.217443,30.7386073 C175.469056,30.4375576 176.75221,30.2800393 178.040621,30.2692439 C178.795699,30.2692439 179.62724,30.306793 180.516129,30.3771975 L180.516129,30.3255675 C180.541458,29.7168501 180.432019,29.1100102 180.195938,28.5466803 C180.010036,28.1425585 179.716129,27.7954642 179.345281,27.5422427 C178.919474,27.2759729 178.440143,27.1030594 177.940263,27.0353303 C177.266428,26.9336192 176.585902,26.8849932 175.904421,26.8898276 C174.129032,26.9230116 172.374671,27.2762075 170.728793,27.9318143 L170.293907,28.0960915 L170.097969,27.692439 C169.682198,26.8606802 169.344803,25.9934844 169.089606,25.1015532 C168.844444,24.139546 168.728793,23.1501749 168.74552,22.1586448 L168.74552,21.797235 L169.07049,21.6752005 C170.427718,21.16397 171.830824,20.7789512 173.261649,20.5252603 C178.518519,19.5865335 182.494624,20.426694 185.084827,22.8720771 C186.996416,24.6697389 187.95221,27.5657109 187.95221,31.4191842 L187.95221,47.119389 L187.612903,47.2367298 C186.297252,47.6755846 184.95675,48.0388718 183.598566,48.3256528 C181.834648,48.6786141 180.036798,48.8424219 178.236559,48.8137907 M178.657109,35.8218126 C177.484827,35.7541304 176.318757,36.0355137 175.311828,36.6291176 C174.566308,37.1313364 174.203106,37.943335 174.203106,39.1073562 C174.161529,39.7206264 174.307766,40.3320661 174.623656,40.8627752 C174.88411,41.2557732 175.249223,41.5708099 175.679809,41.7733402 C176.111828,41.9723033 176.575866,42.0961683 177.051374,42.1394436 C177.577061,42.1910736 178.040621,42.2145417 178.422939,42.2145417 C178.860693,42.2148233 179.297491,42.1755376 179.727599,42.0972009 L180.525687,41.9470046 L180.525687,36.0142516 C180.281959,35.9767025 180.04779,35.9391534 179.761051,35.9109916 C179.394982,35.8663552 179.026045,35.8428401 178.657109,35.8405871 L178.657109,35.8218126"/>
    <path d="M222.660819,48.0913978 C221.535559,48.0890132 220.413601,47.9817031 219.307678,47.7718522 L218.902094,47.6955428 L218.902094,32.0950399 C218.963875,30.6984825 218.767214,29.3026405 218.322015,27.9791016 C217.987172,27.1635449 217.336352,26.7819979 216.279947,26.7819979 C215.809753,26.7830949 215.34286,26.8620274 214.898132,27.0156955 C214.445859,27.1822884 214.04452,27.4650147 213.733258,27.8360215 C213.310224,28.3610302 213.001792,28.9705038 212.827768,29.6245231 C212.555178,30.6502168 212.431145,31.7105836 212.459913,32.7722858 L212.459913,47.6955428 L212.054329,47.7718522 C209.83871,48.1958463 207.563667,48.1958463 205.348048,47.7718522 L204.942464,47.6955428 L204.942464,32.0950399 C205.004244,30.6984825 204.807583,29.3025928 204.362384,27.9791016 C204.027542,27.1635449 203.376721,26.7819979 202.320317,26.7819979 C201.839276,26.7830949 201.362007,26.8619797 200.90549,27.0156955 C200.440955,27.1822884 200.033484,27.4802289 199.731183,27.8741762 C199.306263,28.4406304 199.003018,29.0903096 198.839842,29.7819112 C198.579042,30.8955038 198.462083,32.0384755 198.490851,33.1824488 L198.490851,47.6907735 L198.085267,47.7670829 C195.869647,48.191077 193.594605,48.191077 191.378985,47.7670829 L190.973401,47.6907735 L190.973401,20.0047693 L191.355405,19.9093826 C191.798246,19.8020248 192.247218,19.720803 192.699491,19.6661464 C193.190907,19.6096297 193.685625,19.5825399 194.180343,19.5850676 C194.662799,19.5814429 195.144784,19.6085328 195.623467,19.6661464 C196.058291,19.7239507 196.489342,19.8051726 196.915676,19.9093826 L197.132616,19.9618453 L197.23637,20.1621575 C197.371722,20.4408776 197.471232,20.735718 197.533484,21.0397156 C197.613658,21.3831079 197.684399,21.7408082 197.745708,22.1128165 C197.774005,22.2940513 197.802301,22.4705168 197.830598,22.6469823 C197.918789,22.5229795 198.008395,22.4005506 198.099415,22.2797433 C198.53754,21.7130029 199.050179,21.2091701 199.622713,20.7821713 C200.230145,20.3277489 200.898887,19.9632284 201.608187,19.6995317 C202.408508,19.4102237 203.25316,19.2680975 204.102999,19.27983 C207.616487,19.27983 210.031126,20.6581686 211.299755,23.3862296 C211.893982,22.4190557 212.635823,21.5530394 213.497453,20.820326 C214.789662,19.7718826 216.411998,19.2299905 218.067346,19.2941381 C220.897001,19.2941381 223.047538,20.2098508 224.415205,22.0126604 C225.782871,23.81547 226.42426,26.529223 226.42426,30.1968436 L226.42426,47.7146202 L226.018676,47.7909296 C224.910866,47.9945803 223.787021,48.0952133 222.660819,48.0913978"/>
    <path fill-rule="nonzero" d="M240.46819,48.8137907 C238.995092,48.8274023 237.525741,48.6696962 236.08871,48.3444274 C234.814211,48.0599932 233.615123,47.5066138 232.571074,46.7204301 C231.571522,45.94415 230.782747,44.9291048 230.275945,43.7681345 C229.710594,42.3909285 229.439394,40.9104156 229.479676,39.4218297 C229.432836,37.9045656 229.778043,36.4008662 230.482038,35.0567503 C231.107812,33.9280722 231.990266,32.9632019 233.058203,32.2405701 C234.115836,31.5353516 235.291504,31.0266086 236.529,30.7386073 C237.755723,30.4375576 239.013359,30.2800393 240.276149,30.2692439 C241.01621,30.2692439 241.831215,30.306793 242.702428,30.3771975 L242.702428,30.3255675 C242.727252,29.7168501 242.61999,29.1100102 242.388604,28.5466803 C242.210146,28.1442482 241.927236,27.7973417 241.568915,27.5422427 C241.143145,27.2721241 240.66351,27.0990698 240.163734,27.0353303 C239.503768,26.9336192 238.836307,26.8849932 238.168377,26.8898276 C236.442815,26.9266726 234.737862,27.2781789 233.13783,27.9271207 L232.711592,28.0913978 L232.491447,27.692439 C232.083944,26.8606802 231.753258,25.9934844 231.503136,25.1015532 C231.26285,24.139546 231.149499,23.1501749 231.165893,22.1586448 L231.165893,21.797235 L231.4844,21.6752005 C232.814638,21.16397 234.189842,20.7789512 235.592212,20.5252603 C240.744542,19.5865335 244.641577,20.426694 247.18027,22.8720771 C249.053845,24.6697389 249.990632,27.5657109 249.990632,31.4191842 L249.990632,47.119389 L249.658073,47.2367298 C248.368585,47.6755846 247.054741,48.0388718 245.723566,48.3256528 C243.994725,48.6786141 242.232629,48.8424219 240.46819,48.8137907 M240.880376,35.8218126 C239.731407,35.7541304 238.588526,36.0355137 237.601621,36.6291176 C236.870927,37.1313364 236.514948,37.943335 236.514948,39.1073562 C236.474198,39.7206264 236.617526,40.3320661 236.927134,40.8627752 C237.182409,41.2557732 237.540261,41.5708099 237.962284,41.7733402 C238.385712,41.9723033 238.840522,42.0961683 239.306574,42.1394436 C239.821807,42.1910736 240.276149,42.2145417 240.650863,42.2145417 C241.079912,42.2148233 241.508024,42.1755376 241.929578,42.0972009 L242.711795,41.9470046 L242.711795,36.0142516 C242.472915,35.9767025 242.243402,35.9391534 241.962366,35.9109916 C241.603576,35.8663552 241.241976,35.8428401 240.880376,35.8405871 L240.880376,35.8218126"/>
  </g>
</svg>
