<svg xmlns="http://www.w3.org/2000/svg" width="250" height="33" viewBox="0 0 250 33">
  <path fill="#FFF" d="M48.4275982,8.22423507 L43.944508,20.9030558 L53.3627472,20.9030558 L48.4275982,8.22423507 M66.3245443,33.0499261 L58.1176977,33.0499261 L55.6063756,26.5985261 L41.9237843,26.5985261 L39.6364083,33.0499261 L31.5618462,33.0499261 L43.8997188,0.423960568 L52.7336147,0.423960568 L66.3245443,33.0499261 M76.5010757,13.8237143 L80.5362736,13.8237143 C82.6476174,13.8237143 84.7079223,12.8658034 84.7079223,10.0940612 C84.7079223,7.6562879 83.2288359,6.40840396 80.3581582,6.40840396 L76.5010757,6.40840396 L76.5010757,13.8237143 M82.5538725,0.430960917 C88.8337403,0.430960917 92.5585383,4.92454197 92.5585383,9.80708786 C92.5585383,13.3937543 90.8096748,16.0725051 87.3077813,17.7933451 C90.4513609,19.4641897 91.3940181,23.4868155 95.6958681,33.0499261 L87.3077813,33.0499261 C84.0350422,26.0695753 82.8236495,19.8021582 78.7019981,19.8021582 L76.5010757,19.8021582 L76.5010757,33.0499261 L68.8785725,33.0499261 L68.8785725,0.430959917 L82.5538725,0.430959917 L82.5538725,0.430960917 M138.974771,13.8237143 L143.008927,13.8237143 C145.119229,13.8237143 147.183701,12.8658034 147.183701,10.0940612 C147.183701,7.6562879 145.702531,6.40840396 142.833937,6.40840396 L138.974771,6.40840396 L138.974771,13.8237143 M145.026526,0.430960917 C151.304311,0.430960917 155.029109,4.92454197 155.029109,9.80708786 C155.029109,13.3937543 153.276079,16.0725051 149.780435,17.7933451 C152.919848,19.4641897 153.863547,23.4868155 158.170605,33.0499261 L149.780435,33.0499261 C146.504571,26.0695753 145.292137,19.8021582 141.166319,19.8021582 L138.969563,19.8021582 L138.969563,33.0499261 L131.343935,33.0499261 L131.343935,0.430959917 L145.044234,0.430959917 L145.026526,0.430960917 M177.003959,8.22423507 L172.519827,20.9030558 L181.938066,20.9030558 L177.01125,8.22423507 L177.003959,8.22423507 M194.898822,33.0499261 L186.691975,33.0499261 L184.184819,26.5985261 L170.499103,26.5985261 L168.215894,33.0499261 L160.139248,33.0499261 L172.478162,0.423960568 L181.309975,0.423960568 L194.892572,33.0499261 L194.898822,33.0499261 M219.022513,6.40840396 L205.569076,6.40840396 L205.569076,13.6827274 L219.022513,13.6827274 L219.022513,19.6581716 L205.569076,19.6581716 L205.569076,33.0499261 L197.93824,33.0499261 L197.93824,0.430959917 L219.022513,0.430959917 L219.022513,6.40840396 M249.989584,6.40840396 L239.835968,6.40840396 L239.835968,33.0499261 L232.206173,33.0499261 L232.206173,6.40840396 L222.053599,6.40840396 L222.053599,0.430959917 L250,0.430959917 L250,6.40840396 L249.989584,6.40840396 M18.7521242,26.6925174 C21.6925897,26.6925174 23.9330932,25.9565858 26.6694032,24.6727052 L29.8327733,29.8012282 L29.8327733,30.234188 C25.566338,32.57797 22.3373464,33.4838857 17.8053006,33.4838857 C5.9215492,33.4838857 0,25.2566509 0,16.8354342 C0,8.13024382 6.68400785,0 18.3886023,0 C22.6092067,0 26.3881684,0.941912394 29.3796729,2.8137383 L25.972566,8.3422241 C23.7258128,7.37631394 21.4009389,6.79036844 18.9260731,6.79036844 C12.425384,6.79036844 7.8454032,10.9049857 7.8454032,16.6914476 C7.84644481,22.5299045 12.3795531,26.6925174 18.7521242,26.6925174 M115.899981,26.6925174 C118.844613,26.6925174 121.085116,25.9565858 123.822468,24.6727052 L126.979588,29.8012282 L126.979588,30.234188 C122.716278,32.57797 119.489369,33.4838857 114.953157,33.4838857 C103.070468,33.4838857 97.1489143,25.2566509 97.1489143,16.8354342 C97.1478727,8.13024382 103.833968,0 115.536459,0 C119.75498,0 123.5329,0.941912394 126.525446,2.8137383 L123.126672,8.3422241 C120.866378,7.37631394 118.548795,6.79036844 116.071846,6.79036844 C109.572199,6.79036844 104.994322,10.9049857 104.994322,16.6914476 C104.994322,22.5299045 109.525326,26.6925174 115.899981,26.6925174"/>
</svg>
