<svg xmlns="http://www.w3.org/2000/svg" width="512" height="96" viewBox="0 0 512 96">
  <g fill="none" fill-rule="evenodd">
    <polygon fill="#FFF" points="49 72 21.962 85.597 27.126 56.798 5.251 36.403 35.481 32.202 49 6 62.519 32.202 92.749 36.403 70.874 56.798 76.038 85.597"/>
    <polygon fill="#FFF" points="153 72 125.962 85.597 131.126 56.798 109.251 36.403 139.481 32.202 153 6 166.519 32.202 196.749 36.403 174.874 56.798 180.038 85.597"/>
    <polygon fill="#FFF" points="256 73 228.962 86.597 234.126 57.798 212.251 37.403 242.481 33.202 256 7 269.519 33.202 299.749 37.403 277.874 57.798 283.038 86.597"/>
    <polygon fill="#FFF" points="361 72 333.962 85.597 339.126 56.798 317.251 36.403 347.481 32.202 361 6 374.519 32.202 404.749 36.403 382.874 56.798 388.038 85.597"/>
    <polygon fill="#FFF" points="465.251 72 438.213 85.597 443.377 56.798 421.503 36.403 451.732 32.202 465.251 6 478.77 32.202 509 36.403 487.126 56.798 492.29 85.597"/>
    <path fill="#12CF6C" fill-rule="nonzero" d="M48,0 C21.4902847,0 0,21.4902847 0,48 C0,74.5097153 21.4902847,96 48,96 C74.5097153,96 96,74.5097153 96,48 C96,21.4902847 74.5097153,0 48,0 Z M70.5350203,82 L47.9593312,64.462921 L25.5454135,82 L34.2530502,53.6157334 L12,36.3245995 L39.0103931,36.3245995 L47.9593312,9 L56.9896069,36.3245995 L84,36.3245995 L61.8273836,53.6971056 L70.5350203,82 Z M152,0 C125.490285,0 104,21.4902847 104,48 C104,74.5097153 125.490285,96 152,96 C178.509715,96 200,74.5097153 200,48 C200,21.4902847 178.509715,0 152,0 Z M174.53502,82 L151.959331,64.462921 L129.545413,82 L138.25305,53.6157334 L116,36.3245995 L143.010393,36.3245995 L151.959331,9 L160.989607,36.3245995 L188,36.3245995 L165.827384,53.6971056 L174.53502,82 Z M256,0 C229.490285,0 208,21.4902847 208,48 C208,74.5097153 229.490285,96 256,96 C282.509715,96 304,74.5097153 304,48 C304,21.4902847 282.509715,0 256,0 Z M278.53502,82 L255.959331,64.462921 L233.545413,82 L242.25305,53.6157334 L220,36.3245995 L247.010393,36.3245995 L255.959331,9 L264.989607,36.3245995 L292,36.3245995 L269.827384,53.6971056 L278.53502,82 Z M360,0 C333.490285,0 312,21.4902847 312,48 C312,74.5097153 333.490285,96 360,96 C386.509715,96 408,74.5097153 408,48 C408,21.4902847 386.509715,0 360,0 Z M382.53502,82 L359.959331,64.462921 L337.545413,82 L346.25305,53.6157334 L324,36.3245995 L351.010393,36.3245995 L359.959331,9 L368.989607,36.3245995 L396,36.3245995 L373.827384,53.6971056 L382.53502,82 Z M464,0 C437.490285,0 416,21.4902847 416,48 C416,74.5097153 437.490285,96 464,96 C490.509715,96 512,74.5097153 512,48 C512,21.4902847 490.509715,0 464,0 Z M486.53502,82 L463.959331,64.462921 L441.545413,82 L450.25305,53.6157334 L428,36.3245995 L455.010393,36.3245995 L463.959331,9 L472.989607,36.3245995 L500,36.3245995 L477.827384,53.6971056 L486.53502,82 Z"/>
  </g>
</svg>
