<svg xmlns="http://www.w3.org/2000/svg" width="216" height="216" viewBox="0 0 216 216">
  <g fill="none" fill-rule="evenodd" transform="translate(5 5)">
    <circle cx="105.5" cy="105.5" r="105.5" fill="#A46600"/>
    <circle cx="100" cy="100" r="100" fill="#FFB01A" stroke="#E49500" stroke-width="10"/>
    <g transform="translate(26 29)">
      <g fill="#5F3D06" transform="matrix(1 0 0 -1 1 159)">
        <path d="M41.7787803 156.688283C41.3336675 156.378916 38.8608187 155.079574 36.2766917 153.804981 33.6925647 152.518014 31.071345 151.169173 30.4407686 150.797932 28.0544695 149.374843 26.5707602 148.026003 25.8783626 146.652412 25.5692565 146.046053 25.5197995 145.798559 25.5197995 144.95708 25.5321637 144.288847 25.593985 143.806234 25.7423559 143.484492L25.952548 143.00188 27.2878864 143.076128C29.3279866 143.1875 30.5396825 143.682487 32.1717627 145.080827 33.3092732 146.058427 33.8532999 146.701911 36.3385129 149.968828 38.9350042 153.384242 39.380117 153.916353 41.1976608 155.760182 42.0137009 156.589286 42.6566416 157.269893 42.6319131 157.257519 42.6071846 157.257519 42.2238931 156.99765 41.7787803 156.688283zM106.777611 155.772556C108.607519 153.903979 109.07736 153.347118 111.636759 149.968828 114.109607 146.714286 114.665998 146.058427 115.803509 145.080827 117.423225 143.694862 118.647285 143.1875 120.687385 143.076128L121.997995 143.00188 122.220551 143.422619C122.381287 143.731986 122.443108 144.127976 122.455472 144.895207 122.455472 145.798559 122.406015 146.046053 122.121637 146.640038 121.42924 148.050752 119.784795 149.49859 117.163576 151.008302 116.495906 151.391917 113.936508 152.703634 111.476023 153.916353 109.015539 155.141447 106.616876 156.391291 106.13467 156.713033L105.269173 157.294643 106.777611 155.772556zM23.0964077 149.31297C18.9791145 145.637688 17.0502924 141.838659 17.7179616 138.707863 17.9281537 137.730263 18.6823726 135.985432 18.904929 135.985432 19.1522139 135.985432 21.4766917 138.410871 21.9836257 139.190476 22.7625731 140.41557 22.9727652 141.269424 23.1829574 144.028979 23.3684211 146.553415 23.5538847 147.840382 23.974269 149.275846 24.1102757 149.746084 24.1968254 150.154449 24.1720969 150.179198 24.1473684 150.216322 23.6527987 149.820332 23.0964077 149.31297zM123.803175 150.005952C124.396658 148.026003 124.569758 146.961779 124.792314 144.028979 125.002506 141.269424 125.212698 140.403195 125.991646 139.190476 126.473851 138.43562 128.835422 135.985432 129.070343 135.985432 129.218713 135.985432 129.836926 137.210526 130.133668 138.089129 130.442774 139.004856 130.442774 140.960056 130.133668 141.987155 129.836926 143.014254 128.872515 144.808584 128.007018 145.971805 127.252799 146.961779 124.446115 149.857456 123.988638 150.10495 123.766082 150.216322 123.741353 150.203947 123.803175 150.005952zM15.6284043 140.724937C10.9547201 134.884085 9.86666667 129.95896 12.4631579 126.308427 13.279198 125.157581 13.1555556 125.194706 13.8479532 125.961936 14.7134503 126.914787 15.7767753 128.535871 16.1971596 129.550595 16.7906433 130.96131 16.877193 131.988409 16.6422723 134.574718 16.3949875 137.111529 16.370259 139.499843 16.5680869 140.873434 16.6422723 141.39317 16.6670008 141.851034 16.6422723 141.875783 16.6175439 141.900533 16.1600668 141.380796 15.6284043 140.724937zM131.345363 141.554041C131.56792 140.279449 131.56792 137.235276 131.357728 134.760338 131.098079 131.877036 131.1599 131.060307 131.741019 129.612469 132.223225 128.424499 134.33751 125.367951 134.696074 125.355576 134.893901 125.343202 135.759398 126.58067 136.179783 127.508772 137.811863 131.035558 136.563074 135.453321 132.482874 140.564066 131.283542 142.049029 131.246449 142.086153 131.345363 141.554041zM32.1964912 141.071429C32.1223058 141.009555 31.7390142 140.83631 31.3309942 140.687813 30.6756892 140.427945 30.2923977 140.390821 28.0544695 140.328947L25.5197995 140.254699 24.5924812 139.809211C24.0855472 139.561717 23.3560568 139.079104 22.960401 138.757362 22.2556391 138.138628 21.1799499 136.987782 21.2664996 136.938283 21.4766917 136.789787 22.453467 136.443296 23.1087719 136.282425 23.6775272 136.133929 24.2339181 136.096805 25.0252297 136.133929 26.2987469 136.208177 27.1766082 136.505169 28.3635756 137.284774 29.1177945 137.779762 32.6663325 141.170426 32.4437761 141.182801 32.3695906 141.182801 32.2583124 141.133302 32.1964912 141.071429zM117.138847 139.475094C119.722974 136.925909 120.909942 136.245301 122.950042 136.133929 123.741353 136.096805 124.297744 136.133929 124.8665 136.282425 125.521805 136.443296 126.49858 136.789787 126.708772 136.925909 126.795322 137.000157 125.830911 138.03963 125.076692 138.695489 124.656307 139.054355 123.889724 139.561717 123.38279 139.809211L122.455472 140.254699 119.920802 140.328947C117.682874 140.390821 117.299582 140.427945 116.644277 140.687813 116.236257 140.83631 115.852966 141.009555 115.791145 141.071429 115.716959 141.133302 115.605681 141.182801 115.54386 141.182801 115.469674 141.182801 116.1868 140.41557 117.138847 139.475094zM26.9416876 133.176378C26.3358396 132.743264 24.9015873 132.087406 24.1597327 131.91416 23.8258981 131.839912 22.9233083 131.691416 22.1567251 131.592419 19.8446115 131.295426 18.9791145 130.874687 17.5448622 129.340226 16.6793651 128.436873 15.6531328 126.989035 15.7520468 126.828164 15.7891395 126.778665 16.3331662 126.630169 16.9513784 126.518797 20.3144528 125.900063 22.7378446 127.100407 25.4703425 130.72619 26.3605681 131.91416 27.4857143 133.52287 27.4115288 133.510495 27.3868003 133.49812 27.1766082 133.361999 26.9416876 133.176378zM121.045948 132.755639C124.681036 127.360276 127.166249 125.801065 131.023893 126.518797 131.642105 126.630169 132.186132 126.778665 132.223225 126.828164 132.322139 126.989035 131.295906 128.424499 130.430409 129.3526 129.020886 130.849937 128.093567 131.295426 125.806182 131.592419 123.481704 131.901786 122.368922 132.260652 121.083041 133.139254L120.501921 133.547619 121.045948 132.755639zM8.92698413 130.107456C7.91311612 128.300752 7.12180451 126.568296 6.55304929 124.910088 5.79883041 122.707393 5.62573099 121.791667 5.61336675 119.836466 5.61336675 117.91839 5.77410192 117.10166 6.42940685 115.740445 6.84979114 114.849467 8.02439432 113.327381 8.70442774 112.807644 9.13717627 112.461153 9.16190476 112.461153 9.32263993 112.683897 9.75538847 113.265508 10.8928989 115.629073 11.2638262 116.680921 11.6347536 117.769893 11.659482 117.967888 11.6718463 119.465226 11.6718463 121.036811 11.659482 121.123434 10.9670844 123.672619 10.1510443 126.679668 9.89139515 128.016134 9.78011696 130.020833L9.69356725 131.468672 8.92698413 130.107456zM138.170426 129.835213C138.083876 127.929511 137.824227 126.568296 136.95873 123.4375 136.315789 121.135808 136.303425 121.036811 136.315789 119.465226 136.315789 117.980263 136.352882 117.769893 136.72381 116.680921 137.082373 115.629073 138.219883 113.277882 138.652632 112.671523 138.813367 112.461153 138.850459 112.473528 139.40685 112.919016 140.668003 113.95849 141.731328 115.72807 142.188805 117.547149 142.423726 118.450501 142.448454 118.821742 142.386633 120.207707 142.287719 122.571272 141.694236 124.712093 140.297076 127.706767 139.777778 128.820489 138.380618 131.406798 138.294069 131.406798 138.26934 131.406798 138.219883 130.701441 138.170426 129.835213zM22.4781955 123.660244C21.390142 122.509398 20.0795322 121.816416 17.7303258 121.111059 15.4429407 120.418076 14.2807018 119.601347 13.1431913 117.906015 12.6857143 117.200658 11.4863826 114.874217 11.4863826 114.676222 11.4863826 114.515351 13.1308271 114.465852 14.0828739 114.589599 17.1244779 114.96084 19.0780284 116.458177 21.0315789 119.89834 21.5014202 120.727444 23.009858 123.994361 22.960401 124.056234 22.9233083 124.080984 22.7131161 123.907738 22.4781955 123.660244zM124.990142 124.04386C124.990142 123.920113 126.572765 120.566573 126.943693 119.89834 128.897243 116.458177 130.850794 114.96084 133.892398 114.589599 134.844444 114.465852 136.488889 114.515351 136.488889 114.676222 136.488889 114.874217 135.289557 117.200658 134.83208 117.906015 133.69457 119.601347 132.532331 120.418076 130.244946 121.111059 127.871011 121.816416 126.931328 122.311404 125.645447 123.524123 125.286884 123.870614 124.990142 124.105733 124.990142 124.04386zM3.47435255 116.767544C1.78045113 111.409305 1.37243108 107.43703 2.16374269 104.182487 2.43575606 103.08114 3.30125313 101.299185 3.99365079 100.445332 4.66131997 99.6162281 5.86065163 98.5891291 6.82506266 98.0446429L7.50509607 97.6486529 7.88838764 98.7252506C9.00116959 101.868421 9.27318296 104.454731 8.70442774 106.595551 8.59314954 107.003916 7.83893066 108.699248 7.0352548 110.369831 5.58863826 113.364505 4.63659148 115.851817 4.31512114 117.5224 4.22857143 117.955514 4.11729323 118.31438 4.06783626 118.351504 4.01837928 118.376253 3.74636591 117.670896 3.47435255 116.767544zM143.808521 117.980263C143.734336 117.70802 143.585965 117.138784 143.474687 116.70567 143.066667 115.096961 142.213534 112.968515 140.989474 110.481203 139.221387 106.917293 139.035923 106.298559 139.035923 104.182487 139.035923 102.351034 139.295572 101.002193 140.086884 98.7376253L140.48254 97.6239035 140.927652 97.8961466C143.079031 99.1954887 144.253634 100.445332 145.14386 102.375783 145.737343 103.675125 145.972264 104.566103 146.145363 106.162437 146.429741 108.983866 145.774436 113.079887 144.364912 117.237782L143.944528 118.475251 143.808521 117.980263zM19.7456976 112.795269C18.7565581 111.260808 17.2975773 110.085213 14.8247285 108.81062 12.0056809 107.362782 10.7568922 105.580827 9.82957393 101.682801L9.54519632 100.482456 10.1757728 100.556704C11.2638262 100.668076 12.7475355 101.076441 13.6501253 101.509555 16.0858814 102.672776 17.6561404 104.652726 18.7565581 107.956767 19.1769424 109.243734 20.1784461 113.067513 20.1166249 113.216009 20.0918964 113.265508 19.9311612 113.079887 19.7456976 112.795269zM127.833918 113.216009C127.833918 112.869518 128.934336 108.822995 129.317627 107.709273 130.714787 103.774123 132.841437 101.658051 136.216876 100.853697 137.04528 100.655702 138.467168 100.432957 138.467168 100.507206 138.467168 100.51958 138.306433 101.150689 138.108605 101.905545 137.094737 105.741698 135.944862 107.362782 133.249457 108.761122 130.66533 110.097588 129.342356 111.161811 128.254302 112.77052 128.019382 113.117011 127.833918 113.315006 127.833918 113.216009zM.482205514 103.378133C.482205514 103.316259.395655806 102.536654.296741855 101.645677-.383291562 95.7058271.148370927 90.6817043 1.80517962 87.414787 2.70776942 85.6080827 4.20384294 83.9498747 5.7122807 83.0465226 6.5283208 82.5515351 8.19749373 81.8214286 8.72915622 81.7100564 9.10008354 81.6358083 9.10008354 81.648183 9.17426901 82.2421679 9.80484545 87.0559211 9.40918964 89.9763471 7.78947368 92.4636591 7.46800334 92.9462719 6.54068505 94.1961153 5.72464495 95.2108396 3.36307435 98.156015 2.57176274 99.3687343 1.26115288 101.955044.840768588 102.808897.482205514 103.452381.482205514 103.378133zM146.998496 102.549029C146.021721 100.346335 144.575104 98.118891 142.262991 95.2108396 139.839599 92.1790414 139.221387 91.0776942 138.76391 88.9492481 138.504261 87.7984023 138.479532 84.8284774 138.714453 82.9846491L138.875188 81.6358083 139.246115 81.7100564C139.777778 81.8214286 141.446951 82.5515351 142.275355 83.0465226 142.646282 83.2692669 143.375773 83.8508772 143.882707 84.3211153 146.825397 87.0930451 148.185464 91.6593045 147.938179 97.9951441 147.876358 99.8389724 147.554887 103.29151 147.443609 103.402882 147.418881 103.427632 147.221053 103.044016 146.998496 102.549029zM19.0656642 101.33631C18.9296575 100.816573 18.0023392 99.0841165 17.4583124 98.35401 16.9513784 97.6734023 15.863325 96.6215539 13.9592314 95.0004699 12.3889724 93.6516291 11.6347536 92.4389098 11.1278195 90.4589599 10.8310777 89.2462406 10.5837928 87.0064223 10.645614 85.9174499L10.6827068 85.1502193 11.8944027 85.6204574C14.194152 86.5114348 15.8756892 87.7860276 16.9884712 89.4442356 18.3856307 91.560307 18.9296575 93.9238722 19.1522139 98.8613722 19.2634921 101.385808 19.2387636 102.004543 19.0656642 101.33631zM128.761236 100.754699C128.785965 100.296836 128.847786 99.0841165 128.884879 98.0817669 129.169256 90.6940789 131.110443 87.4642857 136.538346 85.4472118L137.391479 85.1254699 137.317293 86.8826754C137.206015 89.3328634 136.896909 90.8302005 136.216876 92.2656642 135.709942 93.3546366 135.067001 94.1218672 133.731662 95.235589 132.06249 96.6463033 131.085714 97.5991541 130.516959 98.35401 129.997661 99.0469925 128.9467 101.026942 128.9467 101.286811 128.9467 101.373434 128.884879 101.484806 128.823058 101.52193 128.736508 101.571429 128.711779 101.31156 128.761236 100.754699zM20.7719298 87.1920426C20.4133668 84.8903509 19.5849624 83.0836466 17.8045113 80.6953321 17.2604845 79.9652256 16.6175439 79.0371241 16.370259 78.6287594 15.0596491 76.4508145 14.8741855 73.5551378 15.764411 69.5952381 15.9375104 68.8527569 16.0982456 68.2216479 16.1229741 68.1968985 16.1477026 68.1721491 16.5433584 68.3948935 17.0131997 68.691886 21.6992481 71.7360589 23.2571429 75.9682018 22.1196324 82.5886591 21.8847118 83.9869987 21.0315789 88.1201441 20.9697577 88.1820175 20.9450292 88.1943922 20.8584795 87.7489035 20.7719298 87.1920426zM126.560401 86.1030702C125.670175 81.9822995 125.410526 79.9404762 125.534169 77.8862782 125.719632 74.4213659 127.030242 71.7855576 129.552548 69.7437343 130.467502 69.0012531 131.778112 68.1226504 131.864662 68.1968985 131.88939 68.2340226 132.050125 68.8651316 132.21086 69.6076128 133.101086 73.5922619 132.915622 76.4508145 131.617377 78.60401 131.370092 79 130.739515 79.9157268 130.207853 80.6458333 128.254302 83.306391 127.611362 84.7171053 127.178613 87.2910401L127.017878 88.2562657 126.560401 86.1030702zM.284377611 84.8779762C.321470343 84.7047306.445112782 83.9003759.544026734 83.0836466 1.22406015 77.9852757 2.5593985 73.5427632 4.30275689 70.5357143 6.66432749 66.5015664 9.7924812 64.422619 14.1570593 63.9647556 14.8247285 63.8905075 15.3687552 63.8533835 15.3811195 63.8657581 15.4305764 63.9276316 15.0843776 66.4149436 14.8741855 67.6152882 14.5898079 69.1744987 13.8108605 71.4885652 13.2050125 72.5527882 12.2776942 74.1986216 11.1278195 75.3618421 8.50659983 77.3294173 5.27953216 79.7672306 3.2641604 81.5986842 1.49607352 83.702381.185463659 85.2739662.210192147 85.2492168.284377611 84.8779762zM146.986132 84.2839912C146.021721 83.0836466 143.771429 80.7819549 142.510276 79.7301065 141.916792 79.2227444 140.643275 78.2203947 139.691228 77.5026629 137.700585 76.0053258 136.822723 75.2380952 135.932498 74.2109962 134.275689 72.3176692 133.249457 69.4343672 132.730159 65.2022243 132.643609 64.4844925 132.581788 63.8905075 132.594152 63.8657581 132.606516 63.8533835 133.150543 63.8905075 133.818212 63.9647556 138.195155 64.422619 141.310944 66.5015664 143.684879 70.5604637 145.05731 72.9116541 146.244277 76.351817 146.949039 80.0642231 147.171596 81.2150689 147.727987 85.0512218 147.690894 85.0883459 147.666165 85.1130952 147.357059 84.7542293 146.986132 84.2839912zM26.2121972 74.6441103C26.2616541 74.3099937 26.3111111 73.3942669 26.3111111 72.602287 26.3234754 70.2758459 26.0761905 69.2487469 24.481203 65.0661028 23.7517126 63.1480263 23.5415205 61.7620614 23.7269841 60.1904762 23.9619048 58.2476504 24.8274018 55.7850877 26.1627402 53.3225251L26.7314954 52.2830514 27.2878864 52.889411C28.3512114 54.0897556 29.3156224 55.4880952 29.9091061 56.7131892 31.7019215 60.4503446 31.4422723 64.2122494 28.9817878 69.6571115 28.3388471 71.0802005 26.2369256 75.2257206 26.1503759 75.2257206 26.1256475 75.2257206 26.1627402 74.9658521 26.2121972 74.6441103zM120.749206 73.2210213C118.31345 68.531015 117.274854 65.7219612 116.965748 62.9376566 116.570092 59.4356203 117.806516 56.1192043 120.687385 52.889411L121.243776 52.2830514 121.812531 53.3225251C123.14787 55.7850877 124.013367 58.2476504 124.248287 60.1904762 124.433751 61.7620614 124.223559 63.1480263 123.494069 65.0661028 121.92381 69.1868734 121.651796 70.3005952 121.66416 72.5280388 121.66416 73.2952694 121.713617 74.2109962 121.775439 74.5451128 121.824896 74.891604 121.861988 75.1762218 121.83726 75.2009712 121.812531 75.2257206 121.330326 74.3347431 120.749206 73.2210213zM5.0075188 65.6600877C5.24243943 64.8928571 6.55304929 61.9476817 7.40618212 60.2523496 11.5852966 51.8870614 16.2342523 47.7415414 22.1072682 47.1351817 23.3807853 46.9990602 24.2957393 47.0485589 26.051462 47.3455514 26.8056809 47.4692982 27.1889724 47.5806704 27.1518797 47.6796679 26.2740184 49.8576128 25.9649123 50.5753446 25.4085213 51.6890664 24.0608187 54.3743734 22.3050961 56.5770677 20.5741019 57.7402882 19.4984127 58.4580201 17.9157895 59.2252506 15.3811195 60.2523496 11.4369256 61.8363095 9.63174603 62.7767857 6.65196324 64.781485 5.29189641 65.6848371 4.93333333 65.8828321 5.0075188 65.6600877zM142.300084 65.4373434C139.629407 63.5068922 136.46416 61.7991855 132.779616 60.3142231 130.059482 59.2252506 128.489223 58.4703947 127.40117 57.7402882 125.731997 56.6141917 123.914453 54.3743734 122.678028 51.8994361 122.24528 51.0579574 120.786299 47.6920426 120.786299 47.5559211 120.786299 47.4940476 122.368922 47.2465539 123.444612 47.1351817 125.818546 46.887688 128.13066 47.320802 130.368588 48.4345238 134.621888 50.5258459 138.232247 54.9807331 141.496408 62.1704261 142.337176 64.0390038 143.079031 65.8333333 143.01721 65.8828321 142.992481 65.9075815 142.671011 65.7095865 142.300084 65.4373434zM35.0155388 63.3460213C35.0526316 63.2470238 35.2504595 62.7396617 35.4606516 62.2322995 36.5363409 59.4974937 36.7836257 57.1834273 36.3879699 53.4215226 36.1530493 51.2435777 36.2148705 49.0780075 36.5239766 47.9395363 37.1669173 45.6130952 39.1575606 42.5936717 41.7540518 40.0444862L42.6071846 39.1906328 43.1141186 40.2301065C43.7570593 41.5665727 44.1527151 42.6060464 44.5112782 43.9796366 44.9192982 45.5635965 44.9316625 48.4345238 44.5360067 49.9937343 43.8188805 52.8399123 42.0507937 55.7603383 38.9844612 59.2128759 37.3152882 61.0814536 34.9289891 63.5687657 35.0155388 63.3460213zM111.550209 62.0095551C107.247452 57.4309211 105.380451 54.9559837 104.205848 52.2088033 103.377444 50.2907268 103.167251 49.2388784 103.179616 47.0114348 103.179616 45.3408521 103.216708 44.9324875 103.501086 43.8558897 103.834921 42.6060464 104.712782 40.3538534 105.170259 39.6113722L105.417544 39.2153822 106.579783 40.4157268C109.151546 43.0762845 110.833083 45.6749687 111.451295 47.9395363 111.760401 49.0903822 111.809858 51.1322055 111.587302 53.3720238 111.191646 57.3071742 111.426566 59.5222431 112.564077 62.3560464 112.798997 62.925282 112.972097 63.4078947 112.947368 63.4326441 112.935004 63.4450188 112.304428 62.8015351 111.550209 62.0095551zM47.0954052 54.114505C47.0954052 54.0897556 47.392147 53.7061404 47.7507101 53.285401 49.2096909 51.5653195 50.3966583 49.3997494 51.039599 47.320802 51.2497911 46.6401942 51.6207185 45.1057331 51.8556391 43.9177632 52.3996658 41.2448308 52.6840434 40.2672306 53.2404344 39.1535088 54.3655806 36.9136905 55.9111111 35.2802318 58.6559733 33.3992794 60.5971596 32.0875627 62.9587302 30.7758459 63.0700084 30.9614662 63.1194653 31.048089 63.2431078 31.7905702 63.354386 32.5949248 63.6634921 34.7357456 63.5522139 37.6066729 63.1194653 39.2153822 62.3528822 42.1110589 61.178279 44.04151 58.8167084 46.3432018 56.4056809 48.6820175 54.5757728 49.9194862 47.5034252 53.9536341 47.2808688 54.077381 47.0954052 54.1516291 47.0954052 54.114505zM98.3946533 52.7656642C93.6467836 50.0432331 91.3717627 48.4592732 89.2698413 46.4421992 86.5620718 43.8558897 85.1772765 41.3067043 84.6085213 37.9779135 84.3117794 36.1588346 84.4230576 33.1146617 84.8805347 31.0728383 84.9423559 30.7882206 84.9423559 30.7882206 85.8944027 31.3079574 90.6175439 33.8942669 93.3005848 36.2702068 94.6977444 39.0792607 95.2912281 40.2672306 95.5632414 41.2077068 96.1196324 43.9177632 96.6512949 46.5411967 97.1211362 48.0880326 97.7888053 49.4863722 98.5430242 51.0455827 99.6063492 52.6419173 100.546032 53.6566416 100.756224 53.879386 100.904595 54.077381 100.867502 54.1021303 100.842774 54.1268797 99.7299916 53.5328947 98.3946533 52.7656642zM15.3934837 46.6773183C18.8925647 41.987312 23.1705931 37.7180451 26.7191312 35.3421053 30.0698413 33.102287 33.2721805 32.0133145 36.5239766 32.0009398 38.1684211 31.9885652 39.3553885 32.1618108 40.851462 32.6196742 41.8529657 32.9290414 44.498914 34.1170113 44.498914 34.2655075 44.498914 34.3892544 42.3846282 37.012688 41.4202172 38.076911 39.7510443 39.9578634 37.5131161 41.7026942 35.7944862 42.4946742 33.8903926 43.3732769 32.5303258 43.6826441 28.6108605 44.1033835 26.9787803 44.2766291 25.087051 44.5117481 24.4070175 44.6107456 21.7363409 45.0191103 18.5463659 45.8482143 16.0735171 46.7639411L15.0349206 47.1475564 15.3934837 46.6773183zM131.852297 46.7515664C129.515455 45.8729637 126.251295 45.031485 123.568254 44.6107456 122.888221 44.5117481 120.996491 44.2766291 119.364411 44.1033835 115.333668 43.6702694 114.010693 43.3609023 112.069507 42.4328008 109.80685 41.356203 107.321637 39.1411341 104.799332 35.9979637 104.069841 35.0946115 103.476358 34.3150063 103.476358 34.2655075 103.476358 34.1170113 106.122306 32.9290414 107.12381 32.6196742 108.619883 32.1618108 109.80685 31.9885652 111.451295 32.0009398 113.207018 32.0009398 114.616541 32.2484336 116.3599 32.8547932 121.107769 34.5130013 125.991646 38.472901 131.184628 44.9077381 132.346867 46.3432018 132.952715 47.1351817 132.890894 47.122807 132.866165 47.122807 132.396324 46.9495614 131.852297 46.7515664zM49.7166249 32.0380639C48.8882206 31.914317 47.3550543 31.6296992 46.3164578 31.4317043 41.1852966 30.4046053 39.6150376 30.2437343 35.0773601 30.2437343 31.4051796 30.2437343 31.2815372 30.2313596 31.5535505 30.02099 32.2583124 29.4517544 36.5610693 26.6550752 37.9458647 25.8507206 42.3846282 23.2767857 46.6008354 21.5690789 50.0999165 20.8884712 52.4120301 20.4553571 55.095071 20.381109 57.07335 20.7276003 60.4240602 21.2968358 63.762406 23.0787907 66.2352548 25.6279762L66.7669173 26.1848371 65.4315789 27.1129386C62.5507101 29.1300125 59.5585631 30.7758459 57.4813701 31.4688283 55.095071 32.2608083 52.3749373 32.4588033 49.7166249 32.0380639zM93.0903926 32.0999373C89.8880535 31.5554511 86.8093567 30.0952381 82.5436926 27.1129386L81.2083542 26.1848371 81.6781955 25.6898496C82.9517126 24.3781328 84.9052632 22.9550439 86.6362573 22.0888158 90.1600668 20.3192356 94.7472013 20.0222431 99.4579783 21.2597118 103.834921 22.4105576 109.064996 24.9844925 114.356892 28.5855263 115.346032 29.2661341 116.27335 29.9096178 116.421721 30.0333647 116.693734 30.2313596 116.545363 30.2437343 112.897911 30.2437343 108.310777 30.2437343 106.987803 30.3798559 101.374436 31.481203 97.1953216 32.2979323 95.1181287 32.4464286 93.0903926 32.0999373zM69.6601504 24.7864975C70.0063492 24.4771303 70.8100251 23.7717732 71.4529657 23.227287 72.0959064 22.6828008 72.6399332 22.200188 72.6522974 22.1506892 72.7017544 22.0269424 62.4394319 17.1513158 58.0995823 15.245614 51.9050961 12.5108083 48.3441938 11.2362155 46.1062657 10.9515977L45.0553049 10.8154762 46.3659148 5.37061404C47.5034252.668233083 47.7012531-.0123746867 47.7754386.420739348 48.0350877 1.90570175 48.6656642 3.13079574 49.8649958 4.40538847 51.4847118 6.1502193 53.5371763 7.58568296 59.8923977 11.4465852 66.6556391 15.5426065 69.2644946 17.2503133 72.7635756 19.8737469 73.5177945 20.4429825 74.1730994 20.9008459 74.2225564 20.9008459 74.2720134 20.9008459 74.8531328 20.4924812 75.5084378 19.9974937 78.8591479 17.4483083 81.8389307 15.4931078 88.3301587 11.5579574 94.6730159 7.70942982 96.552381 6.41008772 98.2957393 4.66525689 98.7408521 4.21976817 99.3219716 3.5391604 99.5816207 3.14317043 100.113283 2.3264411 100.620217.989974937 100.632581.371240602 100.632581.136121554 100.65731-.0247493734 100.694403.0123746867 100.74386.0618734336 103.352715 10.6669799 103.352715 10.8154762 103.352715 10.8278509 102.969424 10.8773496 102.511947 10.9144737 99.5568922 11.1990915 92.5834586 14.0081454 80.6025063 19.75 77.9812865 21.012218 75.8175439 22.0640664 75.7804511 22.1011905 75.7433584 22.1259398 75.8917293 22.2991855 76.0895572 22.4724311 77.5238095 23.6851504 79.3537176 25.2938596 79.3289891 25.318609 79.3042607 25.3309837 78.154386 24.7864975 76.7695906 24.1058897 74.3832916 22.9302945 74.2349206 22.8807957 73.8763576 23.0169173 73.6661654 23.1035401 72.4915622 23.660401 71.2675021 24.2667607L69.0419382 25.3681078 69.6601504 24.7864975z"/>
      </g>
      <g fill="#A46600" transform="matrix(1 0 0 -1 0 158)">
        <path d="M41.7787803 156.688283C41.3336675 156.378916 38.8608187 155.079574 36.2766917 153.804981 33.6925647 152.518014 31.071345 151.169173 30.4407686 150.797932 28.0544695 149.374843 26.5707602 148.026003 25.8783626 146.652412 25.5692565 146.046053 25.5197995 145.798559 25.5197995 144.95708 25.5321637 144.288847 25.593985 143.806234 25.7423559 143.484492L25.952548 143.00188 27.2878864 143.076128C29.3279866 143.1875 30.5396825 143.682487 32.1717627 145.080827 33.3092732 146.058427 33.8532999 146.701911 36.3385129 149.968828 38.9350042 153.384242 39.380117 153.916353 41.1976608 155.760182 42.0137009 156.589286 42.6566416 157.269893 42.6319131 157.257519 42.6071846 157.257519 42.2238931 156.99765 41.7787803 156.688283zM106.777611 155.772556C108.607519 153.903979 109.07736 153.347118 111.636759 149.968828 114.109607 146.714286 114.665998 146.058427 115.803509 145.080827 117.423225 143.694862 118.647285 143.1875 120.687385 143.076128L121.997995 143.00188 122.220551 143.422619C122.381287 143.731986 122.443108 144.127976 122.455472 144.895207 122.455472 145.798559 122.406015 146.046053 122.121637 146.640038 121.42924 148.050752 119.784795 149.49859 117.163576 151.008302 116.495906 151.391917 113.936508 152.703634 111.476023 153.916353 109.015539 155.141447 106.616876 156.391291 106.13467 156.713033L105.269173 157.294643 106.777611 155.772556zM23.0964077 149.31297C18.9791145 145.637688 17.0502924 141.838659 17.7179616 138.707863 17.9281537 137.730263 18.6823726 135.985432 18.904929 135.985432 19.1522139 135.985432 21.4766917 138.410871 21.9836257 139.190476 22.7625731 140.41557 22.9727652 141.269424 23.1829574 144.028979 23.3684211 146.553415 23.5538847 147.840382 23.974269 149.275846 24.1102757 149.746084 24.1968254 150.154449 24.1720969 150.179198 24.1473684 150.216322 23.6527987 149.820332 23.0964077 149.31297zM123.803175 150.005952C124.396658 148.026003 124.569758 146.961779 124.792314 144.028979 125.002506 141.269424 125.212698 140.403195 125.991646 139.190476 126.473851 138.43562 128.835422 135.985432 129.070343 135.985432 129.218713 135.985432 129.836926 137.210526 130.133668 138.089129 130.442774 139.004856 130.442774 140.960056 130.133668 141.987155 129.836926 143.014254 128.872515 144.808584 128.007018 145.971805 127.252799 146.961779 124.446115 149.857456 123.988638 150.10495 123.766082 150.216322 123.741353 150.203947 123.803175 150.005952zM15.6284043 140.724937C10.9547201 134.884085 9.86666667 129.95896 12.4631579 126.308427 13.279198 125.157581 13.1555556 125.194706 13.8479532 125.961936 14.7134503 126.914787 15.7767753 128.535871 16.1971596 129.550595 16.7906433 130.96131 16.877193 131.988409 16.6422723 134.574718 16.3949875 137.111529 16.370259 139.499843 16.5680869 140.873434 16.6422723 141.39317 16.6670008 141.851034 16.6422723 141.875783 16.6175439 141.900533 16.1600668 141.380796 15.6284043 140.724937zM131.345363 141.554041C131.56792 140.279449 131.56792 137.235276 131.357728 134.760338 131.098079 131.877036 131.1599 131.060307 131.741019 129.612469 132.223225 128.424499 134.33751 125.367951 134.696074 125.355576 134.893901 125.343202 135.759398 126.58067 136.179783 127.508772 137.811863 131.035558 136.563074 135.453321 132.482874 140.564066 131.283542 142.049029 131.246449 142.086153 131.345363 141.554041zM32.1964912 141.071429C32.1223058 141.009555 31.7390142 140.83631 31.3309942 140.687813 30.6756892 140.427945 30.2923977 140.390821 28.0544695 140.328947L25.5197995 140.254699 24.5924812 139.809211C24.0855472 139.561717 23.3560568 139.079104 22.960401 138.757362 22.2556391 138.138628 21.1799499 136.987782 21.2664996 136.938283 21.4766917 136.789787 22.453467 136.443296 23.1087719 136.282425 23.6775272 136.133929 24.2339181 136.096805 25.0252297 136.133929 26.2987469 136.208177 27.1766082 136.505169 28.3635756 137.284774 29.1177945 137.779762 32.6663325 141.170426 32.4437761 141.182801 32.3695906 141.182801 32.2583124 141.133302 32.1964912 141.071429zM117.138847 139.475094C119.722974 136.925909 120.909942 136.245301 122.950042 136.133929 123.741353 136.096805 124.297744 136.133929 124.8665 136.282425 125.521805 136.443296 126.49858 136.789787 126.708772 136.925909 126.795322 137.000157 125.830911 138.03963 125.076692 138.695489 124.656307 139.054355 123.889724 139.561717 123.38279 139.809211L122.455472 140.254699 119.920802 140.328947C117.682874 140.390821 117.299582 140.427945 116.644277 140.687813 116.236257 140.83631 115.852966 141.009555 115.791145 141.071429 115.716959 141.133302 115.605681 141.182801 115.54386 141.182801 115.469674 141.182801 116.1868 140.41557 117.138847 139.475094zM26.9416876 133.176378C26.3358396 132.743264 24.9015873 132.087406 24.1597327 131.91416 23.8258981 131.839912 22.9233083 131.691416 22.1567251 131.592419 19.8446115 131.295426 18.9791145 130.874687 17.5448622 129.340226 16.6793651 128.436873 15.6531328 126.989035 15.7520468 126.828164 15.7891395 126.778665 16.3331662 126.630169 16.9513784 126.518797 20.3144528 125.900063 22.7378446 127.100407 25.4703425 130.72619 26.3605681 131.91416 27.4857143 133.52287 27.4115288 133.510495 27.3868003 133.49812 27.1766082 133.361999 26.9416876 133.176378zM121.045948 132.755639C124.681036 127.360276 127.166249 125.801065 131.023893 126.518797 131.642105 126.630169 132.186132 126.778665 132.223225 126.828164 132.322139 126.989035 131.295906 128.424499 130.430409 129.3526 129.020886 130.849937 128.093567 131.295426 125.806182 131.592419 123.481704 131.901786 122.368922 132.260652 121.083041 133.139254L120.501921 133.547619 121.045948 132.755639zM8.92698413 130.107456C7.91311612 128.300752 7.12180451 126.568296 6.55304929 124.910088 5.79883041 122.707393 5.62573099 121.791667 5.61336675 119.836466 5.61336675 117.91839 5.77410192 117.10166 6.42940685 115.740445 6.84979114 114.849467 8.02439432 113.327381 8.70442774 112.807644 9.13717627 112.461153 9.16190476 112.461153 9.32263993 112.683897 9.75538847 113.265508 10.8928989 115.629073 11.2638262 116.680921 11.6347536 117.769893 11.659482 117.967888 11.6718463 119.465226 11.6718463 121.036811 11.659482 121.123434 10.9670844 123.672619 10.1510443 126.679668 9.89139515 128.016134 9.78011696 130.020833L9.69356725 131.468672 8.92698413 130.107456zM138.170426 129.835213C138.083876 127.929511 137.824227 126.568296 136.95873 123.4375 136.315789 121.135808 136.303425 121.036811 136.315789 119.465226 136.315789 117.980263 136.352882 117.769893 136.72381 116.680921 137.082373 115.629073 138.219883 113.277882 138.652632 112.671523 138.813367 112.461153 138.850459 112.473528 139.40685 112.919016 140.668003 113.95849 141.731328 115.72807 142.188805 117.547149 142.423726 118.450501 142.448454 118.821742 142.386633 120.207707 142.287719 122.571272 141.694236 124.712093 140.297076 127.706767 139.777778 128.820489 138.380618 131.406798 138.294069 131.406798 138.26934 131.406798 138.219883 130.701441 138.170426 129.835213zM22.4781955 123.660244C21.390142 122.509398 20.0795322 121.816416 17.7303258 121.111059 15.4429407 120.418076 14.2807018 119.601347 13.1431913 117.906015 12.6857143 117.200658 11.4863826 114.874217 11.4863826 114.676222 11.4863826 114.515351 13.1308271 114.465852 14.0828739 114.589599 17.1244779 114.96084 19.0780284 116.458177 21.0315789 119.89834 21.5014202 120.727444 23.009858 123.994361 22.960401 124.056234 22.9233083 124.080984 22.7131161 123.907738 22.4781955 123.660244zM124.990142 124.04386C124.990142 123.920113 126.572765 120.566573 126.943693 119.89834 128.897243 116.458177 130.850794 114.96084 133.892398 114.589599 134.844444 114.465852 136.488889 114.515351 136.488889 114.676222 136.488889 114.874217 135.289557 117.200658 134.83208 117.906015 133.69457 119.601347 132.532331 120.418076 130.244946 121.111059 127.871011 121.816416 126.931328 122.311404 125.645447 123.524123 125.286884 123.870614 124.990142 124.105733 124.990142 124.04386zM3.47435255 116.767544C1.78045113 111.409305 1.37243108 107.43703 2.16374269 104.182487 2.43575606 103.08114 3.30125313 101.299185 3.99365079 100.445332 4.66131997 99.6162281 5.86065163 98.5891291 6.82506266 98.0446429L7.50509607 97.6486529 7.88838764 98.7252506C9.00116959 101.868421 9.27318296 104.454731 8.70442774 106.595551 8.59314954 107.003916 7.83893066 108.699248 7.0352548 110.369831 5.58863826 113.364505 4.63659148 115.851817 4.31512114 117.5224 4.22857143 117.955514 4.11729323 118.31438 4.06783626 118.351504 4.01837928 118.376253 3.74636591 117.670896 3.47435255 116.767544zM143.808521 117.980263C143.734336 117.70802 143.585965 117.138784 143.474687 116.70567 143.066667 115.096961 142.213534 112.968515 140.989474 110.481203 139.221387 106.917293 139.035923 106.298559 139.035923 104.182487 139.035923 102.351034 139.295572 101.002193 140.086884 98.7376253L140.48254 97.6239035 140.927652 97.8961466C143.079031 99.1954887 144.253634 100.445332 145.14386 102.375783 145.737343 103.675125 145.972264 104.566103 146.145363 106.162437 146.429741 108.983866 145.774436 113.079887 144.364912 117.237782L143.944528 118.475251 143.808521 117.980263zM19.7456976 112.795269C18.7565581 111.260808 17.2975773 110.085213 14.8247285 108.81062 12.0056809 107.362782 10.7568922 105.580827 9.82957393 101.682801L9.54519632 100.482456 10.1757728 100.556704C11.2638262 100.668076 12.7475355 101.076441 13.6501253 101.509555 16.0858814 102.672776 17.6561404 104.652726 18.7565581 107.956767 19.1769424 109.243734 20.1784461 113.067513 20.1166249 113.216009 20.0918964 113.265508 19.9311612 113.079887 19.7456976 112.795269zM127.833918 113.216009C127.833918 112.869518 128.934336 108.822995 129.317627 107.709273 130.714787 103.774123 132.841437 101.658051 136.216876 100.853697 137.04528 100.655702 138.467168 100.432957 138.467168 100.507206 138.467168 100.51958 138.306433 101.150689 138.108605 101.905545 137.094737 105.741698 135.944862 107.362782 133.249457 108.761122 130.66533 110.097588 129.342356 111.161811 128.254302 112.77052 128.019382 113.117011 127.833918 113.315006 127.833918 113.216009zM.482205514 103.378133C.482205514 103.316259.395655806 102.536654.296741855 101.645677-.383291562 95.7058271.148370927 90.6817043 1.80517962 87.414787 2.70776942 85.6080827 4.20384294 83.9498747 5.7122807 83.0465226 6.5283208 82.5515351 8.19749373 81.8214286 8.72915622 81.7100564 9.10008354 81.6358083 9.10008354 81.648183 9.17426901 82.2421679 9.80484545 87.0559211 9.40918964 89.9763471 7.78947368 92.4636591 7.46800334 92.9462719 6.54068505 94.1961153 5.72464495 95.2108396 3.36307435 98.156015 2.57176274 99.3687343 1.26115288 101.955044.840768588 102.808897.482205514 103.452381.482205514 103.378133zM146.998496 102.549029C146.021721 100.346335 144.575104 98.118891 142.262991 95.2108396 139.839599 92.1790414 139.221387 91.0776942 138.76391 88.9492481 138.504261 87.7984023 138.479532 84.8284774 138.714453 82.9846491L138.875188 81.6358083 139.246115 81.7100564C139.777778 81.8214286 141.446951 82.5515351 142.275355 83.0465226 142.646282 83.2692669 143.375773 83.8508772 143.882707 84.3211153 146.825397 87.0930451 148.185464 91.6593045 147.938179 97.9951441 147.876358 99.8389724 147.554887 103.29151 147.443609 103.402882 147.418881 103.427632 147.221053 103.044016 146.998496 102.549029zM19.0656642 101.33631C18.9296575 100.816573 18.0023392 99.0841165 17.4583124 98.35401 16.9513784 97.6734023 15.863325 96.6215539 13.9592314 95.0004699 12.3889724 93.6516291 11.6347536 92.4389098 11.1278195 90.4589599 10.8310777 89.2462406 10.5837928 87.0064223 10.645614 85.9174499L10.6827068 85.1502193 11.8944027 85.6204574C14.194152 86.5114348 15.8756892 87.7860276 16.9884712 89.4442356 18.3856307 91.560307 18.9296575 93.9238722 19.1522139 98.8613722 19.2634921 101.385808 19.2387636 102.004543 19.0656642 101.33631zM128.761236 100.754699C128.785965 100.296836 128.847786 99.0841165 128.884879 98.0817669 129.169256 90.6940789 131.110443 87.4642857 136.538346 85.4472118L137.391479 85.1254699 137.317293 86.8826754C137.206015 89.3328634 136.896909 90.8302005 136.216876 92.2656642 135.709942 93.3546366 135.067001 94.1218672 133.731662 95.235589 132.06249 96.6463033 131.085714 97.5991541 130.516959 98.35401 129.997661 99.0469925 128.9467 101.026942 128.9467 101.286811 128.9467 101.373434 128.884879 101.484806 128.823058 101.52193 128.736508 101.571429 128.711779 101.31156 128.761236 100.754699zM20.7719298 87.1920426C20.4133668 84.8903509 19.5849624 83.0836466 17.8045113 80.6953321 17.2604845 79.9652256 16.6175439 79.0371241 16.370259 78.6287594 15.0596491 76.4508145 14.8741855 73.5551378 15.764411 69.5952381 15.9375104 68.8527569 16.0982456 68.2216479 16.1229741 68.1968985 16.1477026 68.1721491 16.5433584 68.3948935 17.0131997 68.691886 21.6992481 71.7360589 23.2571429 75.9682018 22.1196324 82.5886591 21.8847118 83.9869987 21.0315789 88.1201441 20.9697577 88.1820175 20.9450292 88.1943922 20.8584795 87.7489035 20.7719298 87.1920426zM126.560401 86.1030702C125.670175 81.9822995 125.410526 79.9404762 125.534169 77.8862782 125.719632 74.4213659 127.030242 71.7855576 129.552548 69.7437343 130.467502 69.0012531 131.778112 68.1226504 131.864662 68.1968985 131.88939 68.2340226 132.050125 68.8651316 132.21086 69.6076128 133.101086 73.5922619 132.915622 76.4508145 131.617377 78.60401 131.370092 79 130.739515 79.9157268 130.207853 80.6458333 128.254302 83.306391 127.611362 84.7171053 127.178613 87.2910401L127.017878 88.2562657 126.560401 86.1030702zM.284377611 84.8779762C.321470343 84.7047306.445112782 83.9003759.544026734 83.0836466 1.22406015 77.9852757 2.5593985 73.5427632 4.30275689 70.5357143 6.66432749 66.5015664 9.7924812 64.422619 14.1570593 63.9647556 14.8247285 63.8905075 15.3687552 63.8533835 15.3811195 63.8657581 15.4305764 63.9276316 15.0843776 66.4149436 14.8741855 67.6152882 14.5898079 69.1744987 13.8108605 71.4885652 13.2050125 72.5527882 12.2776942 74.1986216 11.1278195 75.3618421 8.50659983 77.3294173 5.27953216 79.7672306 3.2641604 81.5986842 1.49607352 83.702381.185463659 85.2739662.210192147 85.2492168.284377611 84.8779762zM146.986132 84.2839912C146.021721 83.0836466 143.771429 80.7819549 142.510276 79.7301065 141.916792 79.2227444 140.643275 78.2203947 139.691228 77.5026629 137.700585 76.0053258 136.822723 75.2380952 135.932498 74.2109962 134.275689 72.3176692 133.249457 69.4343672 132.730159 65.2022243 132.643609 64.4844925 132.581788 63.8905075 132.594152 63.8657581 132.606516 63.8533835 133.150543 63.8905075 133.818212 63.9647556 138.195155 64.422619 141.310944 66.5015664 143.684879 70.5604637 145.05731 72.9116541 146.244277 76.351817 146.949039 80.0642231 147.171596 81.2150689 147.727987 85.0512218 147.690894 85.0883459 147.666165 85.1130952 147.357059 84.7542293 146.986132 84.2839912zM26.2121972 74.6441103C26.2616541 74.3099937 26.3111111 73.3942669 26.3111111 72.602287 26.3234754 70.2758459 26.0761905 69.2487469 24.481203 65.0661028 23.7517126 63.1480263 23.5415205 61.7620614 23.7269841 60.1904762 23.9619048 58.2476504 24.8274018 55.7850877 26.1627402 53.3225251L26.7314954 52.2830514 27.2878864 52.889411C28.3512114 54.0897556 29.3156224 55.4880952 29.9091061 56.7131892 31.7019215 60.4503446 31.4422723 64.2122494 28.9817878 69.6571115 28.3388471 71.0802005 26.2369256 75.2257206 26.1503759 75.2257206 26.1256475 75.2257206 26.1627402 74.9658521 26.2121972 74.6441103zM120.749206 73.2210213C118.31345 68.531015 117.274854 65.7219612 116.965748 62.9376566 116.570092 59.4356203 117.806516 56.1192043 120.687385 52.889411L121.243776 52.2830514 121.812531 53.3225251C123.14787 55.7850877 124.013367 58.2476504 124.248287 60.1904762 124.433751 61.7620614 124.223559 63.1480263 123.494069 65.0661028 121.92381 69.1868734 121.651796 70.3005952 121.66416 72.5280388 121.66416 73.2952694 121.713617 74.2109962 121.775439 74.5451128 121.824896 74.891604 121.861988 75.1762218 121.83726 75.2009712 121.812531 75.2257206 121.330326 74.3347431 120.749206 73.2210213zM5.0075188 65.6600877C5.24243943 64.8928571 6.55304929 61.9476817 7.40618212 60.2523496 11.5852966 51.8870614 16.2342523 47.7415414 22.1072682 47.1351817 23.3807853 46.9990602 24.2957393 47.0485589 26.051462 47.3455514 26.8056809 47.4692982 27.1889724 47.5806704 27.1518797 47.6796679 26.2740184 49.8576128 25.9649123 50.5753446 25.4085213 51.6890664 24.0608187 54.3743734 22.3050961 56.5770677 20.5741019 57.7402882 19.4984127 58.4580201 17.9157895 59.2252506 15.3811195 60.2523496 11.4369256 61.8363095 9.63174603 62.7767857 6.65196324 64.781485 5.29189641 65.6848371 4.93333333 65.8828321 5.0075188 65.6600877zM142.300084 65.4373434C139.629407 63.5068922 136.46416 61.7991855 132.779616 60.3142231 130.059482 59.2252506 128.489223 58.4703947 127.40117 57.7402882 125.731997 56.6141917 123.914453 54.3743734 122.678028 51.8994361 122.24528 51.0579574 120.786299 47.6920426 120.786299 47.5559211 120.786299 47.4940476 122.368922 47.2465539 123.444612 47.1351817 125.818546 46.887688 128.13066 47.320802 130.368588 48.4345238 134.621888 50.5258459 138.232247 54.9807331 141.496408 62.1704261 142.337176 64.0390038 143.079031 65.8333333 143.01721 65.8828321 142.992481 65.9075815 142.671011 65.7095865 142.300084 65.4373434zM35.0155388 63.3460213C35.0526316 63.2470238 35.2504595 62.7396617 35.4606516 62.2322995 36.5363409 59.4974937 36.7836257 57.1834273 36.3879699 53.4215226 36.1530493 51.2435777 36.2148705 49.0780075 36.5239766 47.9395363 37.1669173 45.6130952 39.1575606 42.5936717 41.7540518 40.0444862L42.6071846 39.1906328 43.1141186 40.2301065C43.7570593 41.5665727 44.1527151 42.6060464 44.5112782 43.9796366 44.9192982 45.5635965 44.9316625 48.4345238 44.5360067 49.9937343 43.8188805 52.8399123 42.0507937 55.7603383 38.9844612 59.2128759 37.3152882 61.0814536 34.9289891 63.5687657 35.0155388 63.3460213zM111.550209 62.0095551C107.247452 57.4309211 105.380451 54.9559837 104.205848 52.2088033 103.377444 50.2907268 103.167251 49.2388784 103.179616 47.0114348 103.179616 45.3408521 103.216708 44.9324875 103.501086 43.8558897 103.834921 42.6060464 104.712782 40.3538534 105.170259 39.6113722L105.417544 39.2153822 106.579783 40.4157268C109.151546 43.0762845 110.833083 45.6749687 111.451295 47.9395363 111.760401 49.0903822 111.809858 51.1322055 111.587302 53.3720238 111.191646 57.3071742 111.426566 59.5222431 112.564077 62.3560464 112.798997 62.925282 112.972097 63.4078947 112.947368 63.4326441 112.935004 63.4450188 112.304428 62.8015351 111.550209 62.0095551zM47.0954052 54.114505C47.0954052 54.0897556 47.392147 53.7061404 47.7507101 53.285401 49.2096909 51.5653195 50.3966583 49.3997494 51.039599 47.320802 51.2497911 46.6401942 51.6207185 45.1057331 51.8556391 43.9177632 52.3996658 41.2448308 52.6840434 40.2672306 53.2404344 39.1535088 54.3655806 36.9136905 55.9111111 35.2802318 58.6559733 33.3992794 60.5971596 32.0875627 62.9587302 30.7758459 63.0700084 30.9614662 63.1194653 31.048089 63.2431078 31.7905702 63.354386 32.5949248 63.6634921 34.7357456 63.5522139 37.6066729 63.1194653 39.2153822 62.3528822 42.1110589 61.178279 44.04151 58.8167084 46.3432018 56.4056809 48.6820175 54.5757728 49.9194862 47.5034252 53.9536341 47.2808688 54.077381 47.0954052 54.1516291 47.0954052 54.114505zM98.3946533 52.7656642C93.6467836 50.0432331 91.3717627 48.4592732 89.2698413 46.4421992 86.5620718 43.8558897 85.1772765 41.3067043 84.6085213 37.9779135 84.3117794 36.1588346 84.4230576 33.1146617 84.8805347 31.0728383 84.9423559 30.7882206 84.9423559 30.7882206 85.8944027 31.3079574 90.6175439 33.8942669 93.3005848 36.2702068 94.6977444 39.0792607 95.2912281 40.2672306 95.5632414 41.2077068 96.1196324 43.9177632 96.6512949 46.5411967 97.1211362 48.0880326 97.7888053 49.4863722 98.5430242 51.0455827 99.6063492 52.6419173 100.546032 53.6566416 100.756224 53.879386 100.904595 54.077381 100.867502 54.1021303 100.842774 54.1268797 99.7299916 53.5328947 98.3946533 52.7656642zM15.3934837 46.6773183C18.8925647 41.987312 23.1705931 37.7180451 26.7191312 35.3421053 30.0698413 33.102287 33.2721805 32.0133145 36.5239766 32.0009398 38.1684211 31.9885652 39.3553885 32.1618108 40.851462 32.6196742 41.8529657 32.9290414 44.498914 34.1170113 44.498914 34.2655075 44.498914 34.3892544 42.3846282 37.012688 41.4202172 38.076911 39.7510443 39.9578634 37.5131161 41.7026942 35.7944862 42.4946742 33.8903926 43.3732769 32.5303258 43.6826441 28.6108605 44.1033835 26.9787803 44.2766291 25.087051 44.5117481 24.4070175 44.6107456 21.7363409 45.0191103 18.5463659 45.8482143 16.0735171 46.7639411L15.0349206 47.1475564 15.3934837 46.6773183zM131.852297 46.7515664C129.515455 45.8729637 126.251295 45.031485 123.568254 44.6107456 122.888221 44.5117481 120.996491 44.2766291 119.364411 44.1033835 115.333668 43.6702694 114.010693 43.3609023 112.069507 42.4328008 109.80685 41.356203 107.321637 39.1411341 104.799332 35.9979637 104.069841 35.0946115 103.476358 34.3150063 103.476358 34.2655075 103.476358 34.1170113 106.122306 32.9290414 107.12381 32.6196742 108.619883 32.1618108 109.80685 31.9885652 111.451295 32.0009398 113.207018 32.0009398 114.616541 32.2484336 116.3599 32.8547932 121.107769 34.5130013 125.991646 38.472901 131.184628 44.9077381 132.346867 46.3432018 132.952715 47.1351817 132.890894 47.122807 132.866165 47.122807 132.396324 46.9495614 131.852297 46.7515664zM49.7166249 32.0380639C48.8882206 31.914317 47.3550543 31.6296992 46.3164578 31.4317043 41.1852966 30.4046053 39.6150376 30.2437343 35.0773601 30.2437343 31.4051796 30.2437343 31.2815372 30.2313596 31.5535505 30.02099 32.2583124 29.4517544 36.5610693 26.6550752 37.9458647 25.8507206 42.3846282 23.2767857 46.6008354 21.5690789 50.0999165 20.8884712 52.4120301 20.4553571 55.095071 20.381109 57.07335 20.7276003 60.4240602 21.2968358 63.762406 23.0787907 66.2352548 25.6279762L66.7669173 26.1848371 65.4315789 27.1129386C62.5507101 29.1300125 59.5585631 30.7758459 57.4813701 31.4688283 55.095071 32.2608083 52.3749373 32.4588033 49.7166249 32.0380639zM93.0903926 32.0999373C89.8880535 31.5554511 86.8093567 30.0952381 82.5436926 27.1129386L81.2083542 26.1848371 81.6781955 25.6898496C82.9517126 24.3781328 84.9052632 22.9550439 86.6362573 22.0888158 90.1600668 20.3192356 94.7472013 20.0222431 99.4579783 21.2597118 103.834921 22.4105576 109.064996 24.9844925 114.356892 28.5855263 115.346032 29.2661341 116.27335 29.9096178 116.421721 30.0333647 116.693734 30.2313596 116.545363 30.2437343 112.897911 30.2437343 108.310777 30.2437343 106.987803 30.3798559 101.374436 31.481203 97.1953216 32.2979323 95.1181287 32.4464286 93.0903926 32.0999373zM69.6601504 24.7864975C70.0063492 24.4771303 70.8100251 23.7717732 71.4529657 23.227287 72.0959064 22.6828008 72.6399332 22.200188 72.6522974 22.1506892 72.7017544 22.0269424 62.4394319 17.1513158 58.0995823 15.245614 51.9050961 12.5108083 48.3441938 11.2362155 46.1062657 10.9515977L45.0553049 10.8154762 46.3659148 5.37061404C47.5034252.668233083 47.7012531-.0123746867 47.7754386.420739348 48.0350877 1.90570175 48.6656642 3.13079574 49.8649958 4.40538847 51.4847118 6.1502193 53.5371763 7.58568296 59.8923977 11.4465852 66.6556391 15.5426065 69.2644946 17.2503133 72.7635756 19.8737469 73.5177945 20.4429825 74.1730994 20.9008459 74.2225564 20.9008459 74.2720134 20.9008459 74.8531328 20.4924812 75.5084378 19.9974937 78.8591479 17.4483083 81.8389307 15.4931078 88.3301587 11.5579574 94.6730159 7.70942982 96.552381 6.41008772 98.2957393 4.66525689 98.7408521 4.21976817 99.3219716 3.5391604 99.5816207 3.14317043 100.113283 2.3264411 100.620217.989974937 100.632581.371240602 100.632581.136121554 100.65731-.0247493734 100.694403.0123746867 100.74386.0618734336 103.352715 10.6669799 103.352715 10.8154762 103.352715 10.8278509 102.969424 10.8773496 102.511947 10.9144737 99.5568922 11.1990915 92.5834586 14.0081454 80.6025063 19.75 77.9812865 21.012218 75.8175439 22.0640664 75.7804511 22.1011905 75.7433584 22.1259398 75.8917293 22.2991855 76.0895572 22.4724311 77.5238095 23.6851504 79.3537176 25.2938596 79.3289891 25.318609 79.3042607 25.3309837 78.154386 24.7864975 76.7695906 24.1058897 74.3832916 22.9302945 74.2349206 22.8807957 73.8763576 23.0169173 73.6661654 23.1035401 72.4915622 23.660401 71.2675021 24.2667607L69.0419382 25.3681078 69.6601504 24.7864975z"/>
      </g>
    </g>
    <path fill="#5F3D06" d="M94.2238747,112.269765 L94.2238747,74.0637076 L82,74.0637076 L82,66.5723238 C84.5766139,66.5723238 86.7337467,66.3781047 88.4714631,65.9896606 C90.2091794,65.6012165 91.6322879,65.0046864 92.7408311,64.2000522 C93.8493743,63.3954181 94.6882592,62.3965769 95.2575111,61.2034987 C95.8267631,60.0104205 96.2012653,58.6092683 96.381029,57 L105.908461,57 L105.908461,112.269765 L94.2238747,112.269765 Z"/>
    <path fill="#A46600" d="M93.2238747,110.269765 L93.2238747,72.0637076 L81,72.0637076 L81,64.5723238 C83.5766139,64.5723238 85.7337467,64.3781047 87.4714631,63.9896606 C89.2091794,63.6012165 90.6322879,63.0046864 91.7408311,62.2000522 C92.8493743,61.3954181 93.6882592,60.3965769 94.2575111,59.2034987 C94.8267631,58.0104205 95.2012653,56.6092683 95.381029,55 L104.908461,55 L104.908461,110.269765 L93.2238747,110.269765 Z"/>
  </g>
</svg>
