<svg xmlns="http://www.w3.org/2000/svg" width="216" height="216" viewBox="0 0 216 216">
  <g fill="none" fill-rule="evenodd" transform="translate(5 5)">
    <circle cx="105.5" cy="105.5" r="105.5" fill="#A46600"/>
    <circle cx="100" cy="100" r="100" fill="#FFB01A" stroke="#E49500" stroke-width="10"/>
    <g fill-rule="nonzero" transform="translate(30 43)">
      <path fill="#5F3D06" d="M77.044266,2 C46.0655532,2 20.8828936,26.9718293 20.1233723,58.0639024 L3,58.0639024 L28.6327979,86.8139024 L54.2628085,58.0639024 L34.3647447,58.0639024 C35.1159043,34.912439 53.929734,16.375 77.044266,16.375 C100.638202,16.375 119.761415,35.682378 119.761415,59.5 C119.761415,83.317622 100.638202,102.625 77.044266,102.625 C67.583,102.625 58.8450213,99.5143902 51.768234,94.2580488 L41.9725,104.805793 C51.6428085,112.443476 63.8160532,117 77.044266,117 C108.500989,117 134,91.2582317 134,59.5 C134,27.7417683 108.500989,2 77.044266,2 Z M71.9812553,28.6463415 L71.9812553,61.5335366 L92.9231383,82.6037805 L99.8201489,75.6631098 L81.7393617,57.4664634 L81.7393617,28.6463415 L71.9812553,28.6463415 Z"/>
      <path fill="#A46600" d="M74.044266,0 C43.0655532,0 17.8828936,24.9718293 17.1233723,56.0639024 L0,56.0639024 L25.6327979,84.8139024 L51.2628085,56.0639024 L31.3647447,56.0639024 C32.1159043,32.912439 50.929734,14.375 74.044266,14.375 C97.6382021,14.375 116.761415,33.682378 116.761415,57.5 C116.761415,81.317622 97.6382021,100.625 74.044266,100.625 C64.583,100.625 55.8450213,97.5143902 48.768234,92.2580488 L38.9725,102.805793 C48.6428085,110.443476 60.8160532,115 74.044266,115 C105.500989,115 131,89.2582317 131,57.5 C131,25.7417683 105.500989,0 74.044266,0 Z M68.9812553,26.6463415 L68.9812553,59.5335366 L89.9231383,80.6037805 L96.8201489,73.6631098 L78.7393617,55.4664634 L78.7393617,26.6463415 L68.9812553,26.6463415 Z"/>
    </g>
  </g>
</svg>
